<svg width="96" height="96" viewBox="0 0 96 96" fill="none" xmlns="http://www.w3.org/2000/svg">
<path d="M9.89152 24.5496H81.6973C86.5478 24.5496 90.4898 28.4922 90.4898 33.3435V72.916C90.4898 74.5282 89.1709 75.8473 87.559 75.8473H5.49527C3.06267 75.8473 1.099 73.8833 1.099 71.4503V33.3435C1.099 28.4922 5.04097 24.5496 9.89152 24.5496Z" fill="white"/>
<path d="M90.4899 81.3436H5.49534C2.46191 81.3436 0 78.8813 0 75.8474V33.3436C0 27.8914 4.44021 23.4504 9.89159 23.4504H86.0936C91.545 23.4504 95.9852 27.8914 95.9852 33.3436V75.8474C95.9852 78.8813 93.5233 81.3436 90.4899 81.3436ZM9.89159 25.6489C5.65651 25.6489 2.19814 29.1078 2.19814 33.3436V75.8474C2.19814 77.6648 3.67821 79.1451 5.49534 79.1451H90.4899C92.307 79.1451 93.7871 77.6648 93.7871 75.8474V33.3436C93.7871 29.1078 90.3287 25.6489 86.0936 25.6489H9.89159Z" fill="#0067B5"/>
<path d="M69.9736 33.3435H94.8858V52.3969H72.9044C70.4718 52.3969 68.5082 50.433 68.5082 48V34.8092C68.5082 34.003 69.1676 33.3435 69.9736 33.3435Z" fill="white"/>
<path d="M94.8859 57.893H72.9045C69.8711 57.893 67.4092 55.4307 67.4092 52.3968V34.809C67.4092 33.402 68.5669 32.2441 69.9737 32.2441H94.8859C95.4867 32.2441 95.9849 32.7425 95.9849 33.3434V56.7938C95.9849 57.3947 95.4867 57.893 94.8859 57.893ZM69.9737 34.4426C69.7685 34.4426 69.6073 34.6038 69.6073 34.809V52.3968C69.6073 54.2142 71.0874 55.6945 72.9045 55.6945H93.7868V34.4426H69.9737Z" fill="#0067B5"/>
<path d="M78.7664 33.3435H89.0244V50.9313C89.0244 51.7374 88.365 52.3969 87.559 52.3969H81.6973C79.2647 52.3969 77.301 50.433 77.301 48V34.8092C77.301 34.003 77.9605 33.3435 78.7664 33.3435Z" fill="white"/>
<path d="M94.8861 57.893H81.6972C78.6638 57.893 76.2019 55.4307 76.2019 52.3968V34.809C76.2019 33.402 77.3596 32.2441 78.7664 32.2441H94.8861C95.4869 32.2441 95.9851 32.7425 95.9851 33.3434V56.7938C95.9851 57.3947 95.4869 57.893 94.8861 57.893ZM78.7664 34.4426C78.5612 34.4426 78.4 34.6038 78.4 34.809V52.3968C78.4 54.2142 79.8801 55.6945 81.6972 55.6945H93.787V34.4426H78.7664Z" fill="#0067B5"/>
<path d="M83.1625 64.1223L86.0933 69.9849H89.0242C89.8302 69.9849 90.4896 69.3254 90.4896 68.5193V64.1223H83.1625Z" fill="white"/>
<path d="M94.8862 74.0153H87.5591C87.1487 74.0153 86.7678 73.7808 86.5773 73.4144L82.181 64.6205C82.0051 64.2834 82.0344 63.873 82.2249 63.5506C82.4301 63.2282 82.7818 63.0229 83.1628 63.0229H94.8862C95.487 63.0229 95.9852 63.5213 95.9852 64.1222V72.9161C95.9852 73.517 95.487 74.0153 94.8862 74.0153ZM88.2332 71.8168H93.7871V65.2214H84.936L88.2332 71.8168Z" fill="#0067B5"/>
<path d="M1.099 64.1223V69.9849H5.49527C6.30125 69.9849 6.96069 69.3254 6.96069 68.5193V64.1223H1.099Z" fill="white"/>
<path d="M9.89159 74.0153H1.09907C0.498244 74.0153 0 73.517 0 72.9161V64.1222C0 63.8291 0.117236 63.5506 0.322395 63.3454C0.527554 63.1402 0.805983 63.0229 1.09907 63.0229H9.89159C10.4924 63.0229 10.9907 63.5213 10.9907 64.1222V72.9161C10.9907 73.517 10.4924 74.0153 9.89159 74.0153ZM2.19814 71.8168H8.79252V65.2214H2.19814V71.8168Z" fill="#0067B5"/>
<path d="M71.7181 24.5498H58.5293L61.0205 17.6905C61.4455 16.5327 62.5446 15.7559 63.7755 15.7559H66.4572C67.6882 15.7559 68.7873 16.5327 69.2122 17.6905L71.7035 24.5498H71.7181Z" fill="white"/>
<path d="M76.1141 25.6489H58.529C58.1627 25.6489 57.8403 25.473 57.6352 25.1798C57.43 24.8867 57.386 24.5056 57.5033 24.1685L59.9945 17.3093C60.566 15.7264 62.0901 14.6565 63.7753 14.6565H70.8533C72.5385 14.6565 74.0625 15.7264 74.6487 17.3093L77.1399 24.1685C77.2572 24.5056 77.2132 24.8867 77.0081 25.1798C76.8029 25.473 76.4658 25.6489 76.1141 25.6489ZM60.0971 23.4504H74.5461L72.5825 18.0568C72.3187 17.3386 71.63 16.855 70.8679 16.855H63.7899C63.0279 16.855 62.3245 17.3386 62.0754 18.0568L60.1117 23.4504H60.0971Z" fill="#0067B5"/>
<path d="M67.3214 12.458C66.7205 12.458 66.2223 11.9597 66.2223 11.3588V1.09924C66.2223 0.498321 66.7205 0 67.3214 0C67.9222 0 68.4204 0.498321 68.4204 1.09924V11.3588C68.4204 11.9597 67.9222 12.458 67.3214 12.458Z" fill="#0067B5"/>
<path d="M77.9166 16.0929C77.6381 16.0929 77.3597 15.9903 77.1399 15.7704C76.7149 15.3454 76.7149 14.6419 77.1399 14.2168L84.467 6.8886C84.892 6.46356 85.5954 6.46356 86.0204 6.8886C86.4453 7.31364 86.4453 8.01715 86.0204 8.44219L78.6932 15.7704C78.4734 15.9903 78.195 16.0929 77.9166 16.0929Z" fill="#0067B5"/>
<path d="M56.741 16.0929C56.4626 16.0929 56.1841 15.9903 55.9643 15.7704L48.6372 8.44219C48.2122 8.01715 48.2122 7.31364 48.6372 6.8886C49.0622 6.46356 49.7656 6.46356 50.1906 6.8886L57.5177 14.2168C57.9426 14.6419 57.9426 15.3454 57.5177 15.7704C57.2979 15.9903 57.0194 16.0929 56.741 16.0929Z" fill="#0067B5"/>
<path d="M94.8863 96.0001H59.9946C59.3938 96.0001 58.8955 95.5018 58.8955 94.9009C58.8955 94.3 59.3938 93.8016 59.9946 93.8016H94.8863C95.4871 93.8016 95.9854 94.3 95.9854 94.9009C95.9854 95.5018 95.4871 96.0001 94.8863 96.0001Z" fill="#0067B5"/>
<path d="M52.6674 96.0001H24.1063C23.5054 96.0001 23.0072 95.5018 23.0072 94.9009C23.0072 94.3 23.5054 93.8016 24.1063 93.8016H52.6674C53.2682 93.8016 53.7664 94.3 53.7664 94.9009C53.7664 95.5018 53.2682 96.0001 52.6674 96.0001Z" fill="#0067B5"/>
<path d="M16.7935 96.0001H9.90595C9.30513 96.0001 8.80688 95.5018 8.80688 94.9009C8.80688 94.3 9.30513 93.8016 9.90595 93.8016H16.7935C17.3943 93.8016 17.8925 94.3 17.8925 94.9009C17.8925 95.5018 17.3943 96.0001 16.7935 96.0001Z" fill="#0067B5"/>
<path d="M30.4073 80.2443C30.4073 85.0956 26.4654 89.0382 21.6148 89.0382C16.7643 89.0382 12.8223 85.0956 12.8223 80.2443C12.8223 75.393 16.7643 71.4504 21.6148 71.4504C26.4654 71.4504 30.4073 75.393 30.4073 80.2443Z" fill="white"/>
<path d="M21.6149 90.1376C16.1635 90.1376 11.7233 85.6967 11.7233 80.2444C11.7233 74.7922 16.1635 70.3513 21.6149 70.3513C27.0663 70.3513 31.5065 74.7922 31.5065 80.2444C31.5065 85.6967 27.0663 90.1376 21.6149 90.1376ZM21.6149 72.5498C17.3798 72.5498 13.9214 76.0087 13.9214 80.2444C13.9214 84.4802 17.3798 87.9391 21.6149 87.9391C25.8499 87.9391 29.3083 84.4802 29.3083 80.2444C29.3083 76.0087 25.8499 72.5498 21.6149 72.5498Z" fill="#0067B5"/>
<path d="M21.6147 83.1756C23.2333 83.1756 24.5455 81.8632 24.5455 80.2443C24.5455 78.6254 23.2333 77.313 21.6147 77.313C19.996 77.313 18.6838 78.6254 18.6838 80.2443C18.6838 81.8632 19.996 83.1756 21.6147 83.1756Z" fill="white"/>
<path d="M21.6148 84.2747C19.3873 84.2747 17.5848 82.4719 17.5848 80.2442C17.5848 78.0164 19.3873 76.2136 21.6148 76.2136C23.8422 76.2136 25.6447 78.0164 25.6447 80.2442C25.6447 82.4719 23.8422 84.2747 21.6148 84.2747ZM21.6148 78.4121C20.6036 78.4121 19.783 79.2329 19.783 80.2442C19.783 81.2555 20.6036 82.0762 21.6148 82.0762C22.6259 82.0762 23.4465 81.2555 23.4465 80.2442C23.4465 79.2329 22.6259 78.4121 21.6148 78.4121Z" fill="#0067B5"/>
<path d="M83.163 80.2443C83.163 85.0956 79.221 89.0382 74.3704 89.0382C69.5199 89.0382 65.5779 85.0956 65.5779 80.2443C65.5779 75.393 69.5199 71.4504 74.3704 71.4504C79.221 71.4504 83.163 75.393 83.163 80.2443Z" fill="white"/>
<path d="M74.3704 90.1376C68.919 90.1376 64.4788 85.6967 64.4788 80.2444C64.4788 74.7922 68.919 70.3513 74.3704 70.3513C79.8217 70.3513 84.262 74.7922 84.262 80.2444C84.262 85.6967 79.8217 90.1376 74.3704 90.1376ZM74.3704 72.5498C70.1353 72.5498 66.6769 76.0087 66.6769 80.2444C66.6769 84.4802 70.1353 87.9391 74.3704 87.9391C78.6054 87.9391 82.0638 84.4802 82.0638 80.2444C82.0638 76.0087 78.6054 72.5498 74.3704 72.5498Z" fill="#0067B5"/>
<path d="M74.3703 83.1756C75.989 83.1756 77.3011 81.8632 77.3011 80.2443C77.3011 78.6254 75.989 77.313 74.3703 77.313C72.7516 77.313 71.4395 78.6254 71.4395 80.2443C71.4395 81.8632 72.7516 83.1756 74.3703 83.1756Z" fill="white"/>
<path d="M74.3701 84.2747C72.1427 84.2747 70.3402 82.4719 70.3402 80.2442C70.3402 78.0164 72.1427 76.2136 74.3701 76.2136C76.5976 76.2136 78.4 78.0164 78.4 80.2442C78.4 82.4719 76.5976 84.2747 74.3701 84.2747ZM74.3701 78.4121C73.359 78.4121 72.5383 79.2329 72.5383 80.2442C72.5383 81.2555 73.359 82.0762 74.3701 82.0762C75.3813 82.0762 76.2019 81.2555 76.2019 80.2442C76.2019 79.2329 75.3813 78.4121 74.3701 78.4121Z" fill="#0067B5"/>
<path d="M37.7347 33.3435H56.7852V75.8473C56.7852 76.6534 56.1258 77.313 55.3198 77.313H36.2693V34.8092C36.2693 34.003 36.9287 33.3435 37.7347 33.3435Z" fill="white"/>
<path d="M59.716 81.3434H36.2692C35.6684 81.3434 35.1702 80.8451 35.1702 80.2441V34.809C35.1702 33.402 36.3279 32.2441 37.7347 32.2441H58.2506C59.6574 32.2441 60.8151 33.402 60.8151 34.809V80.2441C60.8151 80.8451 60.3168 81.3434 59.716 81.3434ZM37.3683 79.1449H58.6169V34.809C58.6169 34.6038 58.4557 34.4426 58.2506 34.4426H37.7347C37.5295 34.4426 37.3683 34.6038 37.3683 34.809V79.1449Z" fill="#0067B5"/>
<path d="M49.458 39.2063H43.5963C42.787 39.2063 42.1309 39.8625 42.1309 40.6719V46.5345C42.1309 47.344 42.787 48.0002 43.5963 48.0002H49.458C50.2673 48.0002 50.9234 47.344 50.9234 46.5345V40.6719C50.9234 39.8625 50.2673 39.2063 49.458 39.2063Z" fill="white"/>
<path d="M52.3889 52.0306H43.5964C42.1895 52.0306 41.0319 50.8727 41.0319 49.4657V40.6718C41.0319 39.2648 42.1895 38.1069 43.5964 38.1069H52.3889C53.7957 38.1069 54.9534 39.2648 54.9534 40.6718V49.4657C54.9534 50.8727 53.7957 52.0306 52.3889 52.0306ZM43.5964 40.3054C43.3912 40.3054 43.23 40.4666 43.23 40.6718V49.4657C43.23 49.6709 43.3912 49.8321 43.5964 49.8321H52.3889C52.5941 49.8321 52.7552 49.6709 52.7552 49.4657V40.6718C52.7552 40.4666 52.5941 40.3054 52.3889 40.3054H43.5964Z" fill="#0067B5"/>
<path d="M46.5272 57.8933H42.1309C41.5301 57.8933 41.0319 57.395 41.0319 56.7941C41.0319 56.1931 41.5301 55.6948 42.1309 55.6948H46.5272C47.128 55.6948 47.6263 56.1931 47.6263 56.7941C47.6263 57.395 47.128 57.8933 46.5272 57.8933Z" fill="#0067B5"/>
<path d="M4.02985 15.7557C5.64851 15.7557 6.96069 14.4433 6.96069 12.8244C6.96069 11.2055 5.64851 9.89307 4.02985 9.89307C2.41118 9.89307 1.099 11.2055 1.099 12.8244C1.099 14.4433 2.41118 15.7557 4.02985 15.7557Z" fill="white"/>
<path d="M4.02991 16.8548C1.80247 16.8548 0 15.052 0 12.8242C0 10.5964 1.80247 8.7937 4.02991 8.7937C6.25736 8.7937 8.05981 10.5964 8.05981 12.8242C8.05981 15.052 6.25736 16.8548 4.02991 16.8548ZM4.02991 10.9922C3.01877 10.9922 2.19814 11.8129 2.19814 12.8242C2.19814 13.8355 3.01877 14.6563 4.02991 14.6563C5.04106 14.6563 5.86169 13.8355 5.86169 12.8242C5.86169 11.8129 5.04106 10.9922 4.02991 10.9922Z" fill="#0067B5"/>
<path d="M18.6841 6.96196C20.3028 6.96196 21.615 5.64957 21.615 4.03066C21.615 2.41175 20.3028 1.09937 18.6841 1.09937C17.0655 1.09937 15.7533 2.41175 15.7533 4.03066C15.7533 5.64957 17.0655 6.96196 18.6841 6.96196Z" fill="white"/>
<path d="M18.6842 8.06107C16.4568 8.06107 14.6543 6.25832 14.6543 4.03054C14.6543 1.80275 16.4568 0 18.6842 0C20.9117 0 22.7141 1.80275 22.7141 4.03054C22.7141 6.25832 20.9117 8.06107 18.6842 8.06107ZM18.6842 2.19847C17.6731 2.19847 16.8524 3.01924 16.8524 4.03054C16.8524 5.04183 17.6731 5.8626 18.6842 5.8626C19.6954 5.8626 20.516 5.04183 20.516 4.03054C20.516 3.01924 19.6954 2.19847 18.6842 2.19847Z" fill="#0067B5"/>
<path d="M36.2838 17.2215C37.9024 17.2215 39.2146 15.9091 39.2146 14.2902C39.2146 12.6713 37.9024 11.3589 36.2838 11.3589C34.6651 11.3589 33.3529 12.6713 33.3529 14.2902C33.3529 15.9091 34.6651 17.2215 36.2838 17.2215Z" fill="white"/>
<path d="M36.2838 18.3206C34.0564 18.3206 32.2539 16.5178 32.2539 14.2901C32.2539 12.0623 34.0564 10.2595 36.2838 10.2595C38.5113 10.2595 40.3137 12.0623 40.3137 14.2901C40.3137 16.5178 38.5113 18.3206 36.2838 18.3206ZM36.2838 12.458C35.2727 12.458 34.452 13.2788 34.452 14.2901C34.452 15.3014 35.2727 16.1221 36.2838 16.1221C37.295 16.1221 38.1156 15.3014 38.1156 14.2901C38.1156 13.2788 37.295 12.458 36.2838 12.458Z" fill="#0067B5"/>
<path d="M18.6839 53.8626C24.3492 53.8626 28.9418 49.2692 28.9418 43.603C28.9418 37.9369 24.3492 33.3435 18.6839 33.3435C13.0186 33.3435 8.4259 37.9369 8.4259 43.603C8.4259 49.2692 13.0186 53.8626 18.6839 53.8626Z" fill="white"/>
<path d="M18.6839 54.9617C12.4266 54.9617 7.3269 49.8612 7.3269 43.6029C7.3269 37.3446 12.4266 32.2441 18.6839 32.2441C24.9413 32.2441 30.041 37.3446 30.041 43.6029C30.041 49.8612 24.9413 54.9617 18.6839 54.9617ZM18.6839 34.4426C13.6282 34.4426 9.52504 38.5464 9.52504 43.6029C9.52504 48.6594 13.6282 52.7632 18.6839 52.7632C23.7396 52.7632 27.8428 48.6594 27.8428 43.6029C27.8428 38.5464 23.7396 34.4426 18.6839 34.4426Z" fill="#0067B5"/>
<path d="M23.0807 44.7024H14.2882C13.6873 44.7024 13.1891 44.2041 13.1891 43.6031C13.1891 43.0022 13.6873 42.5039 14.2882 42.5039H23.0807C23.6815 42.5039 24.1798 43.0022 24.1798 43.6031C24.1798 44.2041 23.6815 44.7024 23.0807 44.7024Z" fill="#0067B5"/>
<path d="M18.6839 49.0993C18.0831 49.0993 17.5848 48.601 17.5848 48.0001V39.2062C17.5848 38.6053 18.0831 38.1069 18.6839 38.1069C19.2847 38.1069 19.783 38.6053 19.783 39.2062V48.0001C19.783 48.601 19.2847 49.0993 18.6839 49.0993Z" fill="#0067B5"/>
</svg>
