<svg width="98" height="96" viewBox="0 0 98 96" fill="none" xmlns="http://www.w3.org/2000/svg">
<path d="M33.5903 12H63.1204C65.1629 12 66.8116 13.6492 66.8116 15.6923V25.5385H28.6686V16.9231C28.6686 14.2031 30.871 12 33.5903 12Z" fill="white"/>
<path d="M70.503 26.4614H28.6687C28.1642 26.4614 27.7458 26.043 27.7458 25.5384V15.6922C27.7458 11.1138 31.474 7.38452 36.0512 7.38452H63.1204C67.6976 7.38452 71.4258 11.1138 71.4258 15.6922V25.5384C71.4258 26.043 71.0074 26.4614 70.503 26.4614ZM29.5915 24.6153H69.5802V15.6922C69.5802 12.1353 66.6764 9.23068 63.1204 9.23068H36.0512C32.4953 9.23068 29.5915 12.1353 29.5915 15.6922V24.6153Z" fill="#0067B5"/>
<path d="M63.1204 26.4613H36.0511C35.5466 26.4613 35.1283 26.0429 35.1283 25.5383V16.9229C35.1283 15.7414 36.1003 14.769 37.2815 14.769H61.8899C63.0712 14.769 64.0432 15.7414 64.0432 16.9229V25.5383C64.0432 26.0429 63.6248 26.4613 63.1204 26.4613ZM36.9739 24.6152H62.1976V16.9229C62.1976 16.7506 62.0622 16.6152 61.8899 16.6152H37.2815C37.1093 16.6152 36.9739 16.7506 36.9739 16.9229V24.6152Z" fill="#0067B5"/>
<path d="M82.8073 29.2307H71.7335C71.7335 36.7138 77.7872 42.7692 85.2682 42.7692V31.6923C85.2682 30.3384 84.1608 29.2307 82.8073 29.2307Z" fill="white"/>
<path d="M71.7335 83.3844H82.8073C84.1608 83.3844 85.2682 82.2767 85.2682 80.9229V69.8459C77.7872 69.8459 71.7335 75.9013 71.7335 83.3844Z" fill="white"/>
<path d="M10.2123 69.8459V78.4613C10.2123 81.1813 12.4147 83.3844 15.134 83.3844H23.7469C23.7469 75.9013 17.6932 69.8459 10.2123 69.8459Z" fill="white"/>
<path d="M23.7469 29.2307H15.134C12.4147 29.2307 10.2123 31.4338 10.2123 34.1538V42.7692C17.6932 42.7692 23.7469 36.7138 23.7469 29.2307Z" fill="white"/>
<path d="M84.0376 87.9998H15.1341C11.9103 87.9998 9.28955 85.3783 9.28955 82.1537V30.4614C9.28955 27.2368 11.9103 24.6152 15.1341 24.6152H84.0376C87.2613 24.6152 89.8821 27.2368 89.8821 30.4614V82.1537C89.8821 85.3783 87.2613 87.9998 84.0376 87.9998ZM15.1341 26.4614C12.9316 26.4614 11.1352 28.2583 11.1352 30.4614V82.1537C11.1352 84.3568 12.9316 86.1537 15.1341 86.1537H84.0376C86.2401 86.1537 88.0365 84.3568 88.0365 82.1537V30.4614C88.0365 28.2583 86.2401 26.4614 84.0376 26.4614H15.1341Z" fill="#0067B5"/>
<path d="M84.0375 67.52V38.1292C79.0051 36.16 75.4246 31.2615 75.4246 25.5261H23.7469C23.7469 33.0092 17.6932 39.0646 10.2123 39.0646V73.5261C15.946 73.5261 20.8431 77.1077 22.8118 82.1415H69.4078C70.4291 82.1415 71.3396 81.5138 71.6964 80.5661C73.5666 75.6061 77.504 71.68 82.4626 69.8092C83.41 69.4523 84.0375 68.5415 84.0375 67.52Z" fill="white"/>
<path d="M75.4247 87.9998H23.747C23.2425 87.9998 22.8242 87.5814 22.8242 87.0768C22.8242 80.1229 17.1642 74.4614 10.2124 74.4614C9.70789 74.4614 9.28955 74.0429 9.28955 73.5383V39.0768C9.28955 38.5722 9.70789 38.1537 10.2124 38.1537C17.1642 38.1537 22.8242 32.4922 22.8242 25.5383C22.8242 25.0337 23.2425 24.6152 23.747 24.6152H75.4247C75.9291 24.6152 76.3475 25.0337 76.3475 25.5383C76.3475 32.4922 82.0074 38.1537 88.9593 38.1537C89.4638 38.1537 89.8821 38.5722 89.8821 39.0768V73.5383C89.8821 74.0429 89.4638 74.4614 88.9593 74.4614C82.0074 74.4614 76.3475 80.1229 76.3475 87.0768C76.3475 87.5814 75.9291 87.9998 75.4247 87.9998ZM24.6452 86.1537H74.5387C74.994 78.9168 80.8016 73.1075 88.0488 72.6398V39.9629C80.8139 39.5075 75.0063 33.6983 74.5387 26.4491H24.6452C24.1899 33.686 18.3824 39.4952 11.1352 39.9629V72.6398C18.3701 73.0952 24.1776 78.9045 24.6452 86.1537Z" fill="#0067B5"/>
<path d="M82.8069 32.923C83.4864 32.923 84.0373 32.3719 84.0373 31.6922C84.0373 31.0125 83.4864 30.4614 82.8069 30.4614C82.1274 30.4614 81.5765 31.0125 81.5765 31.6922C81.5765 32.3719 82.1274 32.923 82.8069 32.923Z" fill="#0067B5"/>
<path d="M82.8069 82.1537C83.4864 82.1537 84.0373 81.6026 84.0373 80.9229C84.0373 80.2432 83.4864 79.6921 82.8069 79.6921C82.1274 79.6921 81.5765 80.2432 81.5765 80.9229C81.5765 81.6026 82.1274 82.1537 82.8069 82.1537Z" fill="#0067B5"/>
<path d="M16.3646 32.923C17.0441 32.923 17.595 32.3719 17.595 31.6922C17.595 31.0125 17.0441 30.4614 16.3646 30.4614C15.685 30.4614 15.1342 31.0125 15.1342 31.6922C15.1342 32.3719 15.685 32.923 16.3646 32.923Z" fill="#0067B5"/>
<path d="M16.3646 82.1537C17.0441 82.1537 17.595 81.6026 17.595 80.9229C17.595 80.2432 17.0441 79.6921 16.3646 79.6921C15.685 79.6921 15.1342 80.2432 15.1342 80.9229C15.1342 81.6026 15.685 82.1537 16.3646 82.1537Z" fill="#0067B5"/>
<path d="M49.5858 74.769C59.779 74.769 68.0421 66.5035 68.0421 56.3075C68.0421 46.1115 59.779 37.8459 49.5858 37.8459C39.3927 37.8459 31.1295 46.1115 31.1295 56.3075C31.1295 66.5035 39.3927 74.769 49.5858 74.769Z" fill="white"/>
<path d="M49.5859 75.6923C38.9059 75.6923 30.2068 66.9908 30.2068 56.3077C30.2068 45.6246 38.9059 36.9231 49.5859 36.9231C60.266 36.9231 68.965 45.6246 68.965 56.3077C68.965 66.9908 60.266 75.6923 49.5859 75.6923ZM49.5859 38.7692C39.9148 38.7692 32.0524 46.6339 32.0524 56.3077C32.0524 65.9816 39.9148 73.8462 49.5859 73.8462C59.257 73.8462 67.1194 65.9816 67.1194 56.3077C67.1194 46.6339 59.257 38.7692 49.5859 38.7692Z" fill="#0067B5"/>
<path d="M61.5333 52.5046H53.3879V44.3569H45.7962V52.5046H37.6508V60.1108H45.7962V68.2585H53.3879V60.1108H61.5333V52.5046Z" fill="white"/>
<path d="M53.3878 69.1815H45.7838C45.2793 69.1815 44.861 68.763 44.861 68.2584V61.0338H37.6384C37.1339 61.0338 36.7156 60.6154 36.7156 60.1107V52.5046C36.7156 52 37.1339 51.5815 37.6384 51.5815H44.861V44.3569C44.861 43.8523 45.2793 43.4338 45.7838 43.4338H53.3878C53.8922 43.4338 54.3106 43.8523 54.3106 44.3569V51.5815H61.5332C62.0377 51.5815 62.456 52 62.456 52.5046V60.1107C62.456 60.6154 62.0377 61.0338 61.5332 61.0338H54.3106V68.2584C54.3106 68.763 53.8922 69.1815 53.3878 69.1815ZM46.7066 67.3354H52.4649V60.1107C52.4649 59.6061 52.8833 59.1877 53.3878 59.1877H60.6104V53.4277H53.3878C52.8833 53.4277 52.4649 53.0092 52.4649 52.5046V45.28H46.7066V52.5046C46.7066 53.0092 46.2882 53.4277 45.7838 53.4277H38.5612V59.1877H45.7838C46.2882 59.1877 46.7066 59.6061 46.7066 60.1107V67.3354Z" fill="#0067B5"/>
<path d="M56.3531 83.0769H38.1552C37.6507 83.0769 37.2324 82.6584 37.2324 82.1538C37.2324 81.6492 37.6507 81.2307 38.1552 81.2307H56.3531C56.8575 81.2307 57.2759 81.6492 57.2759 82.1538C57.2759 82.6584 56.8575 83.0769 56.3531 83.0769Z" fill="#0067B5"/>
<path d="M33.2455 83.0769H30.5263C30.0218 83.0769 29.6035 82.6584 29.6035 82.1538C29.6035 81.6492 30.0218 81.2307 30.5263 81.2307H33.2455C33.7499 81.2307 34.1683 81.6492 34.1683 82.1538C34.1683 82.6584 33.7499 83.0769 33.2455 83.0769Z" fill="#0067B5"/>
</svg>
