<svg width="96" height="96" viewBox="0 0 96 96" fill="none" xmlns="http://www.w3.org/2000/svg">
<path d="M8.42541 86.1067H75.8261C79.8701 86.1067 83.1523 89.3897 83.1523 93.4349V94.9006H1.09924V93.4349C1.09924 89.3897 4.38136 86.1067 8.42541 86.1067Z" fill="white"/>
<path d="M94.8739 96H1.09905C0.498301 96 0.00012207 95.5017 0.00012207 94.9008V93.4352C0.00012207 88.7891 3.78042 85.0077 8.42521 85.0077H87.5478C92.1925 85.0077 95.9728 88.7891 95.9728 93.4352V94.9008C95.9728 95.5017 95.4747 96 94.8739 96ZM2.19797 93.8016H93.775V93.4352C93.775 90.0055 90.9764 87.2062 87.5478 87.2062H8.42521C4.99656 87.2062 2.19797 90.0055 2.19797 93.4352V93.8016Z" fill="#0067B5"/>
<path d="M24.1617 67.4343C11.0039 54.2728 11.0039 32.933 24.1617 19.7569L17.9491 13.5425C1.34802 30.1483 1.34802 57.0576 17.9491 73.6487C23.6196 79.3207 30.4915 83.0582 37.7444 84.8462V75.7152C32.7773 74.1323 28.1032 71.3769 24.1763 67.4343H24.1617Z" fill="white"/>
<path d="M37.7299 85.9458C37.642 85.9458 37.5541 85.9458 37.4662 85.9165C29.803 84.0111 22.7845 80.0392 17.158 74.4258C0.161348 57.4243 0.161348 29.7675 17.158 12.766C17.583 12.341 18.2863 12.341 18.7112 12.766L24.9238 18.9804C25.1289 19.1856 25.2461 19.4641 25.2461 19.7572C25.2461 20.0503 25.1289 20.3288 24.9238 20.534C12.2202 33.2558 12.2202 53.9361 24.9238 66.6579C28.6455 70.3807 33.0705 73.0774 38.0523 74.675C38.5065 74.8216 38.8142 75.2466 38.8142 75.7156V84.8466C38.8142 85.1837 38.653 85.5061 38.3893 85.7113C38.1988 85.8579 37.9497 85.9458 37.7153 85.9458H37.7299ZM17.9493 15.1111C2.57898 31.3065 2.84272 56.9993 18.7112 72.8722C23.7076 77.8701 29.8763 81.5049 36.631 83.4249V76.5071C31.6785 74.7923 27.107 71.9342 23.3853 68.2115C10.081 54.9034 9.81723 33.4024 22.6234 19.7718L17.9639 15.1111H17.9493Z" fill="#0067B5"/>
<path d="M8.60439 14.8462L14.8208 8.62801C17.1106 6.33763 20.8197 6.33763 23.1094 8.62801L47.9753 33.5009C48.5451 34.0709 48.5451 35.0036 47.9753 35.5736L35.5424 48.01C34.9725 48.58 34.04 48.58 33.4702 48.01L8.60439 23.1372C6.31466 20.8468 6.31466 17.1366 8.60439 14.8462Z" fill="white"/>
<path d="M34.5065 49.5242C33.8179 49.5242 33.1732 49.2604 32.6896 48.7767L7.82464 23.9047C5.11396 21.1933 5.11396 16.767 7.82464 14.0556L14.0372 7.84123C15.3559 6.52214 17.0996 5.80396 18.9604 5.80396C20.8212 5.80396 22.5649 6.52214 23.8836 7.84123L48.7486 32.7133C49.7449 33.7099 49.7449 35.3368 48.7486 36.3334L36.3088 48.7767C35.8252 49.2604 35.1805 49.5242 34.4919 49.5242H34.5065ZM18.9604 8.00243C17.6856 8.00243 16.4988 8.50076 15.5904 9.39481L9.37778 15.6091C7.51694 17.4705 7.51694 20.4897 9.37778 22.3511L34.2428 47.2231C34.4333 47.4137 34.5798 47.4137 34.7556 47.2231L47.1954 34.7798C47.342 34.6333 47.342 34.3987 47.1954 34.2668L22.3304 9.39481C21.4366 8.50076 20.2352 8.00243 18.9604 8.00243Z" fill="#0067B5"/>
<path d="M1.06848 7.86328L5.60649 3.32398L9.62644 7.34507C10.1963 7.91507 10.1963 8.8478 9.62644 9.41781L6.1245 12.9207L1.06848 7.86328Z" fill="white"/>
<path d="M8.35207 16.1808C8.07367 16.1808 7.79528 16.0782 7.57549 15.8583L0.322594 8.60335C-0.102323 8.17832 -0.102323 7.47481 0.322594 7.04977L7.06266 0.307786C7.47293 -0.102595 8.20554 -0.102595 8.61581 0.307786L15.8687 7.56276C16.0738 7.76795 16.1911 8.04642 16.1911 8.33955C16.1911 8.63268 16.0738 8.91115 15.8687 9.11634L9.12864 15.8583C8.90886 16.0782 8.63046 16.1808 8.35207 16.1808ZM2.65231 7.82656L8.35207 13.528L13.539 8.33955L7.83923 2.6382L2.65231 7.82656Z" fill="#0067B5"/>
<path d="M37.6273 45.9189L45.9205 37.6233L50.3748 43.8669C50.7851 44.4532 50.7265 45.2446 50.2137 45.7576L45.7594 50.2132C45.2465 50.7262 44.4553 50.7848 43.8692 50.3744L37.6273 45.9189Z" fill="white"/>
<path d="M44.7191 51.7523C44.2063 51.7523 43.6788 51.5911 43.2246 51.2686L36.9827 46.813C36.719 46.6225 36.5578 46.3294 36.5285 46.0069C36.4992 45.6845 36.6164 45.3621 36.8508 45.1422L45.144 36.8466C45.3785 36.6121 45.6862 36.4949 46.0085 36.5242C46.3309 36.5535 46.6239 36.7147 46.8144 36.9785L51.2687 43.2222C52.0013 44.2481 51.8841 45.6405 50.9903 46.5199L46.536 50.9901C46.0378 51.4885 45.3785 51.7376 44.7191 51.7376V51.7523ZM39.3124 45.7724L44.4993 49.4805C44.6459 49.5831 44.851 49.5685 44.9682 49.4365L49.4225 44.981C49.5544 44.8491 49.569 44.6585 49.4665 44.512L45.7594 39.3236L39.2978 45.7871L39.3124 45.7724Z" fill="#0067B5"/>
<path d="M68.4998 63.7558H47.9866C47.3858 63.7558 46.8876 63.2575 46.8876 62.6566C46.8876 62.0557 47.3858 61.5574 47.9866 61.5574H68.4998C69.1006 61.5574 69.5987 62.0557 69.5987 62.6566C69.5987 63.2575 69.1006 63.7558 68.4998 63.7558Z" fill="#0067B5"/>
<path d="M37.7298 69.9847V94.9007H58.2431V77.3129C58.2431 76.5068 58.9024 75.8473 59.7083 75.8473H71.4301C75.4742 75.8473 78.7563 72.5642 78.7563 68.519H39.195C38.3892 68.519 37.7298 69.1786 37.7298 69.9847Z" fill="white"/>
<path d="M58.2433 96H37.7301C37.1293 96 36.6312 95.5017 36.6312 94.9008V69.9848C36.6312 68.5778 37.7887 67.4199 39.1953 67.4199H78.7566C79.0496 67.4199 79.328 67.5372 79.5332 67.7424C79.7383 67.9476 79.8555 68.226 79.8555 68.5192C79.8555 73.1653 76.0752 76.9466 71.4304 76.9466H59.7086C59.5034 76.9466 59.3423 77.1079 59.3423 77.313V94.9008C59.3423 95.5017 58.8441 96 58.2433 96ZM38.829 93.8016H57.1444V77.313C57.1444 75.906 58.302 74.7482 59.7086 74.7482H71.4304C74.4928 74.7482 77.0423 72.535 77.5551 69.6184H39.1953C38.9902 69.6184 38.829 69.7796 38.829 69.9848V93.8016Z" fill="#0067B5"/>
<path d="M53.8471 91.9695C54.6563 91.9695 55.3123 91.3133 55.3123 90.5039C55.3123 89.6944 54.6563 89.0382 53.8471 89.0382C53.0378 89.0382 52.3818 89.6944 52.3818 90.5039C52.3818 91.3133 53.0378 91.9695 53.8471 91.9695Z" fill="#0067B5"/>
<path d="M47.9869 83.9083C50.0099 83.9083 51.65 82.2678 51.65 80.2442C51.65 78.2206 50.0099 76.5801 47.9869 76.5801C45.9638 76.5801 44.3238 78.2206 44.3238 80.2442C44.3238 82.2678 45.9638 83.9083 47.9869 83.9083Z" fill="white"/>
<path d="M47.9866 85.0077C45.3638 85.0077 43.2246 82.8678 43.2246 80.2443C43.2246 77.6208 45.3638 75.481 47.9866 75.481C50.6094 75.481 52.7486 77.6208 52.7486 80.2443C52.7486 82.8678 50.6094 85.0077 47.9866 85.0077ZM47.9866 77.6794C46.58 77.6794 45.4225 78.8373 45.4225 80.2443C45.4225 81.6513 46.58 82.8092 47.9866 82.8092C49.3932 82.8092 50.5508 81.6513 50.5508 80.2443C50.5508 78.8373 49.3932 77.6794 47.9866 77.6794Z" fill="#0067B5"/>
<path d="M42.1258 91.9695C42.935 91.9695 43.591 91.3133 43.591 90.5039C43.591 89.6944 42.935 89.0382 42.1258 89.0382C41.3166 89.0382 40.6606 89.6944 40.6606 90.5039C40.6606 91.3133 41.3166 91.9695 42.1258 91.9695Z" fill="#0067B5"/>
<path d="M12.8211 37.0076C17.2718 37.0076 20.8799 33.3986 20.8799 28.9466C20.8799 24.4946 17.2718 20.8855 12.8211 20.8855C8.37036 20.8855 4.76233 24.4946 4.76233 28.9466C4.76233 33.3986 8.37036 37.0076 12.8211 37.0076Z" fill="white"/>
<path d="M12.8209 38.1067C7.76586 38.1067 3.66321 34.0029 3.66321 28.9464C3.66321 23.8899 7.76586 19.7861 12.8209 19.7861C17.876 19.7861 21.9786 23.8899 21.9786 28.9464C21.9786 34.0029 17.876 38.1067 12.8209 38.1067ZM12.8209 21.9846C8.982 21.9846 5.86106 25.1064 5.86106 28.9464C5.86106 32.7864 8.982 35.9082 12.8209 35.9082C16.6598 35.9082 19.7808 32.7864 19.7808 28.9464C19.7808 25.1064 16.6598 21.9846 12.8209 21.9846Z" fill="#0067B5"/>
<path d="M12.8209 30.4123C13.6302 30.4123 14.2862 29.7561 14.2862 28.9466C14.2862 28.1371 13.6302 27.481 12.8209 27.481C12.0117 27.481 11.3557 28.1371 11.3557 28.9466C11.3557 29.7561 12.0117 30.4123 12.8209 30.4123Z" fill="#0067B5"/>
<path d="M90.4783 1.09937H62.6389C61.0271 1.09937 59.7084 2.41845 59.7084 4.03066V47.1207L69.4229 39.3528C70.727 38.3122 72.3387 37.7405 73.9945 37.7405H87.5332C89.145 37.7405 90.4637 36.4215 90.4637 34.8092V1.09937H90.4783Z" fill="white"/>
<path d="M59.7084 56.4274C59.5472 56.4274 59.3861 56.3981 59.2395 56.3248C58.8586 56.1489 58.6095 55.7532 58.6095 55.3282V4.03053C58.6095 1.80275 60.4117 0 62.6389 0H91.9435C94.1707 0 95.9729 1.80275 95.9729 4.03053V40.6717C95.9729 42.8995 94.1707 44.7022 91.9435 44.7022H74.7417L60.3971 56.1929C60.1919 56.3541 59.9575 56.4274 59.7084 56.4274ZM62.6389 2.19847C61.6279 2.19847 60.8073 3.01923 60.8073 4.03053V53.0418L73.6721 42.7383C73.8626 42.577 74.1117 42.5038 74.3607 42.5038H91.9435C92.9545 42.5038 93.7751 41.683 93.7751 40.6717V4.03053C93.7751 3.01923 92.9545 2.19847 91.9435 2.19847H62.6389Z" fill="#0067B5"/>
<path d="M87.548 12.458H78.7566C78.1558 12.458 77.6577 11.9597 77.6577 11.3588C77.6577 10.7578 78.1558 10.2595 78.7566 10.2595H87.548C88.1487 10.2595 88.6469 10.7578 88.6469 11.3588C88.6469 11.9597 88.1487 12.458 87.548 12.458Z" fill="#0067B5"/>
<path d="M72.8955 12.458H67.0345C66.4338 12.458 65.9356 11.9597 65.9356 11.3588C65.9356 10.7578 66.4338 10.2595 67.0345 10.2595H72.8955C73.4962 10.2595 73.9944 10.7578 73.9944 11.3588C73.9944 11.9597 73.4962 12.458 72.8955 12.458Z" fill="#0067B5"/>
<path d="M87.548 19.7861H83.1523C82.5516 19.7861 82.0534 19.2878 82.0534 18.6869C82.0534 18.086 82.5516 17.5876 83.1523 17.5876H87.548C88.1488 17.5876 88.647 18.086 88.647 18.6869C88.647 19.2878 88.1488 19.7861 87.548 19.7861Z" fill="#0067B5"/>
<path d="M77.2912 19.7861H67.0345C66.4338 19.7861 65.9356 19.2878 65.9356 18.6869C65.9356 18.086 66.4338 17.5876 67.0345 17.5876H77.2912C77.8919 17.5876 78.3901 18.086 78.3901 18.6869C78.3901 19.2878 77.8919 19.7861 77.2912 19.7861Z" fill="#0067B5"/>
<path d="M87.548 27.1145H78.7566C78.1558 27.1145 77.6577 26.6162 77.6577 26.0153C77.6577 25.4143 78.1558 24.916 78.7566 24.916H87.548C88.1487 24.916 88.6469 25.4143 88.6469 26.0153C88.6469 26.6162 88.1487 27.1145 87.548 27.1145Z" fill="#0067B5"/>
<path d="M72.8955 27.1145H67.0345C66.4338 27.1145 65.9356 26.6162 65.9356 26.0153C65.9356 25.4143 66.4338 24.916 67.0345 24.916H72.8955C73.4962 24.916 73.9944 25.4143 73.9944 26.0153C73.9944 26.6162 73.4962 27.1145 72.8955 27.1145Z" fill="#0067B5"/>
<path d="M81.6869 34.4429H67.0345C66.4338 34.4429 65.9356 33.9445 65.9356 33.3436C65.9356 32.7427 66.4338 32.2444 67.0345 32.2444H81.6869C82.2876 32.2444 82.7858 32.7427 82.7858 33.3436C82.7858 33.9445 82.2876 34.4429 81.6869 34.4429Z" fill="#0067B5"/>
<path d="M89.0133 78.4121H83.1523C82.5516 78.4121 82.0534 77.9138 82.0534 77.3129C82.0534 76.7119 82.5516 76.2136 83.1523 76.2136H89.0133C89.614 76.2136 90.1122 76.7119 90.1122 77.3129C90.1122 77.9138 89.614 78.4121 89.0133 78.4121Z" fill="#0067B5"/>
<path d="M86.0824 81.3435C85.4816 81.3435 84.9835 80.8452 84.9835 80.2443V74.3817C84.9835 73.7808 85.4816 73.2825 86.0824 73.2825C86.6831 73.2825 87.1813 73.7808 87.1813 74.3817V80.2443C87.1813 80.8452 86.6831 81.3435 86.0824 81.3435Z" fill="#0067B5"/>
<path d="M94.8742 65.2212H89.0132C88.4125 65.2212 87.9143 64.7229 87.9143 64.1219C87.9143 63.521 88.4125 63.0227 89.0132 63.0227H94.8742C95.4749 63.0227 95.9731 63.521 95.9731 64.1219C95.9731 64.7229 95.4749 65.2212 94.8742 65.2212Z" fill="#0067B5"/>
<path d="M91.9435 68.1526C91.3428 68.1526 90.8446 67.6543 90.8446 67.0534V61.1908C90.8446 60.5899 91.3428 60.0916 91.9435 60.0916C92.5443 60.0916 93.0425 60.5899 93.0425 61.1908V67.0534C93.0425 67.6543 92.5443 68.1526 91.9435 68.1526Z" fill="#0067B5"/>
<path d="M80.2218 54.9617H74.3608C73.7601 54.9617 73.2619 54.4633 73.2619 53.8624C73.2619 53.2615 73.7601 52.7632 74.3608 52.7632H80.2218C80.8225 52.7632 81.3207 53.2615 81.3207 53.8624C81.3207 54.4633 80.8225 54.9617 80.2218 54.9617Z" fill="#0067B5"/>
<path d="M77.2912 57.8933C76.6904 57.8933 76.1923 57.395 76.1923 56.7941V50.9315C76.1923 50.3306 76.6904 49.8323 77.2912 49.8323C77.8919 49.8323 78.3901 50.3306 78.3901 50.9315V56.7941C78.3901 57.395 77.8919 57.8933 77.2912 57.8933Z" fill="#0067B5"/>
<path d="M52.3821 15.3745H46.5212C45.9204 15.3745 45.4222 14.8762 45.4222 14.2753C45.4222 13.6743 45.9204 13.176 46.5212 13.176H52.3821C52.9828 13.176 53.481 13.6743 53.481 14.2753C53.481 14.8762 52.9828 15.3745 52.3821 15.3745Z" fill="#0067B5"/>
<path d="M49.452 18.3059C48.8512 18.3059 48.353 17.8076 48.353 17.2067V11.3441C48.353 10.7432 48.8512 10.2449 49.452 10.2449C50.0527 10.2449 50.5509 10.7432 50.5509 11.3441V17.2067C50.5509 17.8076 50.0527 18.3059 49.452 18.3059Z" fill="#0067B5"/>
</svg>
