<svg width="100" height="96" viewBox="0 0 100 96" fill="none" xmlns="http://www.w3.org/2000/svg">
<path d="M82.333 27.7044C82.333 15.9284 73.2228 6.38647 61.9927 6.38647C54.5355 6.38647 48.0245 10.6147 44.4789 16.9003C40.9332 10.6147 34.4349 6.38647 26.965 6.38647C15.735 6.38647 6.62476 15.9284 6.62476 27.7044C6.62476 52.8214 44.4789 77.0675 44.4789 77.0675C44.4789 77.0675 82.333 52.834 82.333 27.7044Z" fill="white"/>
<path d="M44.4785 78.0142C44.3018 78.0142 44.1252 77.9637 43.9738 77.8628C42.4091 76.8657 5.67798 53.0613 5.67798 27.7045C5.67798 15.4236 15.2298 5.43994 26.9646 5.43994C33.9424 5.43994 40.5164 9.10021 44.4785 15.0829C48.4279 9.10021 55.0145 5.43994 61.9923 5.43994C73.7271 5.43994 83.2789 15.4363 83.2789 27.7045C83.2789 53.0487 46.5478 76.8657 44.9832 77.8628C44.8318 77.9637 44.6551 78.0142 44.4785 78.0142ZM26.9646 7.33318C16.2645 7.33318 7.57068 16.4712 7.57068 27.7045C7.57068 50.4486 39.9864 72.9277 44.4785 75.9316C48.9705 72.9277 81.3862 50.4486 81.3862 27.7045C81.3862 16.4712 72.6798 7.33318 61.9923 7.33318C55.1912 7.33318 48.7939 11.1702 45.3113 17.3547C44.9706 17.948 43.999 17.948 43.6583 17.3547C40.1757 11.1702 33.7784 7.33318 26.9772 7.33318H26.9646Z" fill="#0067B5"/>
<path d="M68.4531 49.3C65.021 49.3 61.8034 50.2341 59.0274 51.837L49.526 49.3L52.0622 58.8041C50.4597 61.5809 49.526 64.7994 49.526 68.2325C49.526 78.6832 58.0053 87.1649 68.4531 87.1649C78.9008 87.1649 87.3801 78.6832 87.3801 68.2325C87.3801 57.7818 78.9008 49.3 68.4531 49.3Z" fill="white"/>
<path d="M68.4531 88.1114C57.5006 88.1114 48.5797 79.1879 48.5797 68.2324C48.5797 64.9003 49.4251 61.606 51.0402 58.6652L48.6049 49.5398C48.5166 49.2116 48.6049 48.8708 48.8447 48.631C49.0844 48.3912 49.4251 48.3029 49.7531 48.3912L58.876 50.8272C61.8034 49.2116 65.1093 48.366 68.4405 48.366C79.3929 48.366 88.3139 57.2894 88.3139 68.245C88.3139 79.2006 79.3929 88.124 68.4405 88.124L68.4531 88.1114ZM50.8635 50.6379L52.9708 58.5516C53.0339 58.7914 52.996 59.0565 52.8698 59.271C51.2926 61.9973 50.4598 65.1022 50.4598 68.2324C50.4598 78.153 58.5227 86.2182 68.4405 86.2182C78.3582 86.2182 86.4212 78.153 86.4212 68.2324C86.4212 58.3118 78.3582 50.2466 68.4405 50.2466C65.3112 50.2466 62.2072 51.0796 59.4817 52.6573C59.2672 52.7835 59.0022 52.8088 58.7624 52.7583L50.8509 50.6505L50.8635 50.6379Z" fill="#0067B5"/>
<path d="M78.5476 63.9536L75.8348 61.24L66.1946 70.8829L61.5512 66.2382L58.8383 68.9518L65.2987 75.4141C65.7908 75.9063 66.5858 75.9063 67.0779 75.4141L78.5476 63.941V63.9536Z" fill="white"/>
<path d="M66.1945 81.523C65.9548 81.523 65.715 81.4347 65.5257 81.2454L56.037 71.7539C55.6711 71.3879 55.6711 70.782 56.037 70.416L60.8823 65.5693C61.2482 65.2033 61.8539 65.2033 62.2198 65.5693L66.1945 69.5451L75.1659 60.5712C75.5319 60.2051 76.1375 60.2051 76.5034 60.5712L81.3488 65.4178C81.5255 65.5945 81.6264 65.8344 81.6264 66.0868C81.6264 66.3392 81.5255 66.579 81.3488 66.7557L66.8632 81.2454C66.674 81.4347 66.4343 81.523 66.1945 81.523ZM58.0432 71.085L66.1945 79.2385L79.3425 66.0868L75.8347 62.578L66.8632 71.5519C66.4973 71.918 65.8917 71.918 65.5257 71.5519L61.5511 67.5761L58.0432 71.085Z" fill="#0067B5"/>
<path d="M44.2641 46.5865C44.2641 46.5865 44.2389 46.5865 44.2262 46.5865C43.8729 46.5738 43.5449 46.3593 43.4061 46.0311L33.4378 23.7918L27.785 34.1163C27.6209 34.4192 27.3054 34.6086 26.9521 34.6086H13.6149C13.0976 34.6086 12.6686 34.1794 12.6686 33.6619C12.6686 33.1444 13.0976 32.7153 13.6149 32.7153H26.397L32.6934 21.217C32.8701 20.9015 33.1855 20.6995 33.5641 20.7248C33.9174 20.7374 34.2454 20.952 34.3842 21.2801L44.3525 43.5194L54.0936 25.7482C54.2576 25.4453 54.5983 25.2686 54.939 25.256C55.2923 25.256 55.6077 25.4579 55.7718 25.7734L59.3301 32.7027H75.3676C75.885 32.7027 76.314 33.1318 76.314 33.6493C76.314 34.1668 75.885 34.5959 75.3676 34.5959H58.7622C58.4089 34.5959 58.0809 34.394 57.9169 34.0784L54.9138 28.222L45.1221 46.0942C44.9581 46.3971 44.6427 46.5865 44.2894 46.5865H44.2641Z" fill="#0067B5"/>
<path d="M13.4257 84.3251H11.6844C11.1671 84.3251 10.738 83.896 10.738 83.3785C10.738 82.861 11.1671 82.4319 11.6844 82.4319H13.4257C13.943 82.4319 14.372 82.861 14.372 83.3785C14.372 83.896 13.943 84.3251 13.4257 84.3251Z" fill="#0067B5"/>
<path d="M19.2427 84.3251H17.5014C16.9841 84.3251 16.5551 83.896 16.5551 83.3785C16.5551 82.861 16.9841 82.4319 17.5014 82.4319H19.2427C19.76 82.4319 20.1891 82.861 20.1891 83.3785C20.1891 83.896 19.76 84.3251 19.2427 84.3251Z" fill="#0067B5"/>
<path d="M15.4571 88.1116C14.9398 88.1116 14.5107 87.6825 14.5107 87.165V85.4232C14.5107 84.9057 14.9398 84.4766 15.4571 84.4766C15.9744 84.4766 16.4034 84.9057 16.4034 85.4232V87.165C16.4034 87.6825 15.9744 88.1116 15.4571 88.1116Z" fill="#0067B5"/>
<path d="M15.4571 82.293C14.9398 82.293 14.5107 81.8639 14.5107 81.3464V79.6046C14.5107 79.0871 14.9398 78.658 15.4571 78.658C15.9744 78.658 16.4034 79.0871 16.4034 79.6046V81.3464C16.4034 81.8639 15.9744 82.293 15.4571 82.293Z" fill="#0067B5"/>
<path d="M8.37869 57.8198H6.63739C6.12005 57.8198 5.69104 57.3906 5.69104 56.8731C5.69104 56.3556 6.12005 55.9265 6.63739 55.9265H8.37869C8.89603 55.9265 9.32504 56.3556 9.32504 56.8731C9.32504 57.3906 8.89603 57.8198 8.37869 57.8198Z" fill="#0067B5"/>
<path d="M14.1953 57.8198H12.454C11.9367 57.8198 11.5077 57.3906 11.5077 56.8731C11.5077 56.3556 11.9367 55.9265 12.454 55.9265H14.1953C14.7127 55.9265 15.1417 56.3556 15.1417 56.8731C15.1417 57.3906 14.7127 57.8198 14.1953 57.8198Z" fill="#0067B5"/>
<path d="M10.4101 61.6062C9.89276 61.6062 9.46375 61.1771 9.46375 60.6596V58.9178C9.46375 58.4003 9.89276 57.9712 10.4101 57.9712C10.9274 57.9712 11.3565 58.4003 11.3565 58.9178V60.6596C11.3565 61.1771 10.9274 61.6062 10.4101 61.6062Z" fill="#0067B5"/>
<path d="M10.4101 55.7876C9.89276 55.7876 9.46375 55.3585 9.46375 54.841V53.0992C9.46375 52.5817 9.89276 52.1526 10.4101 52.1526C10.9274 52.1526 11.3565 52.5817 11.3565 53.0992V54.841C11.3565 55.3585 10.9274 55.7876 10.4101 55.7876Z" fill="#0067B5"/>
<path d="M24.7819 74.2277H23.0406C22.5233 74.2277 22.0942 73.7986 22.0942 73.2811C22.0942 72.7636 22.5233 72.3345 23.0406 72.3345H24.7819C25.2992 72.3345 25.7282 72.7636 25.7282 73.2811C25.7282 73.7986 25.2992 74.2277 24.7819 74.2277Z" fill="#0067B5"/>
<path d="M30.5989 74.2277H28.8576C28.3403 74.2277 27.9113 73.7986 27.9113 73.2811C27.9113 72.7636 28.3403 72.3345 28.8576 72.3345H30.5989C31.1162 72.3345 31.5453 72.7636 31.5453 73.2811C31.5453 73.7986 31.1162 74.2277 30.5989 74.2277Z" fill="#0067B5"/>
<path d="M26.8137 78.0142C26.2963 78.0142 25.8673 77.585 25.8673 77.0676V75.3258C25.8673 74.8083 26.2963 74.3792 26.8137 74.3792C27.331 74.3792 27.76 74.8083 27.76 75.3258V77.0676C27.76 77.585 27.331 78.0142 26.8137 78.0142Z" fill="#0067B5"/>
<path d="M26.8137 72.1956C26.2963 72.1956 25.8673 71.7664 25.8673 71.2489V69.5072C25.8673 68.9897 26.2963 68.5605 26.8137 68.5605C27.331 68.5605 27.76 68.9897 27.76 69.5072V71.2489C27.76 71.7664 27.331 72.1956 26.8137 72.1956Z" fill="#0067B5"/>
</svg>
