<svg width="98" height="96" viewBox="0 0 98 96" fill="none" xmlns="http://www.w3.org/2000/svg">
<path d="M33.5903 12H63.1204C65.1629 12 66.8116 13.6492 66.8116 15.6923V25.5385H28.6686V16.9231C28.6686 14.2031 30.871 12 33.5903 12Z" fill="white"/>
<path d="M70.503 26.4616H28.6687C28.1642 26.4616 27.7458 26.0431 27.7458 25.5385V15.6923C27.7458 11.1139 31.474 7.38464 36.0512 7.38464H63.1204C67.6976 7.38464 71.4258 11.1139 71.4258 15.6923V25.5385C71.4258 26.0431 71.0074 26.4616 70.503 26.4616ZM29.5915 24.6154H69.5802V15.6923C69.5802 12.1354 66.6764 9.2308 63.1204 9.2308H36.0512C32.4953 9.2308 29.5915 12.1354 29.5915 15.6923V24.6154Z" fill="#0067B5"/>
<path d="M63.1204 26.4616H36.0511C35.5466 26.4616 35.1283 26.0431 35.1283 25.5385V16.9231C35.1283 15.7416 36.1003 14.7693 37.2815 14.7693H61.8899C63.0712 14.7693 64.0432 15.7416 64.0432 16.9231V25.5385C64.0432 26.0431 63.6248 26.4616 63.1204 26.4616ZM36.9739 24.6154H62.1976V16.9231C62.1976 16.7508 62.0622 16.6154 61.8899 16.6154H37.2815C37.1093 16.6154 36.9739 16.7508 36.9739 16.9231V24.6154Z" fill="#0067B5"/>
<path d="M82.8073 29.2308H71.7335C71.7335 36.7139 77.7872 42.7693 85.2682 42.7693V31.6924C85.2682 30.3385 84.1608 29.2308 82.8073 29.2308Z" fill="white"/>
<path d="M71.7335 83.3847H82.8073C84.1608 83.3847 85.2682 82.277 85.2682 80.9231V69.8462C77.7872 69.8462 71.7335 75.9016 71.7335 83.3847Z" fill="white"/>
<path d="M10.2123 69.8462V78.4616C10.2123 81.1816 12.4148 83.3847 15.134 83.3847H23.747C23.747 75.9016 17.6933 69.8462 10.2123 69.8462Z" fill="white"/>
<path d="M23.747 29.2308H15.134C12.4148 29.2308 10.2123 31.4339 10.2123 34.1539V42.7693C17.6933 42.7693 23.747 36.7139 23.747 29.2308Z" fill="white"/>
<path d="M84.0376 88H15.1341C11.9103 88 9.28955 85.3784 9.28955 82.1538V30.4615C9.28955 27.2369 11.9103 24.6154 15.1341 24.6154H84.0376C87.2613 24.6154 89.8821 27.2369 89.8821 30.4615V82.1538C89.8821 85.3784 87.2613 88 84.0376 88ZM15.1341 26.4615C12.9316 26.4615 11.1352 28.2584 11.1352 30.4615V82.1538C11.1352 84.3569 12.9316 86.1538 15.1341 86.1538H84.0376C86.2401 86.1538 88.0365 84.3569 88.0365 82.1538V30.4615C88.0365 28.2584 86.2401 26.4615 84.0376 26.4615H15.1341Z" fill="#0067B5"/>
<path d="M84.0376 67.52V38.1292C79.0052 36.16 75.4247 31.2615 75.4247 25.5261H23.747C23.747 33.0092 17.6933 39.0646 10.2123 39.0646V73.5261C15.9461 73.5261 20.8432 77.1077 22.8118 82.1415H69.4079C70.4291 82.1415 71.3396 81.5138 71.6964 80.5661C73.5667 75.6061 77.504 71.68 82.4626 69.8092C83.41 69.4523 84.0376 68.5415 84.0376 67.52Z" fill="white"/>
<path d="M75.4247 88H23.747C23.2425 88 22.8242 87.5815 22.8242 87.0769C22.8242 80.123 17.1642 74.4615 10.2124 74.4615C9.70789 74.4615 9.28955 74.043 9.28955 73.5384V39.0769C9.28955 38.5723 9.70789 38.1538 10.2124 38.1538C17.1642 38.1538 22.8242 32.4923 22.8242 25.5384C22.8242 25.0338 23.2425 24.6154 23.747 24.6154H75.4247C75.9291 24.6154 76.3475 25.0338 76.3475 25.5384C76.3475 32.4923 82.0074 38.1538 88.9593 38.1538C89.4638 38.1538 89.8821 38.5723 89.8821 39.0769V73.5384C89.8821 74.043 89.4638 74.4615 88.9593 74.4615C82.0074 74.4615 76.3475 80.123 76.3475 87.0769C76.3475 87.5815 75.9291 88 75.4247 88ZM24.6452 86.1538H74.5387C74.994 78.9169 80.8016 73.1076 88.0488 72.64V39.963C80.8139 39.5077 75.0063 33.6984 74.5387 26.4492H24.6452C24.1899 33.6861 18.3824 39.4954 11.1352 39.963V72.64C18.3701 73.0953 24.1776 78.9046 24.6452 86.1538Z" fill="#0067B5"/>
<path d="M82.8069 32.9231C83.4864 32.9231 84.0373 32.3721 84.0373 31.6923C84.0373 31.0126 83.4864 30.4615 82.8069 30.4615C82.1274 30.4615 81.5765 31.0126 81.5765 31.6923C81.5765 32.3721 82.1274 32.9231 82.8069 32.9231Z" fill="#0067B5"/>
<path d="M82.8069 82.1538C83.4864 82.1538 84.0373 81.6028 84.0373 80.923C84.0373 80.2433 83.4864 79.6923 82.8069 79.6923C82.1274 79.6923 81.5765 80.2433 81.5765 80.923C81.5765 81.6028 82.1274 82.1538 82.8069 82.1538Z" fill="#0067B5"/>
<path d="M16.3646 32.9231C17.0442 32.9231 17.5951 32.3721 17.5951 31.6923C17.5951 31.0126 17.0442 30.4615 16.3646 30.4615C15.6851 30.4615 15.1342 31.0126 15.1342 31.6923C15.1342 32.3721 15.6851 32.9231 16.3646 32.9231Z" fill="#0067B5"/>
<path d="M16.3646 82.1538C17.0442 82.1538 17.5951 81.6028 17.5951 80.923C17.5951 80.2433 17.0442 79.6923 16.3646 79.6923C15.6851 79.6923 15.1342 80.2433 15.1342 80.923C15.1342 81.6028 15.6851 82.1538 16.3646 82.1538Z" fill="#0067B5"/>
<path d="M49.5858 74.7693C59.779 74.7693 68.0421 66.5038 68.0421 56.3077C68.0421 46.1117 59.779 37.8462 49.5858 37.8462C39.3927 37.8462 31.1295 46.1117 31.1295 56.3077C31.1295 66.5038 39.3927 74.7693 49.5858 74.7693Z" fill="white"/>
<path d="M49.5859 75.6923C38.9059 75.6923 30.2068 66.9908 30.2068 56.3077C30.2068 45.6246 38.9059 36.9231 49.5859 36.9231C60.266 36.9231 68.965 45.6246 68.965 56.3077C68.965 66.9908 60.266 75.6923 49.5859 75.6923ZM49.5859 38.7692C39.9148 38.7692 32.0524 46.6339 32.0524 56.3077C32.0524 65.9816 39.9148 73.8462 49.5859 73.8462C59.257 73.8462 67.1194 65.9816 67.1194 56.3077C67.1194 46.6339 59.257 38.7692 49.5859 38.7692Z" fill="#0067B5"/>
<path d="M61.5333 52.5046H53.3879V44.3569H45.7962V52.5046H37.6508V60.1108H45.7962V68.2585H53.3879V60.1108H61.5333V52.5046Z" fill="white"/>
<path d="M53.3878 69.1815H45.7838C45.2793 69.1815 44.861 68.763 44.861 68.2584V61.0338H37.6384C37.1339 61.0338 36.7156 60.6154 36.7156 60.1107V52.5046C36.7156 52 37.1339 51.5815 37.6384 51.5815H44.861V44.3569C44.861 43.8523 45.2793 43.4338 45.7838 43.4338H53.3878C53.8922 43.4338 54.3106 43.8523 54.3106 44.3569V51.5815H61.5332C62.0377 51.5815 62.456 52 62.456 52.5046V60.1107C62.456 60.6154 62.0377 61.0338 61.5332 61.0338H54.3106V68.2584C54.3106 68.763 53.8922 69.1815 53.3878 69.1815ZM46.7066 67.3354H52.4649V60.1107C52.4649 59.6061 52.8833 59.1877 53.3878 59.1877H60.6104V53.4277H53.3878C52.8833 53.4277 52.4649 53.0092 52.4649 52.5046V45.28H46.7066V52.5046C46.7066 53.0092 46.2882 53.4277 45.7838 53.4277H38.5612V59.1877H45.7838C46.2882 59.1877 46.7066 59.6061 46.7066 60.1107V67.3354Z" fill="#0067B5"/>
<path d="M56.3531 83.077H38.1552C37.6507 83.077 37.2324 82.6585 37.2324 82.1539C37.2324 81.6493 37.6507 81.2308 38.1552 81.2308H56.3531C56.8575 81.2308 57.2759 81.6493 57.2759 82.1539C57.2759 82.6585 56.8575 83.077 56.3531 83.077Z" fill="#0067B5"/>
<path d="M33.2455 83.077H30.5263C30.0218 83.077 29.6035 82.6585 29.6035 82.1539C29.6035 81.6493 30.0218 81.2308 30.5263 81.2308H33.2455C33.7499 81.2308 34.1683 81.6493 34.1683 82.1539C34.1683 82.6585 33.7499 83.077 33.2455 83.077Z" fill="#0067B5"/>
</svg>
