<svg width="100" height="96" viewBox="0 0 100 96" fill="none" xmlns="http://www.w3.org/2000/svg">
<path d="M47.5265 88.5182C69.4858 88.5182 87.2874 70.7116 87.2874 48.746C87.2874 26.7805 69.4858 8.97388 47.5265 8.97388C25.5672 8.97388 7.76562 26.7805 7.76562 48.746C7.76562 70.7116 25.5672 88.5182 47.5265 88.5182Z" fill="white"/>
<path d="M47.5266 89.4501C25.0866 89.4501 6.83386 71.1922 6.83386 48.7458C6.83386 26.2994 25.0866 8.0415 47.5266 8.0415C69.9667 8.0415 88.2194 26.2994 88.2194 48.7458C88.2194 71.1922 69.9667 89.4501 47.5266 89.4501ZM47.5266 9.90582C26.1179 9.90582 8.69765 27.331 8.69765 48.7458C8.69765 70.1606 26.1179 87.5858 47.5266 87.5858C68.9354 87.5858 86.3556 70.1606 86.3556 48.7458C86.3556 27.331 68.9354 9.90582 47.5266 9.90582Z" fill="#0067B5"/>
<path d="M70.0909 29.357C61.2192 19.7122 48.4212 30.4259 48.4212 30.4259H48.4336C42.892 26.3492 33.5979 21.7878 25.9936 29.357C22.7382 32.6009 21.6323 38.5667 22.0175 43.2151C23.0736 56.228 27.8077 68.806 34.1446 76.5243C35.6604 78.3637 38.5431 77.3943 38.7544 74.9955C39.8478 63.0017 44.6936 55.2462 48.036 55.2462C51.3784 55.2462 56.2243 63.0017 57.3177 74.9955C57.5414 77.4067 60.424 78.3637 61.9399 76.5243C68.2644 68.806 72.9984 56.2405 74.0545 43.2275C74.4397 38.5791 73.1848 32.7376 70.0784 29.3694L70.0909 29.357Z" fill="white"/>
<path d="M36.1077 78.4259C35.0888 78.4259 34.1072 77.966 33.4238 77.1209C26.8633 69.1292 22.1417 56.1784 21.0855 43.3021C20.7252 38.8775 21.6199 32.4021 25.335 28.6983C28.3171 25.7403 31.7961 24.2612 35.6977 24.3607C40.4938 24.4601 45.0539 26.8713 48.4087 29.2576C51.1174 27.2566 62.5114 19.762 70.7618 28.7356C74.1912 32.4642 75.3591 38.7408 74.9864 43.3021C73.9302 56.1784 69.2086 69.1292 62.6605 77.1209C61.7286 78.2519 60.2997 78.6869 58.9329 78.2643C57.5289 77.8293 56.5349 76.5864 56.3982 75.0826C55.2675 62.6662 50.3595 56.1784 48.0359 56.1784C45.7124 56.1784 40.8045 62.6662 39.6738 75.0826C39.5371 76.5864 38.5431 77.8293 37.139 78.2643C36.7911 78.3762 36.4432 78.4259 36.1077 78.4259ZM35.387 26.225C32.1192 26.225 29.1868 27.5051 26.6521 30.0282C23.5955 33.0608 22.589 38.8029 22.9493 43.153C23.9682 55.6688 28.5407 68.2343 34.8652 75.9401C35.3125 76.4746 35.9586 76.6859 36.6047 76.487C37.139 76.3254 37.7479 75.8158 37.8348 74.921C38.9655 62.5916 44.0226 54.314 48.0484 54.314C52.0742 54.314 57.1313 62.5916 58.262 74.9086C58.349 75.8159 58.9454 76.313 59.4921 76.4746C60.1382 76.6734 60.7843 76.4746 61.2316 75.9277C67.556 68.2219 72.1286 55.6564 73.1474 43.1406C73.4829 38.9769 72.464 33.297 69.4074 29.9785C62.4741 22.4466 52.9936 28.226 49.9743 30.4011C52.3351 32.2654 53.8386 33.8687 53.9877 34.0303C54.3356 34.4031 54.3107 34.9997 53.9379 35.3477C53.5652 35.6957 52.9688 35.6709 52.6209 35.298C52.5339 35.211 44.2959 26.399 35.6728 26.2125C35.5858 26.2125 35.4989 26.2125 35.4119 26.2125L35.387 26.225Z" fill="#0067B5"/>
<path d="M33.7967 66.4817C33.4364 66.4817 33.1009 66.2704 32.9394 65.9224C30.6531 60.7147 28.926 54.8235 27.9693 48.895C27.8823 48.3854 28.2302 47.9131 28.7396 47.8261C29.2491 47.7391 29.7212 48.0871 29.8082 48.5967C30.7401 54.3761 32.4175 60.1182 34.6416 65.1767C34.8529 65.649 34.6416 66.1958 34.1695 66.4071C34.0452 66.4568 33.921 66.4817 33.7967 66.4817Z" fill="#0067B5"/>
<path d="M28.2672 44.632C27.795 44.632 27.385 44.2715 27.3353 43.7868L27.298 43.3145C27.1986 42.1587 27.1986 40.9655 27.2856 39.7599C27.3228 39.2503 27.7702 38.8526 28.2796 38.8899C28.7891 38.9272 29.1866 39.3746 29.1493 39.8842C29.0748 40.9903 29.0748 42.0965 29.1618 43.153L29.1991 43.6253C29.2488 44.1348 28.8636 44.5947 28.3542 44.632C28.3293 44.632 28.3045 44.632 28.2672 44.632Z" fill="#0067B5"/>
<path d="M69.8919 88.5179C79.4991 88.5179 87.2873 80.7275 87.2873 71.1176C87.2873 61.5077 79.4991 53.7173 69.8919 53.7173C60.2847 53.7173 52.4965 61.5077 52.4965 71.1176C52.4965 80.7275 60.2847 88.5179 69.8919 88.5179Z" fill="white"/>
<path d="M69.892 89.4501C59.7903 89.4501 51.5648 81.2222 51.5648 71.1176C51.5648 61.013 59.7903 52.7852 69.892 52.7852C79.9938 52.7852 88.2193 61.013 88.2193 71.1176C88.2193 81.2222 79.9938 89.4501 69.892 89.4501ZM69.892 54.6495C60.8092 54.6495 53.4285 62.0322 53.4285 71.1176C53.4285 80.2031 60.8092 87.5858 69.892 87.5858C78.9749 87.5858 86.3555 80.2031 86.3555 71.1176C86.3555 62.0322 78.9749 54.6495 69.892 54.6495Z" fill="#0067B5"/>
<path d="M79.8198 66.9044L77.1484 64.2322L67.6555 73.7278L63.0829 69.154L60.4116 71.8262L66.7733 78.1897C67.2579 78.6744 68.0406 78.6744 68.5252 78.1897L79.8198 66.8919V66.9044Z" fill="white"/>
<path d="M67.6555 84.2051C67.4194 84.2051 67.1833 84.118 66.9969 83.9316L57.6531 74.5852C57.2927 74.2247 57.2927 73.6281 57.6531 73.2677L62.4244 68.4951C62.7723 68.1471 63.3936 68.1471 63.7415 68.4951L67.6555 72.4101L76.4898 63.5733C76.8377 63.2253 77.459 63.2253 77.8069 63.5733L82.5782 68.3459C82.9385 68.7064 82.9385 69.3029 82.5782 69.6634L68.314 83.9316C68.1276 84.118 67.8915 84.2051 67.6555 84.2051ZM59.6287 73.9265L67.6555 81.9554L80.6026 69.0046L77.1483 65.5494L68.314 74.3863C67.9536 74.7468 67.3572 74.7468 66.9969 74.3863L63.0829 70.4712L59.6287 73.9265Z" fill="#0067B5"/>
<path d="M13.9779 17.6739C15.3504 17.6739 16.463 16.561 16.463 15.1882C16.463 13.8153 15.3504 12.7024 13.9779 12.7024C12.6055 12.7024 11.4929 13.8153 11.4929 15.1882C11.4929 16.561 12.6055 17.6739 13.9779 17.6739Z" fill="white"/>
<path d="M13.978 18.6061C12.0894 18.6061 10.5611 17.0774 10.5611 15.1882C10.5611 13.299 12.0894 11.7703 13.978 11.7703C15.8667 11.7703 17.395 13.299 17.395 15.1882C17.395 17.0774 15.8667 18.6061 13.978 18.6061ZM13.978 13.6346C13.1207 13.6346 12.4249 14.3306 12.4249 15.1882C12.4249 16.0458 13.1207 16.7418 13.978 16.7418C14.8354 16.7418 15.5312 16.0458 15.5312 15.1882C15.5312 14.3306 14.8354 13.6346 13.978 13.6346Z" fill="#0067B5"/>
<path d="M77.3474 13.9454C78.7198 13.9454 79.8324 12.8325 79.8324 11.4596C79.8324 10.0868 78.7198 8.97388 77.3474 8.97388C75.9749 8.97388 74.8623 10.0868 74.8623 11.4596C74.8623 12.8325 75.9749 13.9454 77.3474 13.9454Z" fill="white"/>
<path d="M77.3471 14.8773C75.4584 14.8773 73.9301 13.3486 73.9301 11.4594C73.9301 9.57025 75.4584 8.0415 77.3471 8.0415C79.2357 8.0415 80.764 9.57025 80.764 11.4594C80.764 13.3486 79.2357 14.8773 77.3471 14.8773ZM77.3471 9.90582C76.4897 9.90582 75.7939 10.6018 75.7939 11.4594C75.7939 12.317 76.4897 13.013 77.3471 13.013C78.2044 13.013 78.9002 12.317 78.9002 11.4594C78.9002 10.6018 78.2044 9.90582 77.3471 9.90582Z" fill="#0067B5"/>
<path d="M84.8023 22.6453C86.1748 22.6453 87.2874 21.5324 87.2874 20.1596C87.2874 18.7867 86.1748 17.6738 84.8023 17.6738C83.4299 17.6738 82.3173 18.7867 82.3173 20.1596C82.3173 21.5324 83.4299 22.6453 84.8023 22.6453Z" fill="white"/>
<path d="M84.8024 23.5775C82.9137 23.5775 81.3854 22.0488 81.3854 20.1596C81.3854 18.2704 82.9137 16.7417 84.8024 16.7417C86.691 16.7417 88.2193 18.2704 88.2193 20.1596C88.2193 22.0488 86.691 23.5775 84.8024 23.5775ZM84.8024 18.606C83.945 18.606 83.2492 19.302 83.2492 20.1596C83.2492 21.0172 83.945 21.7132 84.8024 21.7132C85.6597 21.7132 86.3555 21.0172 86.3555 20.1596C86.3555 19.302 85.6597 18.606 84.8024 18.606Z" fill="#0067B5"/>
<path d="M10.2507 81.0606C11.6231 81.0606 12.7357 79.9477 12.7357 78.5749C12.7357 77.202 11.6231 76.0891 10.2507 76.0891C8.87822 76.0891 7.76562 77.202 7.76562 78.5749C7.76562 79.9477 8.87822 81.0606 10.2507 81.0606Z" fill="white"/>
<path d="M10.2506 81.9928C8.36199 81.9928 6.83368 80.4641 6.83368 78.5749C6.83368 76.6857 8.36199 75.157 10.2506 75.157C12.1393 75.157 13.6676 76.6857 13.6676 78.5749C13.6676 80.4641 12.1393 81.9928 10.2506 81.9928ZM10.2506 77.0213C9.39329 77.0213 8.69747 77.7173 8.69747 78.5749C8.69747 79.4325 9.39329 80.1285 10.2506 80.1285C11.108 80.1285 11.8038 79.4325 11.8038 78.5749C11.8038 77.7173 11.108 77.0213 10.2506 77.0213Z" fill="#0067B5"/>
<path d="M20.1908 88.5178C21.5633 88.5178 22.6759 87.4049 22.6759 86.032C22.6759 84.6592 21.5633 83.5463 20.1908 83.5463C18.8183 83.5463 17.7057 84.6592 17.7057 86.032C17.7057 87.4049 18.8183 88.5178 20.1908 88.5178Z" fill="white"/>
<path d="M20.1909 89.4502C18.3023 89.4502 16.774 87.9215 16.774 86.0323C16.774 84.1431 18.3023 82.6144 20.1909 82.6144C22.0796 82.6144 23.6079 84.1431 23.6079 86.0323C23.6079 87.9215 22.0796 89.4502 20.1909 89.4502ZM20.1909 84.4787C19.3336 84.4787 18.6378 85.1747 18.6378 86.0323C18.6378 86.8899 19.3336 87.5859 20.1909 87.5859C21.0483 87.5859 21.7441 86.8899 21.7441 86.0323C21.7441 85.1747 21.0483 84.4787 20.1909 84.4787Z" fill="#0067B5"/>
</svg>
