<svg width="96" height="96" viewBox="0 0 96 96" fill="none" xmlns="http://www.w3.org/2000/svg">
<path d="M71.1591 88.429H22.7064C14.193 88.429 7.26599 81.5 7.26599 72.9842V24.5178C7.26599 16.002 14.193 9.073 22.7064 9.073H71.1591C79.6725 9.073 86.5995 16.002 86.5995 24.5178V72.9842C86.5995 81.5 79.6725 88.429 71.1591 88.429ZM22.7064 10.89C15.1981 10.89 9.08251 17.0074 9.08251 24.5178V72.9842C9.08251 80.4946 15.1981 86.6119 22.7064 86.6119H71.1591C78.6674 86.6119 84.783 80.4946 84.783 72.9842V24.5178C84.783 17.0074 78.6674 10.89 71.1591 10.89H22.7064Z" fill="#0067B5"/>
<path d="M77.202 71.47H16.6513C16.1548 71.47 15.743 71.0581 15.743 70.5615V42.7003C15.743 42.2036 16.1548 41.7917 16.6513 41.7917C17.1478 41.7917 17.5596 42.2036 17.5596 42.7003V69.6529H76.2937V54.8138C76.2937 54.3172 76.7055 53.9053 77.202 53.9053C77.6985 53.9053 78.1103 54.3172 78.1103 54.8138V70.5615C78.1103 71.0581 77.6985 71.47 77.202 71.47Z" fill="#0067B5"/>
<path d="M77.202 79.9495C76.7055 79.9495 76.2937 79.5376 76.2937 79.041V71.47H17.5596V79.041C17.5596 79.5376 17.1478 79.9495 16.6513 79.9495C16.1548 79.9495 15.743 79.5376 15.743 79.041V70.5615C15.743 70.0648 16.1548 69.653 16.6513 69.653H77.202C77.6985 69.653 78.1103 70.0648 78.1103 70.5615V79.041C78.1103 79.5376 77.6985 79.9495 77.202 79.9495Z" fill="#0067B5"/>
<path d="M25.734 60.8706H66.3029V63.899C66.3029 65.5707 64.9466 66.9274 63.2754 66.9274H22.7064V63.899C22.7064 62.2273 24.0628 60.8706 25.734 60.8706Z" fill="white"/>
<path d="M71.1469 71.47H22.7064C22.2098 71.47 21.7981 71.0582 21.7981 70.5615V64.5047C21.7981 61.9972 23.8326 59.9622 26.3394 59.9622H67.5139C70.0207 59.9622 72.0552 61.9972 72.0552 64.5047V70.5615C72.0552 71.0582 71.6434 71.47 71.1469 71.47ZM23.6146 69.653H70.2386V64.5047C70.2386 63.0027 69.0155 61.7792 67.5139 61.7792H26.3394C24.8377 61.7792 23.6146 63.0027 23.6146 64.5047V69.653Z" fill="#0067B5"/>
<path d="M31.1835 54.7896H26.3395C24.3292 54.7896 22.7064 53.1664 22.7064 51.1556C22.7064 50.4893 23.2514 49.9442 23.9174 49.9442H28.7615C30.7718 49.9442 32.3945 51.5674 32.3945 53.5783C32.3945 54.2445 31.8496 54.7896 31.1835 54.7896Z" fill="white"/>
<path d="M33.6055 58.1208H27.5504C24.3776 58.1208 21.7981 55.5406 21.7981 52.3669V51.1555C21.7981 49.9926 22.7548 49.0356 23.9174 49.0356H29.9724C33.1453 49.0356 35.7248 51.6158 35.7248 54.7896V56.0009C35.7248 57.1638 34.7681 58.1208 33.6055 58.1208ZM23.9174 50.8527C23.7478 50.8527 23.6146 50.9859 23.6146 51.1555V52.3669C23.6146 54.5352 25.3827 56.3038 27.5504 56.3038H33.6055C33.775 56.3038 33.9082 56.1705 33.9082 56.0009V54.7896C33.9082 52.6213 32.1402 50.8527 29.9724 50.8527H23.9174Z" fill="#0067B5"/>
<path d="M68.7249 58.1209H38.4495C37.953 58.1209 37.5413 57.709 37.5413 57.2124C37.5413 56.7157 37.953 56.3038 38.4495 56.3038H68.7249C69.2214 56.3038 69.6331 56.7157 69.6331 57.2124C69.6331 57.709 69.2214 58.1209 68.7249 58.1209Z" fill="#0067B5"/>
<path d="M46.9267 48.757C55.6214 48.757 62.6698 41.7065 62.6698 33.0094C62.6698 24.3122 55.6214 17.2617 46.9267 17.2617C38.2319 17.2617 31.1835 24.3122 31.1835 33.0094C31.1835 41.7065 38.2319 48.757 46.9267 48.757Z" fill="white"/>
<path d="M46.9267 49.6656C37.7472 49.6656 30.2753 42.1915 30.2753 33.0094C30.2753 23.8273 37.7472 16.3533 46.9267 16.3533C56.1062 16.3533 63.5781 23.8273 63.5781 33.0094C63.5781 42.1915 56.1062 49.6656 46.9267 49.6656ZM46.9267 18.1703C38.7524 18.1703 32.0918 24.8328 32.0918 33.0094C32.0918 41.1861 38.7524 47.8485 46.9267 47.8485C55.1011 47.8485 61.7616 41.1861 61.7616 33.0094C61.7616 24.8328 55.1011 18.1703 46.9267 18.1703Z" fill="#0067B5"/>
<path d="M56.6149 29.9205H50.0148V23.3186H43.8508V29.9205H37.2386V36.0863H43.8508V42.7003H50.0148V36.0863H56.6149V29.9205Z" fill="white"/>
<path d="M50.0147 43.6088H43.8507C43.3542 43.6088 42.9424 43.1969 42.9424 42.7003V37.0069H37.2507C36.7542 37.0069 36.3424 36.595 36.3424 36.0983V29.9325C36.3424 29.4359 36.7542 29.024 37.2507 29.024H42.9424V23.3186C42.9424 22.8219 43.3542 22.41 43.8507 22.41H50.0147C50.5112 22.41 50.923 22.8219 50.923 23.3186V29.024H56.6269C57.1234 29.024 57.5351 29.4359 57.5351 29.9325V36.0983C57.5351 36.595 57.1234 37.0069 56.6269 37.0069H50.923V42.7003C50.923 43.1969 50.5112 43.6088 50.0147 43.6088ZM44.759 41.7917H49.1065V36.0983C49.1065 35.6017 49.5182 35.1898 50.0147 35.1898H55.7186V30.8411H50.0147C49.5182 30.8411 49.1065 30.4292 49.1065 29.9325V24.2271H44.759V29.9325C44.759 30.4292 44.3472 30.8411 43.8507 30.8411H38.1589V35.1898H43.8507C44.3472 35.1898 44.759 35.6017 44.759 36.0983V41.7917Z" fill="#0067B5"/>
<path d="M80.847 31.4953H76.003C75.5065 31.4953 75.0947 31.0834 75.0947 30.5867C75.0947 30.0901 75.5065 29.6782 76.003 29.6782H80.847C81.3436 29.6782 81.7553 30.0901 81.7553 30.5867C81.7553 31.0834 81.3436 31.4953 80.847 31.4953Z" fill="#0067B5"/>
<path d="M78.4252 33.918C77.9287 33.918 77.517 33.5061 77.517 33.0094V28.164C77.517 27.6674 77.9287 27.2555 78.4252 27.2555C78.9217 27.2555 79.3335 27.6674 79.3335 28.164V33.0094C79.3335 33.5061 78.9217 33.918 78.4252 33.918Z" fill="#0067B5"/>
<path d="M71.147 24.2271H66.3029C65.8064 24.2271 65.3947 23.8152 65.3947 23.3186C65.3947 22.8219 65.8064 22.41 66.3029 22.41H71.147C71.6435 22.41 72.0552 22.8219 72.0552 23.3186C72.0552 23.8152 71.6435 24.2271 71.147 24.2271Z" fill="#0067B5"/>
<path d="M68.7249 26.6498C68.2284 26.6498 67.8167 26.2379 67.8167 25.7412V20.8958C67.8167 20.3992 68.2284 19.9873 68.7249 19.9873C69.2214 19.9873 69.6332 20.3992 69.6332 20.8958V25.7412C69.6332 26.2379 69.2214 26.6498 68.7249 26.6498Z" fill="#0067B5"/>
<path d="M74.7798 47.2428H69.9357C69.4392 47.2428 69.0275 46.831 69.0275 46.3343C69.0275 45.8376 69.4392 45.4258 69.9357 45.4258H74.7798C75.2763 45.4258 75.688 45.8376 75.688 46.3343C75.688 46.831 75.2763 47.2428 74.7798 47.2428Z" fill="#0067B5"/>
<path d="M72.3581 49.6656C71.8616 49.6656 71.4498 49.2538 71.4498 48.7571V43.9117C71.4498 43.415 71.8616 43.0032 72.3581 43.0032C72.8546 43.0032 73.2663 43.415 73.2663 43.9117V48.7571C73.2663 49.2538 72.8546 49.6656 72.3581 49.6656Z" fill="#0067B5"/>
<path d="M25.1285 35.1293H20.2845C19.788 35.1293 19.3762 34.7174 19.3762 34.2208C19.3762 33.7241 19.788 33.3123 20.2845 33.3123H25.1285C25.6251 33.3123 26.0368 33.7241 26.0368 34.2208C26.0368 34.7174 25.6251 35.1293 25.1285 35.1293Z" fill="#0067B5"/>
<path d="M22.7064 37.552C22.2098 37.552 21.7981 37.1401 21.7981 36.6435V31.798C21.7981 31.3014 22.2098 30.8895 22.7064 30.8895C23.2029 30.8895 23.6146 31.3014 23.6146 31.798V36.6435C23.6146 37.1401 23.2029 37.552 22.7064 37.552Z" fill="#0067B5"/>
<path d="M22.7062 20.593H17.8621C17.3656 20.593 16.9539 20.1812 16.9539 19.6845C16.9539 19.1879 17.3656 18.776 17.8621 18.776H22.7062C23.2027 18.776 23.6144 19.1879 23.6144 19.6845C23.6144 20.1812 23.2027 20.593 22.7062 20.593Z" fill="#0067B5"/>
<path d="M20.2845 23.0157C19.788 23.0157 19.3762 22.6039 19.3762 22.1072V17.2618C19.3762 16.7651 19.788 16.3533 20.2845 16.3533C20.781 16.3533 21.1927 16.7651 21.1927 17.2618V22.1072C21.1927 22.6039 20.781 23.0157 20.2845 23.0157Z" fill="#0067B5"/>
</svg>
