<svg width="87" height="84" viewBox="0 0 87 84" fill="none" xmlns="http://www.w3.org/2000/svg">
<path d="M19.3214 84C27.8581 84 34.7785 77.0777 34.7785 68.5385C34.7785 59.9994 27.8581 53.077 19.3214 53.077C10.7846 53.077 3.86426 59.9994 3.86426 68.5385C3.86426 77.0777 10.7846 84 19.3214 84Z" fill="#CBE2B0"/>
<path d="M13.2489 26.5054C20.5661 26.5054 26.4979 20.572 26.4979 13.2527C26.4979 5.93343 20.5661 0 13.2489 0C5.93175 0 0 5.93343 0 13.2527C0 20.572 5.93175 26.5054 13.2489 26.5054Z" fill="#CBE2B0"/>
<path d="M64.7874 62.4643C76.9827 62.4643 86.869 52.5753 86.869 40.3765C86.869 28.1778 76.9827 18.2887 64.7874 18.2887C52.5921 18.2887 42.7058 28.1778 42.7058 40.3765C42.7058 52.5753 52.5921 62.4643 64.7874 62.4643Z" fill="#CBE2B0"/>
<path d="M72.0415 24.2414C72.0415 13.9374 64.07 5.5882 54.2437 5.5882C47.7186 5.5882 42.0216 9.28791 38.9191 14.7878C35.8166 9.28791 30.1306 5.5882 23.5945 5.5882C13.7682 5.5882 5.79675 13.9374 5.79675 24.2414C5.79675 46.2187 38.9191 67.4341 38.9191 67.4341C38.9191 67.4341 72.0415 46.2298 72.0415 24.2414Z" fill="white"/>
<path d="M54.2437 5.5882C51.2516 5.5882 48.4472 6.39441 45.9631 7.7749C51.7043 11.8722 55.4802 18.7746 55.4802 26.6048C55.4802 40.5091 44.6161 54.1593 34.1494 64.0768C37.02 66.2193 38.9301 67.4341 38.9301 67.4341C38.9301 67.4341 72.0524 46.2298 72.0524 24.2414C72.0524 13.9374 64.081 5.5882 54.2547 5.5882H54.2437Z" fill="#BDC3D8"/>
<path d="M38.9188 68.2625C38.7642 68.2625 38.6097 68.2183 38.4772 68.1299C37.1082 67.2575 4.96838 46.4286 4.96838 24.2414C4.96838 13.4957 13.3263 4.75995 23.5942 4.75995C29.6997 4.75995 35.452 7.96268 38.9188 13.1975C42.3746 7.96268 48.1379 4.75995 54.2434 4.75995C64.5113 4.75995 72.8692 13.5067 72.8692 24.2414C72.8692 46.4176 40.7295 67.2575 39.3605 68.1299C39.228 68.2183 39.0734 68.2625 38.9188 68.2625ZM23.5942 6.41654C14.2316 6.41654 6.6245 14.4123 6.6245 24.2414C6.6245 44.1425 34.9883 63.8117 38.9188 66.4402C42.8493 63.8117 71.2131 44.1425 71.2131 24.2414C71.2131 14.4123 63.595 6.41654 54.2434 6.41654C48.2924 6.41654 42.6948 9.77389 39.6475 15.1854C39.3494 15.7045 38.4993 15.7045 38.2012 15.1854C35.1539 9.77389 29.5562 6.41654 23.6052 6.41654H23.5942Z" fill="#21365F"/>
<path d="M59.8963 43.1375C56.8932 43.1375 54.0778 43.9548 51.6488 45.3573L43.3351 43.1375L45.5543 51.4536C44.1521 53.8833 43.3351 56.6994 43.3351 59.7034C43.3351 68.8477 50.7545 76.2693 59.8963 76.2693C69.038 76.2693 76.4574 68.8477 76.4574 59.7034C76.4574 50.559 69.038 43.1375 59.8963 43.1375Z" fill="white"/>
<path d="M69.6897 46.3623C71.7102 49.1122 72.9137 52.4806 72.9137 56.1582C72.9137 65.3026 65.4943 72.7241 56.3525 72.7241C52.687 72.7241 49.3085 71.5203 46.5593 69.4993C49.5735 73.5966 54.4203 76.2692 59.8965 76.2692C69.0383 76.2692 76.4577 68.8477 76.4577 59.7033C76.4577 54.2256 73.7858 49.3773 69.6897 46.3623Z" fill="#BDC3D8"/>
<path d="M59.8966 77.0976C50.3132 77.0976 42.5074 69.2895 42.5074 59.7034C42.5074 56.7878 43.2471 53.9054 44.6603 51.3321L42.5295 43.3474C42.4522 43.0602 42.5295 42.7621 42.7392 42.5522C42.949 42.3424 43.2471 42.2651 43.5341 42.3424L51.5167 44.4739C54.0781 43.0602 56.9708 42.3203 59.8855 42.3203C69.4689 42.3203 77.2748 50.1283 77.2748 59.7145C77.2748 69.3006 69.4689 77.1086 59.8855 77.1086L59.8966 77.0976ZM44.5057 44.3082L46.3496 51.2327C46.4048 51.4426 46.3717 51.6745 46.2612 51.8622C44.8812 54.2477 44.1524 56.9645 44.1524 59.7034C44.1524 68.3839 51.2075 75.441 59.8855 75.441C68.5636 75.441 75.6187 68.3839 75.6187 59.7034C75.6187 51.0229 68.5636 43.9658 59.8855 43.9658C57.1474 43.9658 54.4314 44.6947 52.0466 46.0752C51.8589 46.1857 51.6271 46.2078 51.4173 46.1636L44.4947 44.3192L44.5057 44.3082Z" fill="#21365F"/>
<path d="M70.5949 57.8259L66.3553 53.5851L57.9201 62.0226L53.8571 57.9585L49.6174 62.1993L57.9201 70.5044L70.5949 57.8259Z" fill="#BDC3D8"/>
<path d="M68.729 55.9595L66.3552 53.5851L57.9201 62.0226L53.8571 57.9585L51.4833 60.3329L57.1362 65.9874C57.5667 66.4181 58.2624 66.4181 58.6929 65.9874L68.729 55.9485V55.9595Z" fill="white"/>
<path d="M57.9202 71.3326C57.7104 71.3326 57.5006 71.2553 57.335 71.0897L49.0324 62.7846C48.7122 62.4644 48.7122 61.9343 49.0324 61.614L53.272 57.3731C53.5922 57.0528 54.1221 57.0528 54.4423 57.3731L57.9202 60.8519L65.7702 52.9997C66.0904 52.6795 66.6203 52.6795 66.9405 52.9997L71.1802 57.2406C71.3348 57.3952 71.4231 57.605 71.4231 57.8259C71.4231 58.0468 71.3348 58.2566 71.1802 58.4112L58.5053 71.0897C58.3397 71.2553 58.13 71.3326 57.9202 71.3326ZM50.7878 62.1993L57.9202 69.3337L69.4247 57.8259L66.3554 54.7557L58.5053 62.6079C58.1851 62.9282 57.6552 62.9282 57.335 62.6079L53.8572 59.1291L50.7878 62.1993Z" fill="#21365F"/>
<path d="M38.7312 40.7631C38.7312 40.7631 38.7091 40.7631 38.698 40.7631C38.3889 40.7521 38.1019 40.5643 37.9804 40.2772L29.2582 20.8178L24.3119 29.8517C24.1684 30.1168 23.8923 30.2824 23.5832 30.2824H11.9131C11.4605 30.2824 11.0851 29.9069 11.0851 29.4541C11.0851 29.0013 11.4605 28.6258 11.9131 28.6258H23.0975L28.6068 18.5648C28.7614 18.2887 29.0374 18.112 29.3686 18.1341C29.6778 18.1452 29.9648 18.3329 30.0862 18.6201L38.8085 38.0794L47.3319 22.5296C47.4755 22.2646 47.7736 22.1099 48.0717 22.0989C48.3809 22.0989 48.6568 22.2756 48.8004 22.5517L51.9139 28.6148H65.9467C66.3994 28.6148 66.7748 28.9903 66.7748 29.4431C66.7748 29.8959 66.3994 30.2714 65.9467 30.2714H51.417C51.1079 30.2714 50.8209 30.0947 50.6773 29.8186L48.0496 24.6942L39.482 40.3324C39.3384 40.5974 39.0624 40.7631 38.7533 40.7631H38.7312Z" fill="#21365F"/>
<path d="M11.7477 73.7844H10.2241C9.77138 73.7844 9.396 73.4089 9.396 72.9561C9.396 72.5033 9.77138 72.1278 10.2241 72.1278H11.7477C12.2004 72.1278 12.5757 72.5033 12.5757 72.9561C12.5757 73.4089 12.2004 73.7844 11.7477 73.7844Z" fill="#21365F"/>
<path d="M16.8374 73.7844H15.3138C14.8611 73.7844 14.4857 73.4089 14.4857 72.9561C14.4857 72.5033 14.8611 72.1278 15.3138 72.1278H16.8374C17.2901 72.1278 17.6655 72.5033 17.6655 72.9561C17.6655 73.4089 17.2901 73.7844 16.8374 73.7844Z" fill="#21365F"/>
<path d="M13.5252 77.0975C13.0725 77.0975 12.6971 76.722 12.6971 76.2692V74.7452C12.6971 74.2924 13.0725 73.9169 13.5252 73.9169C13.9779 73.9169 14.3533 74.2924 14.3533 74.7452V76.2692C14.3533 76.722 13.9779 77.0975 13.5252 77.0975Z" fill="#21365F"/>
<path d="M13.5252 72.0063C13.0725 72.0063 12.6971 71.6308 12.6971 71.178V69.6539C12.6971 69.2011 13.0725 68.8256 13.5252 68.8256C13.9779 68.8256 14.3533 69.2011 14.3533 69.6539V71.178C14.3533 71.6308 13.9779 72.0063 13.5252 72.0063Z" fill="#21365F"/>
<path d="M7.33118 50.5921H5.80755C5.35488 50.5921 4.97949 50.2166 4.97949 49.7638C4.97949 49.311 5.35488 48.9355 5.80755 48.9355H7.33118C7.78386 48.9355 8.15924 49.311 8.15924 49.7638C8.15924 50.2166 7.78386 50.5921 7.33118 50.5921Z" fill="#21365F"/>
<path d="M12.421 50.5921H10.8974C10.4447 50.5921 10.0693 50.2166 10.0693 49.7638C10.0693 49.311 10.4447 48.9355 10.8974 48.9355H12.421C12.8737 48.9355 13.2491 49.311 13.2491 49.7638C13.2491 50.2166 12.8737 50.5921 12.421 50.5921Z" fill="#21365F"/>
<path d="M9.1087 53.9053C8.65603 53.9053 8.28064 53.5298 8.28064 53.077V51.553C8.28064 51.1002 8.65603 50.7247 9.1087 50.7247C9.56137 50.7247 9.93676 51.1002 9.93676 51.553V53.077C9.93676 53.5298 9.56137 53.9053 9.1087 53.9053Z" fill="#21365F"/>
<path d="M9.1087 48.8141C8.65603 48.8141 8.28064 48.4386 8.28064 47.9858V46.4617C8.28064 46.0089 8.65603 45.6334 9.1087 45.6334C9.56137 45.6334 9.93676 46.0089 9.93676 46.4617V47.9858C9.93676 48.4386 9.56137 48.8141 9.1087 48.8141Z" fill="#21365F"/>
<path d="M21.6842 64.9492H20.1606C19.7079 64.9492 19.3325 64.5738 19.3325 64.121C19.3325 63.6682 19.7079 63.2927 20.1606 63.2927H21.6842C22.1369 63.2927 22.5123 63.6682 22.5123 64.121C22.5123 64.5738 22.1369 64.9492 21.6842 64.9492Z" fill="#21365F"/>
<path d="M26.7739 64.9492H25.2503C24.7976 64.9492 24.4222 64.5738 24.4222 64.121C24.4222 63.6682 24.7976 63.2927 25.2503 63.2927H26.7739C27.2266 63.2927 27.602 63.6682 27.602 64.121C27.602 64.5738 27.2266 64.9492 26.7739 64.9492Z" fill="#21365F"/>
<path d="M23.462 68.2624C23.0093 68.2624 22.6339 67.8869 22.6339 67.4341V65.9101C22.6339 65.4573 23.0093 65.0818 23.462 65.0818C23.9146 65.0818 24.29 65.4573 24.29 65.9101V67.4341C24.29 67.8869 23.9146 68.2624 23.462 68.2624Z" fill="#21365F"/>
<path d="M23.462 63.1712C23.0093 63.1712 22.6339 62.7957 22.6339 62.3429V60.8188C22.6339 60.366 23.0093 59.9905 23.462 59.9905C23.9146 59.9905 24.29 60.366 24.29 60.8188V62.3429C24.29 62.7957 23.9146 63.1712 23.462 63.1712Z" fill="#21365F"/>
</svg>
