<svg width="170" height="49" viewBox="0 0 170 49" fill="none" xmlns="http://www.w3.org/2000/svg">
<g clip-path="url(#clip0_287_14811)">
<path d="M57.4114 13.4946C56.9503 12.365 56.1942 11.8765 55.4135 11.8765C54.2106 11.8765 53.7004 12.4514 53.6389 13.7479L53.0078 27.2053H55.4975L55.9954 15.6153H56.0098L59.3416 24.0535C59.6326 24.7952 60.1613 25.155 60.8621 25.155C61.5629 25.155 62.0833 24.7972 62.3702 24.0535L65.6344 15.5972H65.6488L66.1385 27.2053H68.7429L68.1303 13.76C68.0708 12.4574 67.5586 11.8785 66.3557 11.8785C65.5627 11.8785 64.7697 12.4253 64.3189 13.5328L60.8477 21.9791L57.4114 13.4946Z" fill="white"/>
<path d="M81.9414 14.1096V12.0935C80.8123 12.0392 78.9394 11.989 77.8575 11.989C75.1137 11.989 72.5708 12.1337 72.5708 15.5749V23.6574C72.5708 27.0987 75.1137 27.2434 77.8575 27.2434C78.9394 27.2434 80.8123 27.1931 81.9414 27.1389V25.1248H77.7919C75.6301 25.1248 75.2654 24.7007 75.2654 22.777V20.5197H81.6422V18.4574H75.2654V16.4634C75.2654 14.5357 75.6301 14.1116 77.7919 14.1116H81.9414V14.1096Z" fill="white"/>
<path d="M88.3902 14.1336C88.8738 14.0693 89.4865 14.003 90.1893 14.003C94.6851 14.003 94.7199 16.4312 94.7199 19.6151C94.7199 22.7991 94.6871 25.2272 90.1893 25.2272C89.4844 25.2272 88.8717 25.1609 88.3902 25.0966V14.1336ZM85.6895 26.9579C86.9681 27.185 88.8307 27.3559 90.6278 27.3559C96.4002 27.3559 97.4186 24.7729 97.4186 19.6171C97.4186 14.4613 96.4022 11.8763 90.6299 11.8763C88.8328 11.8763 86.9701 12.0472 85.6915 12.2743V26.9579H85.6895Z" fill="white"/>
<path d="M103.877 12.0292H101.176V27.2052H103.877V12.0292Z" fill="white"/>
<path d="M117.823 12.2963C116.827 12.0571 115.469 11.8802 113.938 11.8802C108.85 11.8802 107.59 14.236 107.59 19.617C107.59 24.998 108.844 27.3538 113.938 27.3538C115.469 27.3538 116.825 27.1769 117.821 26.9377L117.581 24.9216C116.618 25.0703 115.59 25.1668 114.538 25.1668C110.381 25.1668 110.348 22.8251 110.348 19.617C110.348 16.4089 110.381 14.0652 114.538 14.0652C115.59 14.0652 116.618 14.1637 117.581 14.3104L117.821 12.2963H117.823Z" fill="white"/>
<path d="M125.157 21.1689L127.348 14.3125L129.571 21.1689H125.155H125.157ZM123.231 27.2051L124.518 23.1669H130.216L131.526 27.2051H134.393L129.778 13.6854C129.354 12.4452 128.532 11.8763 127.469 11.8763C126.405 11.8763 125.577 12.4452 125.145 13.6854L120.457 27.2051H123.231Z" fill="white"/>
<path d="M139.915 12.0292H137.214V23.6574C137.214 27.0987 139.755 27.2434 142.496 27.2434C143.501 27.2434 145.179 27.1971 146.322 27.1529V25.1228H142.437C140.279 25.1228 139.915 24.6986 139.915 22.771V12.0292Z" fill="white"/>
<path d="M142.935 33.0605C143.224 33.0223 143.55 33.0042 143.831 33.0042C144.794 33.0042 145.138 33.2896 145.138 34.0213C145.138 34.8575 144.642 35.0665 143.8 35.0665C143.509 35.0665 143.222 35.0625 142.935 35.0284V33.0625V33.0605ZM142.935 35.8243C143.199 35.8384 143.548 35.8525 143.847 35.8525L145.111 38.1138H146.318L144.927 35.75C145.681 35.563 146.165 35.0887 146.165 34.0233C146.165 32.4796 145.091 32.2283 143.798 32.2283C143.107 32.2283 142.392 32.2947 141.9 32.3811V38.1138H142.935V35.8243ZM140.023 33.0846V32.3107C139.589 32.2906 138.87 32.2705 138.456 32.2705C137.403 32.2705 136.425 32.3268 136.425 33.6474V36.751C136.425 38.0736 137.4 38.1279 138.456 38.1279C138.872 38.1279 139.589 38.1078 140.023 38.0877V37.3138H138.429C137.599 37.3138 137.458 37.151 137.458 36.4113V35.5449H139.907V34.753H137.458V33.9871C137.458 33.2454 137.599 33.0846 138.429 33.0846H140.023ZM130.794 32.2846V33.0927H132.302V38.1118H133.339V33.0927H134.851V32.2846H130.796H130.794ZM126.087 32.8776C125.829 32.3992 125.538 32.2263 125.171 32.2263C124.776 32.2263 124.534 32.4474 124.534 32.964V38.1118H125.46V33.5369L127.61 37.5168C127.87 37.9972 128.141 38.1721 128.53 38.1721C128.919 38.1721 129.167 37.947 129.167 37.4304V32.2846H128.241V36.8455L126.089 32.8776H126.087ZM122.655 33.0846V32.3107C122.221 32.2906 121.501 32.2705 121.087 32.2705C120.032 32.2705 119.057 32.3268 119.057 33.6474V36.751C119.057 38.0736 120.032 38.1279 121.087 38.1279C121.501 38.1279 122.221 38.1078 122.655 38.0877V37.3138H121.061C120.231 37.3138 120.09 37.151 120.09 36.4113V35.5449H122.538V34.753H120.09V33.9871C120.09 33.2454 120.229 33.0846 121.061 33.0846H122.655ZM117.395 32.3891C117.012 32.2967 116.491 32.2303 115.903 32.2303C113.948 32.2303 113.465 33.1349 113.465 35.2012C113.465 37.2676 113.946 38.1721 115.903 38.1721C116.491 38.1721 117.012 38.1038 117.395 38.0113L117.303 37.2374C116.932 37.2957 116.536 37.3319 116.133 37.3319C114.536 37.3319 114.524 36.4334 114.524 35.2012C114.524 33.969 114.536 33.0705 116.133 33.0705C116.536 33.0705 116.932 33.1067 117.303 33.165L117.395 32.3911V32.3891ZM109.535 33.0846V32.3107C109.1 32.2906 108.381 32.2705 107.967 32.2705C106.914 32.2705 105.936 32.3268 105.936 33.6474V36.751C105.936 38.0736 106.912 38.1279 107.967 38.1279C108.383 38.1279 109.1 38.1078 109.535 38.0877V37.3138H107.94C107.111 37.3138 106.969 37.151 106.969 36.4113V35.5449H109.418V34.753H106.969V33.9871C106.969 33.2454 107.108 33.0846 107.94 33.0846H109.535ZM100.939 33.0605C101.228 33.0223 101.553 33.0042 101.834 33.0042C102.797 33.0042 103.141 33.2896 103.141 34.0213C103.141 34.8575 102.643 35.0665 101.803 35.0665C101.512 35.0665 101.225 35.0625 100.939 35.0284V33.0625V33.0605ZM100.939 35.8243C101.203 35.8384 101.551 35.8525 101.85 35.8525L103.115 38.1138H104.322L102.93 35.75C103.684 35.563 104.168 35.0887 104.168 34.0233C104.168 32.4796 103.094 32.2283 101.801 32.2283C101.113 32.2283 100.396 32.2947 99.9038 32.3811V38.1138H100.939V35.8243ZM94.8179 35.7962L95.6601 33.163L96.5145 35.7962H94.8199H94.8179ZM94.0782 38.1138L94.572 36.564H96.7604L97.2625 38.1138H98.3628L96.5904 32.9218C96.4264 32.4454 96.1109 32.2263 95.7031 32.2263C95.2953 32.2263 94.9757 32.4454 94.8097 32.9218L93.0085 38.1138H94.0741H94.0782ZM91.5639 32.3891C91.1807 32.2967 90.6602 32.2303 90.0721 32.2303C88.1193 32.2303 87.6337 33.1349 87.6337 35.2012C87.6337 37.2676 88.1152 38.1721 90.0721 38.1721C90.6602 38.1721 91.1807 38.1038 91.5639 38.0113L91.4717 37.2374C91.1028 37.2957 90.7074 37.3319 90.3037 37.3319C88.7074 37.3319 88.6951 36.4334 88.6951 35.2012C88.6951 33.969 88.7074 33.0705 90.3037 33.0705C90.7074 33.0705 91.1028 33.1067 91.4717 33.165L91.5639 32.3911V32.3891ZM85.7711 38.1138V32.2866H84.7342V34.7309H82.2958V32.2866H81.2589V38.1138H82.2958V35.5449H84.7342V38.1138H85.7711ZM75.5849 32.2866V33.0947H77.091V38.1138H78.1279V33.0947H79.6401V32.2866H75.5849ZM72.5748 32.2866H71.5379V36.753C71.5379 38.0756 72.5133 38.1299 73.5665 38.1299C73.9518 38.1299 74.5972 38.1118 75.0358 38.0957V37.3158H73.544C72.7162 37.3158 72.5748 37.153 72.5748 36.4133V32.2866ZM66.4705 35.7962L67.3127 33.163L68.1671 35.7962H66.4705ZM65.7307 38.1138L66.2246 36.564H68.413L68.9151 38.1138H70.0154L68.243 32.9218C68.0811 32.4454 67.7655 32.2263 67.3557 32.2263C66.9459 32.2263 66.6303 32.4454 66.4643 32.9218L64.6632 38.1138H65.7287H65.7307ZM63.1263 33.0846V32.3107C62.6919 32.2906 61.9727 32.2705 61.5588 32.2705C60.5035 32.2705 59.5281 32.3268 59.5281 33.6474V36.751C59.5281 38.0736 60.5035 38.1279 61.5588 38.1279C61.9747 38.1279 62.6919 38.1078 63.1263 38.0877V37.3138H61.5321C60.7022 37.3138 60.5629 37.151 60.5629 36.4113V35.5449H63.0116V34.753H60.5629V33.9871C60.5629 33.2454 60.7022 33.0846 61.5321 33.0846H63.1263ZM57.52 38.1138V32.2866H56.4831V34.7309H54.0467V32.2866H53.0078V38.1138H54.0467V35.5449H56.4852V38.1138H57.522H57.52Z" fill="white"/>
</g>
<g clip-path="url(#clip1_287_14811)">
<path fill-rule="evenodd" clip-rule="evenodd" d="M41.1327 18.2792C32.6613 18.9486 27.8931 24.5081 27.8931 31.5724H34.5999C38.1968 31.5724 41.1297 28.6282 41.1297 25.0176V18.2792H41.1327Z" fill="white"/>
<path fill-rule="evenodd" clip-rule="evenodd" d="M31.245 31.5724C31.245 24.5081 33.5347 20.1393 41.1327 18.2792C32.6613 18.9486 27.8931 24.5081 27.8931 31.5724H31.245Z" fill="white"/>
<path fill-rule="evenodd" clip-rule="evenodd" d="M27.8927 31.5723C27.8927 24.5081 32.658 18.9485 41.1323 18.2791H27.8927C22.0032 18.2791 16.6035 13.2142 15.7124 4.98886C15.7124 17.8111 26.7036 28.3231 27.8927 42.6974V31.5694V31.5723Z" fill="white"/>
<path fill-rule="evenodd" clip-rule="evenodd" d="M27.8932 18.2791V11.5436C27.8932 7.93303 24.9602 4.98886 21.3634 4.98886H15.7158C16.604 13.2142 22.0066 18.2791 27.8961 18.2791H27.8932Z" fill="white"/>
<path fill-rule="evenodd" clip-rule="evenodd" d="M27.8927 18.2791V15.2698C22.0032 15.2698 17.5418 12.3345 15.7124 4.98886C16.6005 13.2142 22.0032 18.2791 27.8927 18.2791Z" fill="white"/>
<path fill-rule="evenodd" clip-rule="evenodd" d="M15.7158 4.98886C15.7158 17.8111 26.707 28.3231 27.8961 42.6974V31.5694C27.8961 29.0872 28.4833 26.7888 29.6193 24.822C21.0536 21.5906 16.2853 13.7503 15.7158 4.98886Z" fill="white"/>
<path fill-rule="evenodd" clip-rule="evenodd" d="M0.413086 31.5722C8.88442 30.9028 13.6527 25.3433 13.6527 18.279H6.94289C3.34604 18.279 0.413086 21.2232 0.413086 24.8338V31.5722Z" fill="white"/>
<path fill-rule="evenodd" clip-rule="evenodd" d="M10.3007 18.279C10.3007 25.3433 8.01102 29.7121 0.413086 31.5722C8.88442 30.9028 13.6527 25.3433 13.6527 18.279H10.3007Z" fill="white"/>
<path fill-rule="evenodd" clip-rule="evenodd" d="M13.6527 18.2789C13.6527 25.3431 8.88737 30.9027 0.413086 31.5721H13.6527C19.5422 31.5721 24.9419 36.637 25.833 44.8624C25.833 32.0401 14.8418 21.5282 13.6527 7.15384V18.2789Z" fill="white"/>
<path fill-rule="evenodd" clip-rule="evenodd" d="M13.6529 31.5721V38.3046C13.6529 41.9152 16.5858 44.8594 20.1827 44.8594H25.8302C24.9421 36.6341 19.5394 31.5692 13.6499 31.5692L13.6529 31.5721Z" fill="white"/>
<path fill-rule="evenodd" clip-rule="evenodd" d="M13.6528 31.5723V34.5816C19.5423 34.5816 24.0037 37.5169 25.8331 44.8625C24.945 36.6372 19.5423 31.5723 13.6528 31.5723Z" fill="white"/>
<path fill-rule="evenodd" clip-rule="evenodd" d="M25.8302 44.8595C25.8302 32.0372 14.8391 21.5253 13.6499 7.15094V18.279C13.6499 20.7611 13.0628 23.0595 11.9268 25.0263C20.4866 28.2607 25.2578 36.101 25.8273 44.8595H25.8302Z" fill="white"/>
</g>
<defs>
<clipPath id="clip0_287_14811">
<rect width="93.3145" height="26.2977" fill="white" transform="translate(53.0083 11.8764)"/>
</clipPath>
<clipPath id="clip1_287_14811">
<rect width="40.7191" height="39.8707" fill="white" transform="translate(0.413086 4.98877)"/>
</clipPath>
</defs>
</svg>
