<svg width="200" height="58" viewBox="0 0 200 58" fill="none" xmlns="http://www.w3.org/2000/svg">
<g clip-path="url(#clip0_287_14940)">
<path d="M67.1909 16.0266C66.6474 14.6949 65.7561 14.1191 64.8358 14.1191C63.4179 14.1191 62.8164 14.7968 62.744 16.3251L62 32.1889H64.9348L65.5218 18.5264H65.5387L69.4663 28.4735C69.8094 29.3478 70.4326 29.772 71.2587 29.772C72.0848 29.772 72.6983 29.3502 73.0365 28.4735L76.8844 18.5051H76.9013L77.4786 32.1889H80.5487L79.8265 16.3393C79.7564 14.8039 79.1525 14.1215 77.7346 14.1215C76.7998 14.1215 75.865 14.766 75.3336 16.0716L71.2417 26.0282L67.1909 16.0266Z" fill="#80B93E"/>
<path d="M96.1072 16.7518V14.3752C94.7762 14.3112 92.5684 14.252 91.2931 14.252C88.0587 14.252 85.061 14.4226 85.061 18.4791V28.0068C85.061 32.0634 88.0587 32.234 91.2931 32.234C92.5684 32.234 94.7762 32.1748 96.1072 32.1108V29.7366H91.2158C88.6674 29.7366 88.2374 29.2366 88.2374 26.969V24.3081H95.7545V21.877H88.2374V19.5264C88.2374 17.2541 88.6674 16.7541 91.2158 16.7541H96.1072V16.7518Z" fill="#80B93E"/>
<path d="M103.709 16.7801C104.279 16.7043 105.001 16.6261 105.829 16.6261C111.129 16.6261 111.17 19.4884 111.17 23.2417C111.17 26.9949 111.131 29.8573 105.829 29.8573C104.998 29.8573 104.276 29.7791 103.709 29.7033V16.7801ZM100.525 31.8974C102.032 32.1652 104.228 32.3666 106.346 32.3666C113.151 32.3666 114.351 29.3218 114.351 23.244C114.351 17.1663 113.153 14.1191 106.349 14.1191C104.23 14.1191 102.035 14.3205 100.527 14.5883V31.8974H100.525Z" fill="#80B93E"/>
<path d="M121.965 14.2993H118.781V32.1889H121.965V14.2993Z" fill="#80B93E"/>
<path d="M138.405 14.6143C137.231 14.3323 135.629 14.1238 133.825 14.1238C127.827 14.1238 126.342 16.9008 126.342 23.2439C126.342 29.5871 127.82 32.3641 133.825 32.3641C135.629 32.3641 137.229 32.1556 138.402 31.8736L138.12 29.497C136.985 29.6724 135.772 29.7861 134.533 29.7861C129.632 29.7861 129.593 27.0256 129.593 23.2439C129.593 19.4622 129.632 16.6994 134.533 16.6994C135.772 16.6994 136.985 16.8155 138.12 16.9885L138.402 14.6143H138.405Z" fill="#80B93E"/>
<path d="M147.05 25.0733L149.632 16.991L152.253 25.0733H147.048H147.05ZM144.779 32.1889L146.296 27.4285H153.014L154.557 32.1889H157.937L152.497 16.2517C151.997 14.7897 151.028 14.1191 149.775 14.1191C148.521 14.1191 147.545 14.7897 147.035 16.2517L141.509 32.1889H144.779Z" fill="#80B93E"/>
<path d="M164.447 14.2993H161.263V28.0068C161.263 32.0634 164.258 32.234 167.49 32.234C168.674 32.234 170.652 32.1795 172 32.1273V29.7342H167.42C164.877 29.7342 164.447 29.2342 164.447 26.9619V14.2993Z" fill="#80B93E"/>
<path d="M168.007 39.0912C168.348 39.0462 168.732 39.0249 169.063 39.0249C170.198 39.0249 170.604 39.3614 170.604 40.2239C170.604 41.2096 170.019 41.456 169.026 41.456C168.683 41.456 168.345 41.4513 168.007 41.411V39.0936V39.0912ZM168.007 42.3493C168.319 42.3659 168.729 42.3825 169.082 42.3825L170.572 45.0481H171.995L170.355 42.2616C171.244 42.0413 171.814 41.4821 171.814 40.2262C171.814 38.4065 170.548 38.1103 169.024 38.1103C168.21 38.1103 167.367 38.1885 166.787 38.2904V45.0481H168.007V42.3493ZM164.575 39.1197V38.2074C164.063 38.1837 163.215 38.16 162.727 38.16C161.485 38.16 160.333 38.2264 160.333 39.7831V43.4416C160.333 45.0007 161.483 45.0647 162.727 45.0647C163.217 45.0647 164.063 45.041 164.575 45.0173V44.1051H162.695C161.717 44.1051 161.55 43.9132 161.55 43.0412V42.0199H164.437V41.0864H161.55V40.1836C161.55 39.3092 161.717 39.1197 162.695 39.1197H164.575ZM153.695 38.1766V39.1292H155.473V45.0458H156.695V39.1292H158.478V38.1766H153.698H153.695ZM148.147 38.8756C147.842 38.3117 147.499 38.1079 147.067 38.1079C146.601 38.1079 146.316 38.3686 146.316 38.9775V45.0458H147.408V39.6528L149.942 44.3444C150.248 44.9107 150.567 45.1169 151.026 45.1169C151.485 45.1169 151.777 44.8515 151.777 44.2425V38.1766H150.686V43.553L148.149 38.8756H148.147ZM144.101 39.1197V38.2074C143.589 38.1837 142.741 38.16 142.253 38.16C141.009 38.16 139.859 38.2264 139.859 39.7831V43.4416C139.859 45.0007 141.009 45.0647 142.253 45.0647C142.741 45.0647 143.589 45.041 144.101 45.0173V44.1051H142.222C141.243 44.1051 141.077 43.9132 141.077 43.0412V42.0199H143.963V41.0864H141.077V40.1836C141.077 39.3092 141.241 39.1197 142.222 39.1197H144.101ZM137.9 38.2998C137.449 38.1908 136.835 38.1127 136.142 38.1127C133.837 38.1127 133.267 39.1789 133.267 41.6148C133.267 44.0506 133.835 45.1169 136.142 45.1169C136.835 45.1169 137.449 45.0363 137.9 44.9273L137.792 44.015C137.354 44.0838 136.888 44.1264 136.412 44.1264C134.531 44.1264 134.516 43.0672 134.516 41.6148C134.516 40.1623 134.531 39.1031 136.412 39.1031C136.888 39.1031 137.354 39.1457 137.792 39.2145L137.9 38.3022V38.2998ZM128.634 39.1197V38.2074C128.122 38.1837 127.274 38.16 126.786 38.16C125.545 38.16 124.393 38.2264 124.393 39.7831V43.4416C124.393 45.0007 125.542 45.0647 126.786 45.0647C127.277 45.0647 128.122 45.041 128.634 45.0173V44.1051H126.755C125.777 44.1051 125.61 43.9132 125.61 43.0412V42.0199H128.497V41.0864H125.61V40.1836C125.61 39.3092 125.774 39.1197 126.755 39.1197H128.634ZM118.501 39.0912C118.842 39.0462 119.226 39.0249 119.557 39.0249C120.692 39.0249 121.098 39.3614 121.098 40.2239C121.098 41.2096 120.511 41.456 119.521 41.456C119.178 41.456 118.839 41.4513 118.501 41.411V39.0936V39.0912ZM118.501 42.3493C118.813 42.3659 119.223 42.3825 119.576 42.3825L121.067 45.0481H122.489L120.849 42.2616C121.738 42.0413 122.308 41.4821 122.308 40.2262C122.308 38.4065 121.042 38.1103 119.518 38.1103C118.707 38.1103 117.861 38.1885 117.281 38.2904V45.0481H118.501V42.3493ZM111.286 42.3161L112.279 39.2121L113.286 42.3161H111.289H111.286ZM110.414 45.0481L110.996 43.2213H113.576L114.168 45.0481H115.465L113.376 38.9278C113.182 38.3662 112.81 38.1079 112.33 38.1079C111.849 38.1079 111.472 38.3662 111.276 38.9278L109.153 45.0481H110.409H110.414ZM107.45 38.2998C106.999 38.1908 106.385 38.1127 105.692 38.1127C103.39 38.1127 102.817 39.1789 102.817 41.6148C102.817 44.0506 103.385 45.1169 105.692 45.1169C106.385 45.1169 106.999 45.0363 107.45 44.9273L107.342 44.015C106.907 44.0838 106.441 44.1264 105.965 44.1264C104.083 44.1264 104.069 43.0672 104.069 41.6148C104.069 40.1623 104.083 39.1031 105.965 39.1031C106.441 39.1031 106.907 39.1457 107.342 39.2145L107.45 38.3022V38.2998ZM100.622 45.0481V38.179H99.3994V41.0603H96.5249V38.179H95.3027V45.0481H96.5249V42.0199H99.3994V45.0481H100.622ZM88.6141 38.179V39.1315H90.3895V45.0481H91.6118V39.1315H93.3944V38.179H88.6141ZM85.0657 38.179H83.8435V43.444C83.8435 45.0031 84.9933 45.0671 86.2348 45.0671C86.6889 45.0671 87.4498 45.0458 87.9668 45.0268V44.1075H86.2083C85.2324 44.1075 85.0657 43.9155 85.0657 43.0436V38.179ZM77.8699 42.3161L78.8627 39.2121L79.87 42.3161H77.8699ZM76.9979 45.0481L77.5801 43.2213H80.1598L80.7516 45.0481H82.0487L79.9593 38.9278C79.7685 38.3662 79.3965 38.1079 78.9134 38.1079C78.4303 38.1079 78.0583 38.3662 77.8627 38.9278L75.7394 45.0481H76.9955H76.9979ZM73.9278 39.1197V38.2074C73.4157 38.1837 72.5679 38.16 72.0799 38.16C70.8359 38.16 69.6862 38.2264 69.6862 39.7831V43.4416C69.6862 45.0007 70.8359 45.0647 72.0799 45.0647C72.5703 45.0647 73.4157 45.041 73.9278 45.0173V44.1051H72.0485C71.0702 44.1051 70.906 43.9132 70.906 43.0412V42.0199H73.7925V41.0864H70.906V40.1836C70.906 39.3092 71.0702 39.1197 72.0485 39.1197H73.9278ZM67.319 45.0481V38.179H66.0967V41.0603H63.2247V38.179H62V45.0481H63.2247V42.0199H66.0991V45.0481H67.3214H67.319Z" fill="#A8A8A8"/>
</g>
<g clip-path="url(#clip1_287_14940)">
<path fill-rule="evenodd" clip-rule="evenodd" d="M48 21.6667C38.0139 22.4558 32.3931 29.0095 32.3931 37.3369H40.2992C44.5392 37.3369 47.9965 33.8663 47.9965 29.6101V21.6667H48Z" fill="url(#paint0_radial_287_14940)"/>
<path fill-rule="evenodd" clip-rule="evenodd" d="M36.3444 37.3369C36.3444 29.0095 39.0435 23.8595 48 21.6667C38.0139 22.4558 32.3931 29.0095 32.3931 37.3369H36.3444Z" fill="url(#paint1_radial_287_14940)"/>
<path fill-rule="evenodd" clip-rule="evenodd" d="M32.3929 37.3368C32.3929 29.0094 38.0103 22.4558 47.9999 21.6667H32.3929C25.4503 21.6667 19.0851 15.6961 18.0347 6C18.0347 21.115 30.9912 33.5066 32.3929 50.4512V37.3333V37.3368Z" fill="url(#paint2_radial_287_14940)"/>
<path fill-rule="evenodd" clip-rule="evenodd" d="M32.3929 21.6667V13.7268C32.3929 9.47062 28.9355 6 24.6955 6H18.0381C19.085 15.6961 25.4537 21.6667 32.3963 21.6667H32.3929Z" fill="url(#paint3_radial_287_14940)"/>
<path fill-rule="evenodd" clip-rule="evenodd" d="M32.3929 21.6667V18.1192C25.4503 18.1192 20.1912 14.6591 18.0347 6C19.0816 15.6961 25.4503 21.6667 32.3929 21.6667Z" fill="url(#paint4_radial_287_14940)"/>
<path fill-rule="evenodd" clip-rule="evenodd" d="M18.0381 6C18.0381 21.115 30.9946 33.5066 32.3963 50.4512V37.3333C32.3963 34.4074 33.0885 31.6979 34.4277 29.3795C24.3303 25.5702 18.7094 16.3281 18.0381 6Z" fill="url(#paint5_radial_287_14940)"/>
<path fill-rule="evenodd" clip-rule="evenodd" d="M0 37.3369C9.98609 36.5478 15.607 29.9941 15.607 21.6667H7.69739C3.45739 21.6667 0 25.1374 0 29.3936V37.3369Z" fill="url(#paint6_radial_287_14940)"/>
<path fill-rule="evenodd" clip-rule="evenodd" d="M11.6557 21.6667C11.6557 29.9941 8.95652 35.1442 0 37.3369C9.98609 36.5478 15.607 29.9941 15.607 21.6667H11.6557Z" fill="url(#paint7_radial_287_14940)"/>
<path fill-rule="evenodd" clip-rule="evenodd" d="M15.607 21.6666C15.607 29.994 9.98956 36.5476 0 37.3367H15.607C22.5496 37.3367 28.9148 43.3073 29.9652 53.0034C29.9652 37.8884 17.0087 25.4968 15.607 8.55225V21.6666Z" fill="url(#paint8_radial_287_14940)"/>
<path fill-rule="evenodd" clip-rule="evenodd" d="M15.607 37.3367V45.2731C15.607 49.5293 19.0644 52.9999 23.3044 52.9999H29.9618C28.9148 43.3038 22.5461 37.3333 15.6035 37.3333L15.607 37.3367Z" fill="url(#paint9_radial_287_14940)"/>
<path fill-rule="evenodd" clip-rule="evenodd" d="M15.6069 37.3369V40.8843C22.5495 40.8843 27.8087 44.3445 29.9652 53.0036C28.9182 43.3075 22.5495 37.3369 15.6069 37.3369Z" fill="url(#paint10_radial_287_14940)"/>
<path fill-rule="evenodd" clip-rule="evenodd" d="M29.9618 53C29.9618 37.885 17.0053 25.4934 15.6036 8.54883V21.6666C15.6036 24.5926 14.9114 27.302 13.5723 29.6204C23.6627 33.4332 29.287 42.6754 29.9584 53H29.9618Z" fill="url(#paint11_radial_287_14940)"/>
</g>
<defs>
<radialGradient id="paint0_radial_287_14940" cx="0" cy="0" r="1" gradientUnits="userSpaceOnUse" gradientTransform="translate(57.1548 46.9457) scale(35.8504 35.9876)">
<stop stop-color="white"/>
<stop offset="0.28" stop-color="#E2E432"/>
<stop offset="0.8" stop-color="#399A48"/>
</radialGradient>
<radialGradient id="paint1_radial_287_14940" cx="0" cy="0" r="1" gradientUnits="userSpaceOnUse" gradientTransform="translate(73.6626 56.0168) scale(55.2139 55.4252)">
<stop stop-color="white"/>
<stop offset="0.28" stop-color="#E2E432"/>
<stop offset="0.8" stop-color="#399A48"/>
</radialGradient>
<radialGradient id="paint2_radial_287_14940" cx="0" cy="0" r="1" gradientUnits="userSpaceOnUse" gradientTransform="translate(55.586 56.2157) scale(68.887 69.1505)">
<stop stop-color="white"/>
<stop offset="0.28" stop-color="#E2E432"/>
<stop offset="0.8" stop-color="#399A48"/>
</radialGradient>
<radialGradient id="paint3_radial_287_14940" cx="0" cy="0" r="1" gradientUnits="userSpaceOnUse" gradientTransform="translate(34.365 -7.09687) scale(34.0591 34.1894)">
<stop stop-color="white"/>
<stop offset="0.28" stop-color="#E2E432"/>
<stop offset="0.8" stop-color="#399A48"/>
</radialGradient>
<radialGradient id="paint4_radial_287_14940" cx="0" cy="0" r="1" gradientUnits="userSpaceOnUse" gradientTransform="translate(40.0625 -9.65968) scale(35.6904 35.827)">
<stop stop-color="white"/>
<stop offset="0.28" stop-color="#E2E432"/>
<stop offset="0.8" stop-color="#399A48"/>
</radialGradient>
<radialGradient id="paint5_radial_287_14940" cx="0" cy="0" r="1" gradientUnits="userSpaceOnUse" gradientTransform="translate(56.9598 52.4693) scale(57.3565 57.576)">
<stop stop-color="white"/>
<stop offset="0.28" stop-color="#E2E432"/>
<stop offset="0.8" stop-color="#399A48"/>
</radialGradient>
<radialGradient id="paint6_radial_287_14940" cx="0" cy="0" r="1" gradientUnits="userSpaceOnUse" gradientTransform="translate(-9.15478 12.0545) rotate(180) scale(35.8504 35.9876)">
<stop stop-color="white"/>
<stop offset="0.5" stop-color="#26B3E8"/>
<stop offset="1" stop-color="#3D419A"/>
</radialGradient>
<radialGradient id="paint7_radial_287_14940" cx="0" cy="0" r="1" gradientUnits="userSpaceOnUse" gradientTransform="translate(-25.6626 2.98337) rotate(-180) scale(55.2139 55.4252)">
<stop stop-color="white"/>
<stop offset="0.5" stop-color="#26B3E8"/>
<stop offset="1" stop-color="#3D419A"/>
</radialGradient>
<radialGradient id="paint8_radial_287_14940" cx="0" cy="0" r="1" gradientUnits="userSpaceOnUse" gradientTransform="translate(-7.58609 2.78417) rotate(180) scale(68.887 69.1505)">
<stop stop-color="white"/>
<stop offset="0.5" stop-color="#26B3E8"/>
<stop offset="1" stop-color="#3D419A"/>
</radialGradient>
<radialGradient id="paint9_radial_287_14940" cx="0" cy="0" r="1" gradientUnits="userSpaceOnUse" gradientTransform="translate(13.6348 66.0968) rotate(180) scale(34.0591 34.1894)">
<stop stop-color="white"/>
<stop offset="0.5" stop-color="#26B3E8"/>
<stop offset="1" stop-color="#3D419A"/>
</radialGradient>
<radialGradient id="paint10_radial_287_14940" cx="0" cy="0" r="1" gradientUnits="userSpaceOnUse" gradientTransform="translate(7.93737 68.6598) rotate(180) scale(35.6904 35.827)">
<stop stop-color="white"/>
<stop offset="0.5" stop-color="#26B3E8"/>
<stop offset="1" stop-color="#3D419A"/>
</radialGradient>
<radialGradient id="paint11_radial_287_14940" cx="0" cy="0" r="1" gradientUnits="userSpaceOnUse" gradientTransform="translate(-8.95991 6.5307) rotate(-180) scale(57.3565 57.576)">
<stop stop-color="white"/>
<stop offset="0.5" stop-color="#26B3E8"/>
<stop offset="1" stop-color="#3D419A"/>
</radialGradient>
<clipPath id="clip0_287_14940">
<rect width="110" height="31" fill="white" transform="translate(62 14.1191)"/>
</clipPath>
<clipPath id="clip1_287_14940">
<rect width="48" height="47" fill="white" transform="translate(0 6)"/>
</clipPath>
</defs>
</svg>
