<svg width="80" height="81" viewBox="0 0 80 81" fill="none" xmlns="http://www.w3.org/2000/svg">
<path d="M14.5983 70.0878C22.2629 70.0878 28.4764 63.8727 28.4764 56.2059C28.4764 48.539 22.2629 42.3239 14.5983 42.3239C6.93364 42.3239 0.720215 48.539 0.720215 56.2059C0.720215 63.8727 6.93364 70.0878 14.5983 70.0878Z" fill="#E8EBEC"/>
<path d="M41.3633 24.2276C47.933 24.2276 53.2588 18.9003 53.2588 12.3288C53.2588 5.75723 47.933 0.429932 41.3633 0.429932C34.7936 0.429932 29.4678 5.75723 29.4678 12.3288C29.4678 18.9003 34.7936 24.2276 41.3633 24.2276Z" fill="#E8EBEC"/>
<path d="M59.4542 80.43C70.4037 80.43 79.2801 71.5511 79.2801 60.5985C79.2801 49.6459 70.4037 40.7671 59.4542 40.7671C48.5047 40.7671 39.6284 49.6459 39.6284 60.5985C39.6284 71.5511 48.5047 80.43 59.4542 80.43Z" fill="#E8EBEC"/>
<path d="M52.5646 59.4383C38.7163 53.0922 27.5544 41.9271 21.2101 28.0848C18.5733 22.3138 16.7791 16.0768 15.9662 9.53247H11.6243C9.35428 9.53247 7.5204 11.4363 7.66909 13.6971C9.72106 45.5166 35.118 70.9306 66.9285 72.9831C69.1986 73.1319 71.1018 71.2875 71.1018 69.0069V64.6738C64.5593 63.8607 58.334 62.0659 52.5646 59.4284V59.4383Z" fill="white"/>
<path d="M52.5646 59.4383C38.7163 53.0922 27.5544 41.9271 21.2101 28.0848C18.5733 22.3138 16.779 16.0768 15.9662 9.53247H11.6541C12.5264 16.5825 14.4594 23.3153 17.3143 29.5325C24.1543 44.4655 36.1885 56.5032 51.1174 63.3352C57.3328 66.181 64.0537 68.1145 71.1018 68.9871V64.6738C64.5592 63.8607 58.3339 62.0659 52.5646 59.4284V59.4383Z" fill="#BDC3D8"/>
<path d="M67.1862 73.7368C67.0871 73.7368 66.9781 73.7368 66.8789 73.7268C34.771 71.6545 8.99748 45.8637 6.92568 13.7467C6.84638 12.4675 7.28256 11.238 8.17472 10.2861C9.06688 9.33419 10.3258 8.78882 11.6244 8.78882H15.9662C16.3429 8.78882 16.6602 9.06646 16.6998 9.44326C17.4929 15.8191 19.2375 21.9866 21.8843 27.7675C28.1591 41.471 39.1624 52.4775 52.872 58.7541C58.6512 61.4016 64.8171 63.1468 71.1911 63.94C71.5678 63.9896 71.8453 64.3069 71.8453 64.6738V69.0069C71.8453 70.3158 71.3001 71.5751 70.3485 72.4676C69.4761 73.2906 68.3659 73.7268 67.1862 73.7268V73.7368ZM11.6244 10.2762C10.7322 10.2762 9.86982 10.653 9.25522 11.3074C8.65053 11.9519 8.35313 12.7849 8.4027 13.6574C10.4249 45.0308 35.6037 70.2167 66.9682 72.2494C67.8405 72.299 68.6732 72.0015 69.3175 71.3966C69.9718 70.7819 70.3485 69.9192 70.3485 69.0169V65.3382C64.0538 64.4953 57.9673 62.7402 52.2475 60.1126C38.2208 53.6872 26.9597 42.4229 20.5262 28.3922C17.9092 22.6708 16.1447 16.5826 15.3021 10.2762H11.6145H11.6244Z" fill="#21365F"/>
<path d="M24.8582 28.0849C26.8309 28.0849 28.0898 26.0125 27.2175 24.2376C25.3935 20.5093 23.9264 16.5826 22.8558 12.4874C22.3998 10.7522 20.8335 9.54248 19.0294 9.54248H15.9663C16.7792 16.0869 18.5734 22.3238 21.2102 28.0948H24.8582V28.0849Z" fill="white"/>
<path d="M27.2172 24.2376C25.3932 20.5093 23.9261 16.5826 22.8555 12.4874C22.3995 10.7522 20.8333 9.54248 19.0291 9.54248H18.7615C18.811 9.66147 18.8606 9.78045 18.8903 9.90936C20.1592 14.7482 21.9832 19.3689 24.2929 23.6823C24.729 24.5053 24.1541 25.5068 23.2223 25.5068H20.1096C20.4566 26.3794 20.8234 27.242 21.2199 28.0849H24.8678C26.8405 28.0849 28.0994 26.0125 27.2271 24.2376H27.2172Z" fill="#BDC3D8"/>
<path d="M24.858 28.8286H21.21C20.9225 28.8286 20.6549 28.66 20.536 28.3923C17.8198 22.4726 16.0355 16.1563 15.2226 9.63174C15.1929 9.42351 15.2623 9.20537 15.401 9.04672C15.5398 8.88807 15.748 8.79883 15.9562 8.79883H19.0193C21.1506 8.79883 23.0241 10.2366 23.5594 12.2991C24.6101 16.2951 26.0574 20.2019 27.8715 23.9104C28.3969 24.9912 28.3374 26.2306 27.703 27.242C27.0884 28.2336 26.0079 28.8286 24.8382 28.8286H24.858ZM21.6957 27.3412H24.858C25.5221 27.3412 26.107 27.014 26.4639 26.4587C26.8207 25.8836 26.8505 25.1796 26.5531 24.5747C24.6894 20.777 23.2025 16.7711 22.1319 12.6858C21.7651 11.2778 20.4864 10.2961 19.0292 10.2961H16.8186C17.6315 16.2158 19.277 21.957 21.6957 27.3511V27.3412Z" fill="#21365F"/>
<path d="M55.8754 60.8166C60.6931 62.7006 65.7982 64.0095 71.1016 64.6739V61.6198C71.1016 59.8152 69.8823 58.2386 68.1377 57.7824C64.0337 56.7016 60.0983 55.2242 56.3611 53.3997C54.6065 52.537 52.5645 53.836 52.5645 55.7894V59.4284C58.3338 62.066 64.5591 63.8608 71.1016 64.6739C65.7982 64.0095 60.6931 62.6907 55.8754 60.8067V60.8166Z" fill="white"/>
<path d="M68.128 57.7924C64.0241 56.7116 60.0886 55.2341 56.3515 53.4096C54.7951 52.6461 53.0207 53.5881 52.644 55.1647C52.8919 55.2044 53.1397 55.2738 53.3776 55.3928C57.4914 57.4156 61.8631 59.0021 66.4329 60.1027C67.4242 60.3407 68.128 61.2034 68.128 62.2148V64.2376C68.4254 64.2872 68.7327 64.3466 69.0301 64.3962C69.3176 64.4458 69.615 64.4756 69.9025 64.5251C70.299 64.5846 70.6954 64.6441 71.1019 64.6937V61.6397C71.1019 59.835 69.8826 58.2584 68.1379 57.8023L68.128 57.7924Z" fill="#BDC3D8"/>
<path d="M71.1017 65.4275C71.1017 65.4275 71.0422 65.4275 71.0125 65.4275C64.4898 64.6144 58.1752 62.8296 52.2572 60.1226C51.9896 60.0036 51.821 59.7359 51.821 59.4483V55.8092C51.821 54.6293 52.4158 53.5484 53.4269 52.9238C54.4182 52.309 55.6375 52.2396 56.6883 52.7552C60.4057 54.5797 64.3212 56.0373 68.3261 57.0884C70.3979 57.6337 71.8451 59.5078 71.8451 61.6397V64.6937C71.8451 64.9119 71.7559 65.1102 71.5973 65.249C71.4585 65.368 71.2801 65.4374 71.1017 65.4374V65.4275ZM55.9944 60.0829C56.044 60.0829 56.0936 60.1027 56.1431 60.1226C60.713 61.9074 65.491 63.1568 70.3582 63.831V61.6198C70.3582 60.1622 69.3669 58.8732 67.9494 58.5063C63.8553 57.4354 59.8505 55.9381 56.034 54.074C55.4393 53.7864 54.7751 53.8162 54.2101 54.1731C53.6451 54.5301 53.308 55.135 53.308 55.7993V58.9624C54.1902 59.3591 55.0923 59.7359 55.9944 60.0928V60.0829Z" fill="#21365F"/>
<path d="M41.3631 43.2459H59.2064L71.1018 51.1785V13.4988C71.1018 11.3074 69.3274 9.53247 67.1367 9.53247H41.3631C39.1724 9.53247 37.3979 11.3074 37.3979 13.4988V39.2796C37.3979 41.471 39.1724 43.2459 41.3631 43.2459Z" fill="#BDC3D8"/>
<path d="M40.3718 39.2796H59.246C59.8706 39.2796 60.4653 39.4779 60.9709 39.8349L66.3536 43.6822C66.6807 43.9202 67.1367 43.6822 67.1367 43.2757V12.5072C67.1367 10.8612 65.8083 9.53247 64.1628 9.53247H41.3631C39.1724 9.53247 37.3979 11.3074 37.3979 13.4988V36.3049C37.3979 37.9509 38.7263 39.2796 40.3718 39.2796Z" fill="white"/>
<path d="M71.1017 51.9222C70.953 51.9222 70.8142 51.8825 70.6853 51.7933L58.9782 43.9797H41.3629C38.7657 43.9797 36.6543 41.8677 36.6543 39.2698V13.4889C36.6543 10.891 38.7657 8.77893 41.3629 8.77893H67.1365C69.7337 8.77893 71.8451 10.891 71.8451 13.4889V51.1686C71.8451 51.4463 71.6965 51.6941 71.4486 51.8231C71.3396 51.8825 71.2206 51.9123 71.1017 51.9123V51.9222ZM41.3629 10.2762C39.5885 10.2762 38.1412 11.7239 38.1412 13.4988V39.2797C38.1412 41.0546 39.5885 42.5023 41.3629 42.5023H59.2062C59.3549 42.5023 59.4936 42.5419 59.6225 42.6312L70.3582 49.7903V13.4988C70.3582 11.7239 68.9109 10.2762 67.1365 10.2762H41.3629Z" fill="#21365F"/>
<path d="M64.2421 22.7502H57.8781V16.3843C57.8781 15.8786 57.4716 15.472 56.966 15.472H51.5139C51.0084 15.472 50.602 15.8786 50.602 16.3843V22.7502H44.2379C43.7323 22.7502 43.3259 23.1567 43.3259 23.6624V29.1161C43.3259 29.6218 43.7323 30.0283 44.2379 30.0283H50.602V36.3942C50.602 36.8999 51.0084 37.3065 51.5139 37.3065H56.966C57.4716 37.3065 57.8781 36.8999 57.8781 36.3942V30.0283H64.2421C64.7477 30.0283 65.1541 29.6218 65.1541 29.1161V23.6624C65.1541 23.1567 64.7477 22.7502 64.2421 22.7502Z" fill="#BDC3D8"/>
<path d="M62.4282 22.7502H57.8881V16.3843C57.8881 15.8786 57.4817 15.472 56.9761 15.472H51.524C51.0185 15.472 50.612 15.8786 50.612 16.3843V22.7502H44.248C43.7424 22.7502 43.3359 23.1567 43.3359 23.6624V29.1161C43.3359 29.6218 43.7424 30.0283 44.248 30.0283H50.612V34.5697H54.2501C54.7556 34.5697 55.162 34.1632 55.162 33.6575V29.1161C55.162 28.1146 55.9749 27.3015 56.9761 27.3015H61.5162C62.0218 27.3015 62.4282 26.8949 62.4282 26.3892V22.7502Z" fill="white"/>
<path d="M56.9759 38.0403H51.5238C50.6118 38.0403 49.8684 37.2966 49.8684 36.3843V30.7621H44.2478C43.3358 30.7621 42.5923 30.0184 42.5923 29.1062V23.6526C42.5923 22.7403 43.3358 21.9966 44.2478 21.9966H49.8684V16.3744C49.8684 15.4622 50.6118 14.7185 51.5238 14.7185H56.9759C57.8879 14.7185 58.6314 15.4622 58.6314 16.3744V21.9966H64.252C65.164 21.9966 65.9075 22.7403 65.9075 23.6526V29.1062C65.9075 30.0184 65.164 30.7621 64.252 30.7621H58.6314V36.3843C58.6314 37.2966 57.8879 38.0403 56.9759 38.0403ZM44.2576 23.4939C44.1684 23.4939 44.0891 23.5633 44.0891 23.6625V29.1161C44.0891 29.2054 44.1585 29.2847 44.2576 29.2847H50.6218C51.0282 29.2847 51.3652 29.6218 51.3652 30.0284V36.3943C51.3652 36.4835 51.4346 36.5628 51.5337 36.5628H56.9858C57.0751 36.5628 57.1544 36.4934 57.1544 36.3943V30.0284C57.1544 29.6218 57.4914 29.2847 57.8978 29.2847H64.262C64.3512 29.2847 64.4305 29.2054 64.4305 29.1161V23.6625C64.4305 23.5732 64.3611 23.4939 64.262 23.4939H57.8978C57.4914 23.4939 57.1544 23.1568 57.1544 22.7502V16.3843C57.1544 16.2951 57.085 16.2158 56.9858 16.2158H51.5337C51.4445 16.2158 51.3652 16.2951 51.3652 16.3843V22.7502C51.3652 23.1568 51.0282 23.4939 50.6218 23.4939H44.2576Z" fill="#21365F"/>
<path d="M24.8881 70.7621H23.5201C23.1137 70.7621 22.7766 70.425 22.7766 70.0185C22.7766 69.6119 23.1137 69.2748 23.5201 69.2748H24.8881C25.2945 69.2748 25.6315 69.6119 25.6315 70.0185C25.6315 70.425 25.2945 70.7621 24.8881 70.7621Z" fill="#21365F"/>
<path d="M29.4676 70.7621H28.0997C27.6932 70.7621 27.3562 70.425 27.3562 70.0185C27.3562 69.6119 27.6932 69.2748 28.0997 69.2748H29.4676C29.8741 69.2748 30.2111 69.6119 30.2111 70.0185C30.2111 70.425 29.8741 70.7621 29.4676 70.7621Z" fill="#21365F"/>
<path d="M26.4937 73.7368C26.0873 73.7368 25.7502 73.3997 25.7502 72.9932V71.6248C25.7502 71.2182 26.0873 70.8811 26.4937 70.8811C26.9001 70.8811 27.2372 71.2182 27.2372 71.6248V72.9932C27.2372 73.3997 26.9001 73.7368 26.4937 73.7368Z" fill="#21365F"/>
<path d="M26.4937 69.1558C26.0873 69.1558 25.7502 68.8186 25.7502 68.4121V67.0437C25.7502 66.6372 26.0873 66.3 26.4937 66.3C26.9001 66.3 27.2372 66.6372 27.2372 67.0437V68.4121C27.2372 68.8186 26.9001 69.1558 26.4937 69.1558Z" fill="#21365F"/>
<path d="M12.0009 50.9306H10.6329C10.2264 50.9306 9.8894 50.5935 9.8894 50.1869C9.8894 49.7804 10.2264 49.4432 10.6329 49.4432H12.0009C12.4073 49.4432 12.7443 49.7804 12.7443 50.1869C12.7443 50.5935 12.4073 50.9306 12.0009 50.9306Z" fill="#21365F"/>
<path d="M16.5809 50.9306H15.213C14.8065 50.9306 14.4695 50.5935 14.4695 50.1869C14.4695 49.7804 14.8065 49.4432 15.213 49.4432H16.5809C16.9873 49.4432 17.3244 49.7804 17.3244 50.1869C17.3244 50.5935 16.9873 50.9306 16.5809 50.9306Z" fill="#21365F"/>
<path d="M13.607 53.9054C13.2006 53.9054 12.8635 53.5683 12.8635 53.1617V51.7934C12.8635 51.3868 13.2006 51.0497 13.607 51.0497C14.0134 51.0497 14.3505 51.3868 14.3505 51.7934V53.1617C14.3505 53.5683 14.0134 53.9054 13.607 53.9054Z" fill="#21365F"/>
<path d="M13.607 49.3244C13.2006 49.3244 12.8635 48.9872 12.8635 48.5807V47.2123C12.8635 46.8058 13.2006 46.4686 13.607 46.4686C14.0134 46.4686 14.3505 46.8058 14.3505 47.2123V48.5807C14.3505 48.9872 14.0134 49.3244 13.607 49.3244Z" fill="#21365F"/>
<path d="M9.02723 62.8295H7.65924C7.25281 62.8295 6.91577 62.4924 6.91577 62.0858C6.91577 61.6793 7.25281 61.3422 7.65924 61.3422H9.02723C9.43366 61.3422 9.77069 61.6793 9.77069 62.0858C9.77069 62.4924 9.43366 62.8295 9.02723 62.8295Z" fill="#21365F"/>
<path d="M13.6068 62.8295H12.2388C11.8324 62.8295 11.4954 62.4924 11.4954 62.0858C11.4954 61.6793 11.8324 61.3422 12.2388 61.3422H13.6068C14.0132 61.3422 14.3503 61.6793 14.3503 62.0858C14.3503 62.4924 14.0132 62.8295 13.6068 62.8295Z" fill="#21365F"/>
<path d="M10.6329 65.8042C10.2264 65.8042 9.8894 65.4671 9.8894 65.0605V63.6922C9.8894 63.2856 10.2264 62.9485 10.6329 62.9485C11.0393 62.9485 11.3763 63.2856 11.3763 63.6922V65.0605C11.3763 65.4671 11.0393 65.8042 10.6329 65.8042Z" fill="#21365F"/>
<path d="M10.6329 61.2232C10.2264 61.2232 9.8894 60.886 9.8894 60.4795V59.1111C9.8894 58.7046 10.2264 58.3674 10.6329 58.3674C11.0393 58.3674 11.3763 58.7046 11.3763 59.1111V60.4795C11.3763 60.886 11.0393 61.2232 10.6329 61.2232Z" fill="#21365F"/>
</svg>
