<svg width="80" height="81" viewBox="0 0 80 81" fill="none" xmlns="http://www.w3.org/2000/svg">
<path d="M27.7666 80.9298C36.3113 80.9298 43.2382 74.001 43.2382 65.4538C43.2382 56.9066 36.3113 49.9778 27.7666 49.9778C19.2218 49.9778 12.2949 56.9066 12.2949 65.4538C12.2949 74.001 19.2218 80.9298 27.7666 80.9298Z" fill="#E8EBEC"/>
<path d="M13.9858 30.3785C21.3099 30.3785 27.2472 24.4395 27.2472 17.1133C27.2472 9.78716 21.3099 3.84814 13.9858 3.84814C6.6617 3.84814 0.724365 9.78716 0.724365 17.1133C0.724365 24.4395 6.6617 30.3785 13.9858 30.3785Z" fill="#E8EBEC"/>
<path d="M57.1734 47.2363C69.3802 47.2363 79.2757 37.3379 79.2757 25.1277C79.2757 12.9174 69.3802 3.01904 57.1734 3.01904C44.9666 3.01904 35.071 12.9174 35.071 25.1277C35.071 37.3379 44.9666 47.2363 57.1734 47.2363Z" fill="#E8EBEC"/>
<path d="M36.9731 60.3468C49.7902 60.3468 60.1806 49.9535 60.1806 37.1327C60.1806 24.312 49.7902 13.9187 36.9731 13.9187C24.156 13.9187 13.7656 24.312 13.7656 37.1327C13.7656 49.9535 24.156 60.3468 36.9731 60.3468Z" fill="white"/>
<path d="M51.4386 18.9927C54.6103 22.9612 56.5111 27.9909 56.5111 33.4628C56.5111 46.2857 46.123 56.6768 33.3036 56.6768C27.8333 56.6768 22.805 54.7644 18.8376 51.6029C23.0923 56.931 29.6236 60.3468 36.9726 60.3468C49.792 60.3468 60.1801 49.9558 60.1801 37.1328C60.1801 29.7927 56.7653 23.2486 51.4386 18.9927Z" fill="#BDC3D8"/>
<path d="M36.9728 61.1758C23.7225 61.1758 12.9365 50.3868 12.9365 37.1327C12.9365 23.8786 23.7225 13.0896 36.9728 13.0896C50.2232 13.0896 61.0091 23.8786 61.0091 37.1327C61.0091 50.3868 50.2232 61.1758 36.9728 61.1758ZM36.9728 14.7477C24.6287 14.7477 14.5942 24.7851 14.5942 37.1327C14.5942 49.4804 24.6287 59.5177 36.9728 59.5177C49.317 59.5177 59.3515 49.4804 59.3515 37.1327C59.3515 24.7851 49.317 14.7477 36.9728 14.7477Z" fill="#21365F"/>
<path d="M51.3385 32.302C51.3385 28.2561 47.8795 24.9619 43.6138 24.9619C40.7847 24.9619 38.3092 26.4211 36.972 28.5767C35.6238 26.41 33.1594 24.9619 30.3303 24.9619C26.0645 24.9619 22.6055 28.245 22.6055 32.302C22.6055 40.9464 36.972 49.2814 36.972 49.2814C36.972 49.2814 51.3385 40.9464 51.3385 32.302Z" fill="white"/>
<path d="M43.6144 24.9731C42.3104 24.9731 41.0947 25.2937 40.0228 25.8354C42.5093 27.4493 44.1448 30.1576 44.1448 33.2418C44.1448 38.7136 39.426 44.075 34.895 47.9772C36.1438 48.8173 36.9616 49.3037 36.9616 49.3037C36.9616 49.3037 51.3281 40.9687 51.3281 32.3243C51.3281 28.2784 47.8691 24.9842 43.6034 24.9842L43.6144 24.9731Z" fill="#BDC3D8"/>
<path d="M36.9725 50.1217C36.8288 50.1217 36.6851 50.0885 36.5525 50.0111C35.9447 49.6574 21.7771 41.3335 21.7771 32.3132C21.7771 27.8141 25.6119 24.144 30.3307 24.144C32.9167 24.144 35.37 25.2826 36.9725 27.184C38.5859 25.2826 41.0283 24.144 43.6142 24.144C48.3331 24.144 52.1678 27.803 52.1678 32.3132C52.1678 41.3335 37.9892 49.6684 37.3924 50.0111C37.2598 50.0885 37.1161 50.1217 36.9725 50.1217ZM30.3307 25.8022C26.5291 25.8022 23.4348 28.7205 23.4348 32.3132C23.4348 39.5759 34.6517 46.8938 36.9725 48.3309C39.2932 46.8938 50.5102 39.5869 50.5102 32.3132C50.5102 28.7205 47.4158 25.8022 43.6142 25.8022C41.183 25.8022 38.9064 27.0403 37.6687 29.0301C37.3703 29.5164 36.5636 29.5164 36.2652 29.0301C35.0274 27.0403 32.7509 25.8022 30.3197 25.8022H30.3307Z" fill="#21365F"/>
<path d="M68.3359 55.9362C68.0597 57.7491 66.833 59.2746 65.109 59.9379L51.2398 65.2439C48.4549 66.3051 45.3605 64.7465 44.5538 61.8834C43.9681 59.7831 45.1506 57.5833 47.2282 56.92L49.9689 56.0467C57.6826 54.4107 62.2468 51.5145 65.1201 51.4813C67.7724 51.4481 68.8443 53.7475 68.3249 55.9362H68.3359Z" fill="white"/>
<path d="M66.1034 51.6029C65.805 53.3826 64.5894 54.8749 62.8986 55.5161L49.0294 60.8221C47.438 61.4301 45.7471 61.1648 44.432 60.2915C44.3657 60.8111 44.3989 61.3527 44.5536 61.8833C45.3603 64.7575 48.4547 66.3161 51.2396 65.2439L65.1088 59.9378C66.8217 59.2856 68.0595 57.7601 68.3357 55.9361C68.7888 54.0459 68.0373 52.0671 66.1034 51.5918V51.6029Z" fill="#BDC3D8"/>
<path d="M49.4383 66.4158C48.5321 66.4158 47.6148 66.2057 46.786 65.7857C45.3051 65.045 44.2 63.7075 43.758 62.1157C43.0396 59.5732 44.4542 56.9422 46.9738 56.1353L49.7146 55.262C53.7703 54.3998 56.8978 53.2169 59.4175 52.2552C61.7493 51.3709 63.5948 50.6745 65.1088 50.6523C66.4902 50.6523 67.6064 51.1498 68.369 52.0894C69.1978 53.1175 69.4851 54.6208 69.1425 56.0911C68.8109 58.1803 67.3854 59.949 65.4072 60.7118L51.538 66.0178C50.8638 66.2831 50.1456 66.4047 49.4272 66.4047L49.4383 66.4158ZM65.1862 52.3215H65.142C63.9153 52.3326 62.1914 52.9848 60.0143 53.8139C57.4504 54.7866 54.2565 55.9916 50.1455 56.8649L47.4822 57.7161C45.8135 58.2467 44.8852 59.9822 45.3604 61.6624C45.6919 62.8231 46.4544 63.7627 47.5374 64.3044C48.6094 64.8461 49.8251 64.9013 50.9523 64.4702L64.8215 59.1642C66.2582 58.6114 67.2859 57.3291 67.518 55.8147C67.518 55.7926 67.518 55.7705 67.5291 55.7484C67.7611 54.7535 67.5953 53.7697 67.0759 53.1285C66.6449 52.5868 66.004 52.3215 65.1862 52.3215Z" fill="#21365F"/>
<path d="M71.3523 55.8698C69.2194 54.1011 63.307 59.5398 47.9348 62.4471C49.9572 61.6844 50.6866 60.5458 50.7529 59.4182C51.0955 54.3222 46.6861 54.5543 46.6861 54.5543C24.0201 54.8196 41.26 49.4362 10.4382 49.2925V69.1681C10.4382 69.1681 44.3764 80.6978 70.0704 60.9216C70.0704 60.9216 74.1372 58.2023 71.3413 55.8809L71.3523 55.8698Z" fill="white"/>
<path d="M71.3525 55.8699C70.9657 55.5493 70.4573 55.472 69.7832 55.5604C69.1533 56.7322 67.8714 57.5944 67.8714 57.5944C46.0785 74.3748 18.3621 68.6266 10.4495 66.4931V69.1572C10.4495 69.1572 44.3876 80.6868 70.0816 60.9107C70.0816 60.9107 74.1484 58.1913 71.3525 55.8699Z" fill="#BDC3D8"/>
<path d="M33.3696 73.2803C20.2629 73.2803 10.3611 70.0083 10.1732 69.942C9.84167 69.8314 9.60962 69.5108 9.60962 69.1571V49.2815C9.60962 49.0604 9.69803 48.8503 9.85275 48.6956C10.0075 48.5408 10.2174 48.4524 10.4385 48.4524C27.1368 48.5298 29.988 50.1769 32.5077 51.625C34.5632 52.8078 36.3424 53.8358 46.6642 53.7142C46.7195 53.7142 48.7971 53.6147 50.2448 55.096C51.2504 56.113 51.6925 57.5832 51.5599 59.4625C51.5267 59.9046 51.4162 60.4021 51.151 60.8995C57.417 59.4404 61.8485 57.6164 64.9428 56.3452C68.5124 54.8749 70.4684 54.068 71.8498 55.2176C72.966 56.1462 73.1539 57.1411 73.1207 57.8043C73.0102 59.8494 70.7668 61.408 70.5016 61.5849C58.5442 70.7931 44.7302 73.2583 33.3254 73.2583L33.3696 73.2803ZM11.2673 68.5491C15.7762 69.9088 46.3105 78.1553 69.5733 60.2584C70.0927 59.9046 71.452 58.7661 71.4962 57.738C71.4962 57.5832 71.5293 57.0969 70.8221 56.511C70.2032 56.0025 68.2803 56.7873 65.5949 57.8928C61.9038 59.4072 56.3339 61.6954 48.0787 63.2541C47.6588 63.3315 47.2388 63.0772 47.1283 62.6682C47.0178 62.2482 47.2278 61.817 47.6367 61.6623C49.0844 61.1096 49.858 60.3358 49.9243 59.3519C50.0127 57.9701 49.7364 56.931 49.0734 56.2678C48.1451 55.3282 46.7416 55.3834 46.7194 55.3834C35.9114 55.505 33.9554 54.3775 31.6788 53.0731C29.3802 51.7466 26.7721 50.2542 11.2562 50.1326V68.5602L11.2673 68.5491Z" fill="#21365F"/>
<path d="M40.2214 64.1826C37.4254 64.1826 34.1985 63.9395 30.5626 63.4641C30.1096 63.4089 29.7891 62.9888 29.8443 62.5356C29.8996 62.0823 30.3195 61.7618 30.7726 61.817C40.2214 63.0662 45.1833 62.414 47.6809 61.6402C48.123 61.5075 48.5871 61.7507 48.7197 62.1929C48.8523 62.624 48.6092 63.0883 48.1672 63.232C46.1006 63.8731 43.4372 64.1937 40.2103 64.1937L40.2214 64.1826Z" fill="#21365F"/>
<path d="M10.4498 49.2815H1.60889V69.1792H10.4498V49.2815Z" fill="#BDC3D8"/>
<path d="M1.60889 49.2815H8.23959V64.7575C8.23959 65.9735 7.24499 66.9684 6.02936 66.9684H1.60889V49.2815Z" fill="white"/>
<path d="M10.4498 70.0083H1.60887C1.15577 70.0083 0.780029 69.6324 0.780029 69.1792V49.2815C0.780029 48.8282 1.15577 48.4524 1.60887 48.4524H10.4498C10.9029 48.4524 11.2786 48.8282 11.2786 49.2815V69.1792C11.2786 69.6324 10.9029 70.0083 10.4498 70.0083ZM2.43771 68.3501H9.62097V50.1105H2.43771V68.3501Z" fill="#21365F"/>
<path d="M6.02895 65.863C6.63929 65.863 7.13406 65.368 7.13406 64.7575C7.13406 64.147 6.63929 63.6521 6.02895 63.6521C5.41861 63.6521 4.92383 64.147 4.92383 64.7575C4.92383 65.368 5.41861 65.863 6.02895 65.863Z" fill="#21365F"/>
<path d="M70.1923 50.1216C70.0929 50.1216 70.0044 50.0995 69.905 50.0664C69.474 49.9116 69.253 49.4363 69.4077 49.0051C70.8002 45.2025 71.4964 41.2119 71.4964 37.1328C71.4964 36.3701 71.4743 35.5963 71.419 34.8446C71.3858 34.3914 71.7395 33.9934 72.1926 33.9602C72.6457 33.9381 73.0435 34.2808 73.0767 34.734C73.1319 35.5299 73.154 36.3369 73.154 37.1328C73.154 41.4108 72.4136 45.6004 70.9549 49.58C70.8333 49.9116 70.5128 50.1216 70.1813 50.1216H70.1923Z" fill="#21365F"/>
<path d="M68.0704 21.093C67.772 21.093 67.4958 20.9382 67.3411 20.6619C61.285 9.50808 49.6481 2.58808 36.9724 2.58808C36.5193 2.58808 36.1436 2.21223 36.1436 1.759C36.1436 1.30578 36.5193 0.929932 36.9724 0.929932C50.2559 0.929932 62.4453 8.19262 68.7998 19.877C69.0208 20.275 68.8661 20.7835 68.4682 21.0045C68.3467 21.0709 68.203 21.104 68.0704 21.104V21.093Z" fill="#21365F"/>
<path d="M1.60887 37.9618C1.15577 37.9618 0.780029 37.586 0.780029 37.1327C0.780029 24.4645 7.54337 12.559 18.4177 6.04806C18.8045 5.81592 19.3239 5.93752 19.556 6.33547C19.7881 6.73343 19.6665 7.24192 19.2687 7.47406C8.8916 13.6866 2.43771 25.0504 2.43771 37.1438C2.43771 37.597 2.06197 37.9729 1.60887 37.9729V37.9618Z" fill="#21365F"/>
<path d="M65.5955 44.1965C65.5402 44.1965 65.4739 44.1965 65.4186 44.1744C64.9765 44.0749 64.6892 43.6327 64.7887 43.1905C65.2197 41.2118 65.4407 39.1668 65.4407 37.1217C65.4407 30.2681 62.9763 23.6465 58.4896 18.4842C58.1912 18.1415 58.2243 17.6109 58.5779 17.3124C58.9205 17.0139 59.451 17.0471 59.7493 17.3898C64.4903 22.8617 67.1095 29.8701 67.1095 37.1217C67.1095 39.2884 66.8774 41.4439 66.4243 43.5332C66.3359 43.9201 65.9932 44.1854 65.6175 44.1854L65.5955 44.1965Z" fill="#21365F"/>
<path d="M13.8866 19.9212C13.7098 19.9212 13.533 19.8659 13.3783 19.7443C13.0136 19.468 12.9583 18.9374 13.2346 18.5836C18.9923 11.2215 27.6343 7.00977 36.9614 7.00977C39.5585 7.00977 42.1224 7.3414 44.6089 7.99361C45.051 8.1152 45.3162 8.56843 45.2056 9.0106C45.0951 9.45277 44.631 9.71808 44.189 9.60753C41.8461 8.98849 39.4148 8.67897 36.9614 8.67897C28.1426 8.67897 19.9758 12.6696 14.5386 19.6227C14.3729 19.8328 14.1297 19.9433 13.8866 19.9433V19.9212Z" fill="#21365F"/>
<path d="M8.79187 45.9652C8.42718 45.9652 8.09564 45.7331 7.99618 45.3683C7.2447 42.7042 6.85791 39.9296 6.85791 37.1328C6.85791 35.1652 7.04579 33.1975 7.42153 31.2851C7.50994 30.8319 7.95199 30.5445 8.39404 30.6329C8.84714 30.7213 9.13446 31.1525 9.04605 31.6057C8.69242 33.4075 8.51559 35.2757 8.51559 37.1328C8.51559 39.7748 8.88028 42.3947 9.58755 44.9151C9.70911 45.3572 9.45495 45.8105 9.0129 45.9431C8.93554 45.9652 8.85817 45.9763 8.79187 45.9763V45.9652Z" fill="#21365F"/>
<path d="M72.3362 27.8913H67.9158C67.4627 27.8913 67.0869 27.5265 67.0869 27.0622C67.0869 26.5979 67.4627 26.2332 67.9158 26.2332H72.3362C72.7893 26.2332 73.1651 26.609 73.1651 27.0622C73.1651 27.5155 72.7893 27.8913 72.3362 27.8913Z" fill="#21365F"/>
<path d="M70.126 30.1023C69.6729 30.1023 69.2971 29.7375 69.2971 29.2733V24.8515C69.2971 24.3983 69.6729 24.0225 70.126 24.0225C70.5791 24.0225 70.9548 24.3983 70.9548 24.8515V29.2733C70.9548 29.7375 70.5791 30.1023 70.126 30.1023Z" fill="#21365F"/>
<path d="M54.6546 12.4155H50.2341C49.781 12.4155 49.4053 12.0396 49.4053 11.5864C49.4053 11.1332 49.781 10.7573 50.2341 10.7573H54.6546C55.1077 10.7573 55.4834 11.1332 55.4834 11.5864C55.4834 12.0396 55.1077 12.4155 54.6546 12.4155Z" fill="#21365F"/>
<path d="M52.4443 14.6263C51.9912 14.6263 51.6155 14.2504 51.6155 13.7972V9.37546C51.6155 8.92223 51.9912 8.54639 52.4443 8.54639C52.8974 8.54639 53.2732 8.92223 53.2732 9.37546V13.7972C53.2732 14.2504 52.8974 14.6263 52.4443 14.6263Z" fill="#21365F"/>
<path d="M29.1482 4.79901H24.7278C24.2747 4.79901 23.8989 4.42317 23.8989 3.96994C23.8989 3.51672 24.2747 3.14087 24.7278 3.14087H29.1482C29.6013 3.14087 29.9771 3.51672 29.9771 3.96994C29.9771 4.42317 29.6013 4.79901 29.1482 4.79901Z" fill="#21365F"/>
<path d="M26.9382 7.0098C26.4851 7.0098 26.1094 6.63395 26.1094 6.18072V1.759C26.1094 1.30578 26.4851 0.929932 26.9382 0.929932C27.3913 0.929932 27.7671 1.30578 27.7671 1.759V6.18072C27.7671 6.63395 27.3913 7.0098 26.9382 7.0098Z" fill="#21365F"/>
<path d="M12.5716 25.8022H8.1511C7.69801 25.8022 7.32227 25.4263 7.32227 24.9731C7.32227 24.5199 7.69801 24.144 8.1511 24.144H12.5716C13.0247 24.144 13.4004 24.5199 13.4004 24.9731C13.4004 25.4263 13.0247 25.8022 12.5716 25.8022Z" fill="#21365F"/>
<path d="M10.3616 28.013C9.90845 28.013 9.53271 27.6371 9.53271 27.1839V22.7622C9.53271 22.309 9.90845 21.9331 10.3616 21.9331C10.8147 21.9331 11.1904 22.309 11.1904 22.7622V27.1839C11.1904 27.6371 10.8147 28.013 10.3616 28.013Z" fill="#21365F"/>
</svg>
