<svg width="162" height="162" viewBox="0 0 162 162" fill="none" xmlns="http://www.w3.org/2000/svg">
<path d="M94.4828 42.3125C100.525 43.9342 106.035 47.1168 110.459 51.5408C114.883 55.9648 118.066 61.4745 119.687 67.5172" stroke="#FB3939" stroke-width="5" stroke-linecap="round" stroke-linejoin="round"/>
<path d="M90.7867 56.0728C94.421 57.038 97.7356 58.9468 100.394 61.6057C103.053 64.2646 104.962 67.5792 105.927 71.2134" stroke="#FB3939" stroke-width="5" stroke-linecap="round" stroke-linejoin="round"/>
<path d="M64.6914 80.0751C68.3573 87.6455 74.4788 93.7513 82.0586 97.3978C82.6177 97.6625 83.2361 97.7771 83.853 97.7303C84.4698 97.6834 85.0638 97.4768 85.5766 97.1306L96.7094 89.6939C97.2012 89.3603 97.7696 89.1567 98.3614 89.1022C98.9532 89.0477 99.5492 89.144 100.094 89.3822L120.934 98.333C121.647 98.6294 122.242 99.1518 122.628 99.8197C123.014 100.488 123.17 101.264 123.072 102.029C122.411 107.185 119.895 111.923 115.993 115.357C112.092 118.791 107.073 120.686 101.875 120.688C85.8128 120.688 70.4085 114.307 59.0508 102.949C47.6932 91.5916 41.3125 76.1873 41.3125 60.1251C41.3137 54.9274 43.2087 49.9083 46.643 46.0068C50.0773 42.1053 54.8155 39.5888 59.9711 38.9283C60.7363 38.83 61.5126 38.986 62.1805 39.3722C62.8484 39.7584 63.3707 40.3535 63.6672 41.0658L72.618 61.9509C72.8507 62.4868 72.9481 63.0718 72.9015 63.6542C72.8549 64.2366 72.6658 64.7987 72.3508 65.2908L64.9141 76.6017C64.583 77.1133 64.3887 77.7013 64.3497 78.3094C64.3107 78.9175 64.4284 79.5255 64.6914 80.0751V80.0751Z" stroke="#FB3939" stroke-width="5" stroke-linecap="round" stroke-linejoin="round"/>
<rect x="1" y="1" width="160" height="160" rx="80" stroke="#FB3939" stroke-dasharray="7 7"/>
</svg>
