<svg width="24" height="24" viewBox="0 0 24 24" fill="none" xmlns="http://www.w3.org/2000/svg">
<path d="M13.5 15.7498L14.625 15.7498C15.1223 15.7498 15.5992 15.5523 15.9508 15.2007C16.3025 14.849 16.5 14.3721 16.5 13.8748C16.5 13.3776 16.3025 12.9006 15.9508 12.549C15.5992 12.1974 15.1223 11.9998 14.625 11.9998L20.625 11.9998C21.1223 11.9998 21.5992 11.8023 21.9508 11.4507C22.3025 11.099 22.5 10.6221 22.5 10.1248C22.5 9.62755 22.3025 9.15064 21.9508 8.79901C21.5992 8.44738 21.1223 8.24984 20.625 8.24984L9.25312 8.24984L12.8156 6.19671C13.247 5.94807 13.562 5.53824 13.6912 5.05739C13.8204 4.57653 13.7533 4.06404 13.5047 3.63265C13.256 3.20126 12.8462 2.88631 12.3654 2.75708C11.8845 2.62786 11.372 2.69495 10.9406 2.94359C4.5 5.99984 2.25 7.85609 2.25 11.9998C2.25 12.9847 2.44399 13.96 2.8209 14.87C3.19781 15.7799 3.75026 16.6067 4.4467 17.3031C5.14314 17.9996 5.96993 18.552 6.87987 18.9289C7.78982 19.3058 8.76509 19.4998 9.75 19.4998L13.5 19.4998C13.9973 19.4998 14.4742 19.3023 14.8258 18.9507C15.1775 18.599 15.375 18.1221 15.375 17.6248C15.375 17.1276 15.1775 16.6506 14.8258 16.299C14.4742 15.9474 13.9973 15.7498 13.5 15.7498V15.7498Z" stroke="#3B3B3B" stroke-width="2" stroke-linecap="round" stroke-linejoin="round"/>
</svg>
