<svg width="65" height="64" viewBox="0 0 65 64" fill="none" xmlns="http://www.w3.org/2000/svg">
<path d="M53.7138 44.4849C59.7285 44.4849 64.6043 39.6076 64.6043 33.5912C64.6043 27.5749 59.7285 22.6976 53.7138 22.6976C47.6991 22.6976 42.8232 27.5749 42.8232 33.5912C42.8232 39.6076 47.6991 44.4849 53.7138 44.4849Z" fill="#8ACCFF"/>
<path d="M23.9588 64C29.1142 64 33.2935 59.8195 33.2935 54.6626C33.2935 49.5057 29.1142 45.3253 23.9588 45.3253C18.8033 45.3253 14.624 49.5057 14.624 54.6626C14.624 59.8195 18.8033 64 23.9588 64Z" fill="#8ACCFF"/>
<path d="M15.5579 31.1246C24.1503 31.1246 31.1158 24.1571 31.1158 15.5623C31.1158 6.96748 24.1503 0 15.5579 0C6.96551 0 0 6.96748 0 15.5623C0 24.1571 6.96551 31.1246 15.5579 31.1246Z" fill="#8ACCFF"/>
<path d="M8.40052 7.19757H49.629V11.0881C49.629 11.9441 48.9289 12.6444 48.0732 12.6444H6.84473V8.7538C6.84473 7.89787 7.54483 7.19757 8.40052 7.19757Z" fill="white"/>
<path d="M52.733 11.8663C52.5307 11.8663 52.3363 11.7807 52.1885 11.6407C52.0407 11.4928 51.9629 11.2905 51.9629 11.0882C51.9629 10.8859 52.0407 10.6758 52.1885 10.5358C52.4763 10.2478 52.9975 10.2478 53.2853 10.5358C53.4331 10.6758 53.5187 10.8781 53.5187 11.0882C53.5187 11.2983 53.4331 11.4928 53.2853 11.6329C53.1375 11.7807 52.943 11.8663 52.733 11.8663Z" fill="#21365F"/>
<path d="M47.2959 11.0804C47.2959 10.6525 47.6382 10.3101 48.0738 10.3101C48.5016 10.3101 48.8517 10.6525 48.8517 11.0804C48.8517 11.5162 48.5016 11.8664 48.0738 11.8664C47.6382 11.8664 47.2959 11.5162 47.2959 11.0804Z" fill="#21365F"/>
<path d="M43.398 11.8663C43.1958 11.8663 43.0013 11.7807 42.8535 11.6407C42.7057 11.4928 42.6279 11.2905 42.6279 11.0882C42.6279 10.8859 42.7057 10.6758 42.8535 10.5358C43.1414 10.2478 43.6625 10.2478 43.9504 10.5358C44.0982 10.6758 44.1837 10.8781 44.1837 11.0882C44.1837 11.2983 44.0982 11.4928 43.9504 11.6329C43.8026 11.7807 43.6081 11.8663 43.398 11.8663Z" fill="#21365F"/>
<path d="M56.6304 15.5623H6.84514C6.5262 15.5623 6.26172 15.2978 6.26172 14.9788V8.75383C6.26172 7.5711 7.21853 6.61401 8.40093 6.61401H55.0746C56.257 6.61401 57.2139 7.5711 57.2139 8.75383V14.9788C57.2139 15.2978 56.9494 15.5623 56.6304 15.5623ZM7.42856 14.3952H56.047V8.75383C56.047 8.21693 55.6114 7.78119 55.0746 7.78119H8.40093C7.86418 7.78119 7.42856 8.21693 7.42856 8.75383V14.3952Z" fill="#21365F"/>
<path d="M6.84473 14.9788H50.4069V51.5502C50.4069 53.2698 49.0144 54.6626 47.2953 54.6626H6.84473V14.9788Z" fill="white"/>
<path d="M55.0746 57.5805H8.40093C7.21853 57.5805 6.26172 56.6234 6.26172 55.4407V14.9787C6.26172 14.6597 6.5262 14.3951 6.84514 14.3951H56.6304C56.9494 14.3951 57.2139 14.6597 57.2139 14.9787V55.4407C57.2139 56.6234 56.257 57.5805 55.0746 57.5805ZM7.42856 15.5623V55.4407C7.42856 55.9776 7.86418 56.4133 8.40093 56.4133H55.0746C55.6114 56.4133 56.047 55.9776 56.047 55.4407V15.5623H7.42856Z" fill="#21365F"/>
<path d="M51.963 20.2311H46.9067C46.5877 20.2311 46.3232 19.9665 46.3232 19.6475C46.3232 19.3285 46.5877 19.0639 46.9067 19.0639H51.963C52.2819 19.0639 52.5464 19.3285 52.5464 19.6475C52.5464 19.9665 52.2819 20.2311 51.963 20.2311Z" fill="#21365F"/>
<path d="M43.7954 20.2311H39.517C39.1981 20.2311 38.9336 19.9665 38.9336 19.6475C38.9336 19.3285 39.1981 19.0639 39.517 19.0639H43.7954C44.1144 19.0639 44.3789 19.3285 44.3789 19.6475C44.3789 19.9665 44.1144 20.2311 43.7954 20.2311Z" fill="#21365F"/>
<path d="M51.9633 24.8997H39.517C39.1981 24.8997 38.9336 24.6352 38.9336 24.3161C38.9336 23.9971 39.1981 23.7325 39.517 23.7325H51.9633C52.2823 23.7325 52.5468 23.9971 52.5468 24.3161C52.5468 24.6352 52.2823 24.8997 51.9633 24.8997Z" fill="#21365F"/>
<path d="M51.9629 29.5684H48.4623C48.1434 29.5684 47.8789 29.3038 47.8789 28.9848C47.8789 28.6658 48.1434 28.4012 48.4623 28.4012H51.9629C52.2818 28.4012 52.5463 28.6658 52.5463 28.9848C52.5463 29.3038 52.2818 29.5684 51.9629 29.5684Z" fill="#21365F"/>
<path d="M45.3512 29.5684H39.517C39.1981 29.5684 38.9336 29.3038 38.9336 28.9848C38.9336 28.6658 39.1981 28.4012 39.517 28.4012H45.3512C45.6702 28.4012 45.9347 28.6658 45.9347 28.9848C45.9347 29.3038 45.6702 29.5684 45.3512 29.5684Z" fill="#21365F"/>
<path d="M51.9626 34.2371H46.1283C45.8094 34.2371 45.5449 33.9726 45.5449 33.6536C45.5449 33.3345 45.8094 33.07 46.1283 33.07H51.9626C52.2815 33.07 52.546 33.3345 52.546 33.6536C52.546 33.9726 52.2815 34.2371 51.9626 34.2371Z" fill="#21365F"/>
<path d="M43.0175 34.2371H39.517C39.1981 34.2371 38.9336 33.9726 38.9336 33.6536C38.9336 33.3345 39.1981 33.07 39.517 33.07H43.0175C43.3365 33.07 43.601 33.3345 43.601 33.6536C43.601 33.9726 43.3365 34.2371 43.0175 34.2371Z" fill="#21365F"/>
<path d="M48.0739 38.9058H39.517C39.1981 38.9058 38.9336 38.6413 38.9336 38.3222C38.9336 38.0032 39.1981 37.7386 39.517 37.7386H48.0739C48.3928 37.7386 48.6573 38.0032 48.6573 38.3222C48.6573 38.6413 48.3928 38.9058 48.0739 38.9058Z" fill="#21365F"/>
<path d="M16.1801 19.6474H28.6264C30.7734 19.6474 32.5159 21.3904 32.5159 23.538V38.3222C32.5159 39.6139 31.4735 40.6565 30.1822 40.6565H15.4022C13.2552 40.6565 11.5127 38.9136 11.5127 36.766V24.3161C11.5127 21.7406 13.6052 19.6474 16.1801 19.6474Z" fill="white"/>
<path d="M30.1816 43.5745H16.1795C13.2857 43.5745 10.9287 41.2168 10.9287 38.3223V24.3162C10.9287 21.4216 13.2857 19.0639 16.1795 19.0639H30.1816C33.0754 19.0639 35.4324 21.4216 35.4324 24.3162V38.3223C35.4324 41.2168 33.0754 43.5745 30.1816 43.5745ZM16.1795 20.2311C13.9236 20.2311 12.0956 22.0674 12.0956 24.3162V38.3223C12.0956 40.571 13.9236 42.4074 16.1795 42.4074H30.1816C32.4375 42.4074 34.2656 40.571 34.2656 38.3223V24.3162C34.2656 22.0674 32.4375 20.2311 30.1816 20.2311H16.1795Z" fill="#21365F"/>
<path d="M30.96 39.1003L39.4468 47.5896L36.2963 54.6627L30.96 39.1003Z" fill="white"/>
<path d="M36.2966 55.2462C36.2966 55.2462 36.2811 55.2462 36.2733 55.2462C36.0322 55.2384 35.8221 55.0828 35.7444 54.8494L30.408 39.2871C30.338 39.077 30.3924 38.8436 30.548 38.6879C30.7036 38.5323 30.9369 38.4778 31.147 38.5479L46.7049 43.8857C46.9305 43.9636 47.0861 44.1736 47.1016 44.4149C47.1094 44.6561 46.9771 44.8739 46.7593 44.9751L39.8906 48.0331L36.8334 54.9039C36.74 55.1139 36.53 55.254 36.2966 55.254V55.2462ZM31.8938 40.0418L36.3667 53.0753L38.9104 47.3561C38.9726 47.2238 39.0738 47.1227 39.206 47.0605L44.9235 44.516L31.8938 40.0418Z" fill="#21365F"/>
<path d="M29.2327 48.2432H19.9057C19.5868 48.2432 19.3223 47.9786 19.3223 47.6596C19.3223 47.3405 19.5868 47.076 19.9057 47.076H29.2327C29.5516 47.076 29.8161 47.3405 29.8161 47.6596C29.8161 47.9786 29.5516 48.2432 29.2327 48.2432Z" fill="#21365F"/>
<path d="M16.7863 48.2432H11.5121C11.1932 48.2432 10.9287 47.9786 10.9287 47.6596C10.9287 47.3405 11.1932 47.076 11.5121 47.076H16.7863C17.1052 47.076 17.3697 47.3405 17.3697 47.6596C17.3697 47.9786 17.1052 48.2432 16.7863 48.2432Z" fill="#21365F"/>
<path d="M30.8281 52.9119H25.5072C25.1883 52.9119 24.9238 52.6474 24.9238 52.3283C24.9238 52.0093 25.1883 51.7448 25.5072 51.7448H30.8281C31.147 51.7448 31.4115 52.0093 31.4115 52.3283C31.4115 52.6474 31.147 52.9119 30.8281 52.9119Z" fill="#21365F"/>
<path d="M22.3949 52.9119H11.5121C11.1932 52.9119 10.9287 52.6474 10.9287 52.3283C10.9287 52.0093 11.1932 51.7448 11.5121 51.7448H22.3949C22.7138 51.7448 22.9783 52.0093 22.9783 52.3283C22.9783 52.6474 22.7138 52.9119 22.3949 52.9119Z" fill="#21365F"/>
<path d="M62.0759 13.5548H58.9643C58.6453 13.5548 58.3809 13.2902 58.3809 12.9712C58.3809 12.6522 58.6453 12.3876 58.9643 12.3876H62.0759C62.3948 12.3876 62.6593 12.6522 62.6593 12.9712C62.6593 13.2902 62.3948 13.5548 62.0759 13.5548Z" fill="#21365F"/>
<path d="M60.5199 15.111C60.201 15.111 59.9365 14.8465 59.9365 14.5274V11.415C59.9365 11.0959 60.201 10.8314 60.5199 10.8314C60.8389 10.8314 61.1034 11.0959 61.1034 11.415V14.5274C61.1034 14.8465 60.8389 15.111 60.5199 15.111Z" fill="#21365F"/>
<path d="M60.5199 18.2234C60.8422 18.2234 61.1034 17.9622 61.1034 17.6399C61.1034 17.3176 60.8422 17.0563 60.5199 17.0563C60.1977 17.0563 59.9365 17.3176 59.9365 17.6399C59.9365 17.9622 60.1977 18.2234 60.5199 18.2234Z" fill="#21365F"/>
<path d="M60.5199 20.5578C60.8422 20.5578 61.1034 20.2965 61.1034 19.9742C61.1034 19.6519 60.8422 19.3907 60.5199 19.3907C60.1977 19.3907 59.9365 19.6519 59.9365 19.9742C59.9365 20.2965 60.1977 20.5578 60.5199 20.5578Z" fill="#21365F"/>
<path d="M60.5199 24.4485C60.8422 24.4485 61.1034 24.1872 61.1034 23.8649C61.1034 23.5426 60.8422 23.2813 60.5199 23.2813C60.1977 23.2813 59.9365 23.5426 59.9365 23.8649C59.9365 24.1872 60.1977 24.4485 60.5199 24.4485Z" fill="#21365F"/>
<path d="M60.5199 29.1171C60.8422 29.1171 61.1034 28.8558 61.1034 28.5335C61.1034 28.2112 60.8422 27.9499 60.5199 27.9499C60.1977 27.9499 59.9365 28.2112 59.9365 28.5335C59.9365 28.8558 60.1977 29.1171 60.5199 29.1171Z" fill="#21365F"/>
<path d="M4.51141 43.7068H1.39983C1.08089 43.7068 0.816406 43.4422 0.816406 43.1232C0.816406 42.8041 1.08089 42.5396 1.39983 42.5396H4.51141C4.83035 42.5396 5.09483 42.8041 5.09483 43.1232C5.09483 43.4422 4.83035 43.7068 4.51141 43.7068Z" fill="#21365F"/>
<path d="M2.95549 45.263C2.63655 45.263 2.37207 44.9984 2.37207 44.6794V41.5669C2.37207 41.2479 2.63655 40.9833 2.95549 40.9833C3.27443 40.9833 3.53891 41.2479 3.53891 41.5669V44.6794C3.53891 44.9984 3.27443 45.263 2.95549 45.263Z" fill="#21365F"/>
<path d="M2.95549 39.0381C3.27771 39.0381 3.53891 38.7768 3.53891 38.4545C3.53891 38.1322 3.27771 37.8709 2.95549 37.8709C2.63328 37.8709 2.37207 38.1322 2.37207 38.4545C2.37207 38.7768 2.63328 39.0381 2.95549 39.0381Z" fill="#21365F"/>
<path d="M2.95549 36.7037C3.27771 36.7037 3.53891 36.4424 3.53891 36.1201C3.53891 35.7978 3.27771 35.5365 2.95549 35.5365C2.63328 35.5365 2.37207 35.7978 2.37207 36.1201C2.37207 36.4424 2.63328 36.7037 2.95549 36.7037Z" fill="#21365F"/>
<path d="M2.95549 32.8132C3.27771 32.8132 3.53891 32.5519 3.53891 32.2296C3.53891 31.9073 3.27771 31.646 2.95549 31.646C2.63328 31.646 2.37207 31.9073 2.37207 32.2296C2.37207 32.5519 2.63328 32.8132 2.95549 32.8132Z" fill="#21365F"/>
<path d="M2.95549 28.1444C3.27771 28.1444 3.53891 27.8832 3.53891 27.5609C3.53891 27.2385 3.27771 26.9773 2.95549 26.9773C2.63328 26.9773 2.37207 27.2385 2.37207 27.5609C2.37207 27.8832 2.63328 28.1444 2.95549 28.1444Z" fill="#21365F"/>
<path d="M29.0155 28.728H25.7717V24.1916C25.7717 23.8337 25.4839 23.5458 25.1261 23.5458H21.2366C20.8788 23.5458 20.5909 23.8337 20.5909 24.1916V28.728H16.0558C15.698 28.728 15.4102 29.0159 15.4102 29.3739V33.2644C15.4102 33.6224 15.698 33.9103 16.0558 33.9103H20.5909V37.155H23.1813C23.5392 37.155 23.827 36.8671 23.827 36.5092V33.2644C23.827 32.5486 24.4104 31.965 25.1261 31.965H28.3699C28.7277 31.965 29.0155 31.6771 29.0155 31.3191V28.728Z" fill="white"/>
<path d="M25.1255 39.6839H21.236C20.5593 39.6839 20.007 39.1314 20.007 38.4545V34.5016H16.0553C15.3785 34.5016 14.8262 33.9492 14.8262 33.2722V29.3817C14.8262 28.7047 15.3785 28.1522 16.0553 28.1522H20.007V24.1994C20.007 23.5224 20.5593 22.97 21.236 22.97H25.1255C25.8023 22.97 26.3546 23.5224 26.3546 24.1994V28.1522H30.3063C30.9831 28.1522 31.5353 28.7047 31.5353 29.3817V33.2722C31.5353 33.9492 30.9831 34.5016 30.3063 34.5016H26.3546V38.4545C26.3546 39.1314 25.8023 39.6839 25.1255 39.6839ZM16.0475 29.3116C16.0475 29.3116 15.9852 29.3427 15.9852 29.3739V33.2644C15.9852 33.2644 16.0164 33.3267 16.0475 33.3267H20.5826C20.9015 33.3267 21.166 33.5912 21.166 33.9103V38.4467C21.166 38.4467 21.1971 38.5089 21.2283 38.5089H25.1177C25.1177 38.5089 25.18 38.4778 25.18 38.4467V33.9103C25.18 33.5912 25.4444 33.3267 25.7634 33.3267H30.2985C30.2985 33.3267 30.3608 33.2956 30.3608 33.2644V29.3739C30.3608 29.3739 30.3296 29.3116 30.2985 29.3116H25.7634C25.4444 29.3116 25.18 29.047 25.18 28.728V24.1916C25.18 24.1916 25.1489 24.1294 25.1177 24.1294H21.2283C21.2283 24.1294 21.166 24.1605 21.166 24.1916V28.728C21.166 29.047 20.9015 29.3116 20.5826 29.3116H16.0475Z" fill="#21365F"/>
</svg>
