<svg width="80" height="80" viewBox="0 0 80 80" fill="none" xmlns="http://www.w3.org/2000/svg">
<path d="M20.0717 58.5619C26.0915 58.5619 30.9715 53.6805 30.9715 47.659C30.9715 41.6375 26.0915 36.7561 20.0717 36.7561C14.0519 36.7561 9.17188 41.6375 9.17188 47.659C9.17188 53.6805 14.0519 58.5619 20.0717 58.5619Z" fill="#B0DDFF"/>
<path d="M46.1464 69.4105C51.3062 69.4105 55.4891 65.2265 55.4891 60.0652C55.4891 54.9039 51.3062 50.7198 46.1464 50.7198C40.9866 50.7198 36.8037 54.9039 36.8037 60.0652C36.8037 65.2265 40.9866 69.4105 46.1464 69.4105Z" fill="#B0DDFF"/>
<path d="M55.3007 41.4757C63.9004 41.4757 70.8718 34.5023 70.8718 25.9002C70.8718 17.298 63.9004 10.3246 55.3007 10.3246C46.7009 10.3246 39.7295 17.298 39.7295 25.9002C39.7295 34.5023 46.7009 41.4757 55.3007 41.4757Z" fill="#B0DDFF"/>
<path d="M20.0708 25.6587H60.5558C63.1328 25.6587 65.2271 27.7536 65.2271 30.3314V52.916C65.2271 54.2087 64.1839 55.2523 62.8915 55.2523H17.7351C16.4427 55.2523 15.3994 54.2087 15.3994 52.916V30.3314C15.3994 27.7536 17.4937 25.6587 20.0708 25.6587Z" fill="#BDC3D8"/>
<path d="M20.0708 25.6587H58.2201C60.7972 25.6587 62.8915 27.7536 62.8915 30.3314V51.3584C62.8915 52.215 62.1908 52.916 61.3344 52.916H17.7351C16.4427 52.916 15.3994 51.8724 15.3994 50.5796V30.3314C15.3994 27.7536 17.4937 25.6587 20.0708 25.6587Z" fill="white"/>
<path d="M62.8914 55.8365H17.735C16.1234 55.8365 14.8154 54.5281 14.8154 52.9161V30.3315C14.8154 27.4344 17.1744 25.0747 20.0707 25.0747H60.5557C63.452 25.0747 65.811 27.4344 65.811 30.3315V52.9161C65.811 54.5281 64.503 55.8365 62.8914 55.8365ZM20.0707 26.2429C17.8207 26.2429 15.9833 28.0808 15.9833 30.3315V52.9161C15.9833 53.8817 16.7696 54.6683 17.735 54.6683H62.8914C63.8568 54.6683 64.6432 53.8817 64.6432 52.9161V30.3315C64.6432 28.0808 62.8058 26.2429 60.5557 26.2429H20.0707Z" fill="#21365F"/>
<path d="M51.9914 30.3313H65.2269V42.7918H53.5486C52.2562 42.7918 51.2129 41.7482 51.2129 40.4554V31.1101C51.2129 30.6817 51.5632 30.3313 51.9914 30.3313Z" fill="#BDC3D8"/>
<path d="M51.9914 30.3313H65.2269V40.4554H53.5486C52.2562 40.4554 51.2129 39.4119 51.2129 38.1191V31.1101C51.2129 30.6817 51.5632 30.3313 51.9914 30.3313Z" fill="white"/>
<path d="M65.2269 43.3757H53.5485C51.9369 43.3757 50.6289 42.0674 50.6289 40.4553V31.1099C50.6289 30.3623 51.244 29.7471 51.9914 29.7471H65.2269C65.5461 29.7471 65.8108 30.0119 65.8108 30.3312V42.7916C65.8108 43.1109 65.5461 43.3757 65.2269 43.3757ZM51.9914 30.9152C51.8824 30.9152 51.7967 31.0009 51.7967 31.1099V40.4553C51.7967 41.421 52.5831 42.2075 53.5485 42.2075H64.643V30.9152H51.9914Z" fill="#21365F"/>
<path d="M56.6633 30.3313H65.2275V42.7918H58.2204C56.928 42.7918 55.8848 41.7482 55.8848 40.4554V31.1101C55.8848 30.6817 56.2351 30.3313 56.6633 30.3313Z" fill="#BDC3D8"/>
<path d="M56.6633 30.3313H62.1132V39.6766C62.1132 40.105 61.7629 40.4554 61.3347 40.4554H58.2204C56.928 40.4554 55.8848 39.4119 55.8848 38.1191V31.1101C55.8848 30.6817 56.2351 30.3313 56.6633 30.3313Z" fill="white"/>
<path d="M65.2264 43.3757H58.2194C56.6078 43.3757 55.2998 42.0674 55.2998 40.4553V31.1099C55.2998 30.3623 55.9149 29.7471 56.6623 29.7471H65.2264C65.5456 29.7471 65.8103 30.0119 65.8103 30.3312V42.7916C65.8103 43.1109 65.5456 43.3757 65.2264 43.3757ZM56.6623 30.9152C56.5533 30.9152 56.4676 31.0009 56.4676 31.1099V40.4553C56.4676 41.421 57.254 42.2075 58.2194 42.2075H64.6425V30.9152H56.6623Z" fill="#21365F"/>
<path d="M58.999 46.6859L61.3347 51.3586H65.2275V46.6859H58.999Z" fill="#BDC3D8"/>
<path d="M58.999 46.6859L60.5561 49.801H62.1133C62.5415 49.801 62.8918 49.4506 62.8918 49.0222V46.6859H58.999Z" fill="white"/>
<path d="M65.2272 51.9425H61.3344C61.1164 51.9425 60.914 51.8179 60.8128 51.6232L58.4771 46.9506C58.3837 46.7714 58.3992 46.5534 58.5004 46.3821C58.6094 46.2107 58.7963 46.1017 58.9987 46.1017H65.2272C65.5464 46.1017 65.8111 46.3665 65.8111 46.6858V51.3584C65.8111 51.6777 65.5464 51.9425 65.2272 51.9425ZM61.6925 50.7744H64.6432V47.2699H59.9408L61.6925 50.7744Z" fill="#21365F"/>
<path d="M20.0708 46.6859H15.3994V51.3586H20.0708V46.6859Z" fill="#BDC3D8"/>
<path d="M15.3994 46.6859V49.801H17.7351C18.1633 49.801 18.5136 49.4506 18.5136 49.0222V46.6859H15.3994Z" fill="white"/>
<path d="M20.0707 51.9425H15.3993C15.0801 51.9425 14.8154 51.6777 14.8154 51.3584V46.6858C14.8154 46.53 14.8777 46.382 14.9867 46.273C15.0957 46.164 15.2436 46.1017 15.3993 46.1017H20.0707C20.3899 46.1017 20.6546 46.3665 20.6546 46.6858V51.3584C20.6546 51.6777 20.3899 51.9425 20.0707 51.9425ZM15.9833 50.7744H19.4868V47.2699H15.9833V50.7744Z" fill="#21365F"/>
<path d="M55.2529 25.6586H45.9102L47.2337 22.014C47.4595 21.3987 48.0434 20.986 48.6974 20.986H52.4578C53.1118 20.986 53.6957 21.3987 53.9215 22.014L55.2451 25.6586H55.2529Z" fill="#BDC3D8"/>
<path d="M52.9172 25.6586H45.9102L47.2337 22.014C47.4595 21.3987 48.0434 20.986 48.6974 20.986H50.1222C50.7761 20.986 51.3601 21.3987 51.5859 22.014L52.9094 25.6586H52.9172Z" fill="white"/>
<path d="M55.2537 26.2428H45.911C45.7163 26.2428 45.5451 26.1494 45.4361 25.9936C45.3271 25.8378 45.3037 25.6354 45.366 25.4562L46.6895 21.8116C46.9932 20.9705 47.8029 20.402 48.6982 20.402H52.4587C53.354 20.402 54.1637 20.9705 54.4751 21.8116L55.7987 25.4562C55.861 25.6354 55.8376 25.8378 55.7286 25.9936C55.6196 26.1494 55.4405 26.2428 55.2537 26.2428ZM46.744 25.0747H54.4206L53.3774 22.2088C53.2372 21.8271 52.8713 21.5701 52.4665 21.5701H48.706C48.3012 21.5701 47.9275 21.8271 47.7951 22.2088L46.7518 25.0747H46.744Z" fill="#21365F"/>
<path d="M50.582 19.2338C50.2628 19.2338 49.998 18.969 49.998 18.6497V13.1982C49.998 12.8789 50.2628 12.6141 50.582 12.6141C50.9012 12.6141 51.1659 12.8789 51.1659 13.1982V18.6497C51.1659 18.969 50.9012 19.2338 50.582 19.2338Z" fill="#21365F"/>
<path d="M56.2119 21.165C56.0639 21.165 55.916 21.1105 55.7992 20.9936C55.5734 20.7678 55.5734 20.394 55.7992 20.1681L59.692 16.2742C59.9178 16.0484 60.2915 16.0484 60.5173 16.2742C60.7431 16.5001 60.7431 16.8739 60.5173 17.0997L56.6245 20.9936C56.5077 21.1105 56.3598 21.165 56.2119 21.165Z" fill="#21365F"/>
<path d="M44.9611 21.165C44.8132 21.165 44.6652 21.1105 44.5485 20.9936L40.6557 17.0997C40.4299 16.8739 40.4299 16.5001 40.6557 16.2742C40.8814 16.0484 41.2552 16.0484 41.4809 16.2742L45.3737 20.1681C45.5995 20.394 45.5995 20.7678 45.3737 20.9936C45.2569 21.1105 45.109 21.165 44.9611 21.165Z" fill="#21365F"/>
<path d="M65.2278 63.6241H46.6904C46.3712 63.6241 46.1064 63.3593 46.1064 63.04C46.1064 62.7207 46.3712 62.4559 46.6904 62.4559H65.2278C65.5471 62.4559 65.8118 62.7207 65.8118 63.04C65.8118 63.3593 65.5471 63.6241 65.2278 63.6241Z" fill="#21365F"/>
<path d="M42.7971 63.6241H27.623C27.3038 63.6241 27.0391 63.3593 27.0391 63.04C27.0391 62.7207 27.3038 62.4559 27.623 62.4559H42.7971C43.1163 62.4559 43.381 62.7207 43.381 63.04C43.381 63.3593 43.1163 63.6241 42.7971 63.6241Z" fill="#21365F"/>
<path d="M23.7383 63.6241H20.079C19.7598 63.6241 19.4951 63.3593 19.4951 63.04C19.4951 62.7207 19.7598 62.4559 20.079 62.4559H23.7383C24.0575 62.4559 24.3222 62.7207 24.3222 63.04C24.3222 63.3593 24.0575 63.6241 23.7383 63.6241Z" fill="#21365F"/>
<path d="M30.9706 55.2523C30.9706 57.83 28.8763 59.9249 26.2993 59.9249C23.7223 59.9249 21.6279 57.83 21.6279 55.2523C21.6279 52.6745 23.7223 50.5796 26.2993 50.5796C28.8763 50.5796 30.9706 52.6745 30.9706 55.2523Z" fill="white"/>
<path d="M28.7288 51.265C29.157 51.9737 29.4139 52.7992 29.4139 53.6948C29.4139 56.2726 27.3196 58.3675 24.7426 58.3675C23.855 58.3675 23.022 58.1105 22.3135 57.6821C23.131 59.0294 24.6102 59.925 26.2997 59.925C28.8767 59.925 30.971 57.8301 30.971 55.2524C30.971 53.5624 30.0679 52.0905 28.7288 51.265Z" fill="#BDC3D8"/>
<path d="M26.2992 60.5091C23.403 60.5091 21.0439 58.1494 21.0439 55.2524C21.0439 52.3553 23.403 49.9956 26.2992 49.9956C29.1955 49.9956 31.5545 52.3553 31.5545 55.2524C31.5545 58.1494 29.1955 60.5091 26.2992 60.5091ZM26.2992 51.1638C24.0492 51.1638 22.2118 53.0017 22.2118 55.2524C22.2118 57.503 24.0492 59.341 26.2992 59.341C28.5493 59.341 30.3866 57.503 30.3866 55.2524C30.3866 53.0017 28.5493 51.1638 26.2992 51.1638Z" fill="#21365F"/>
<path d="M26.2993 56.8099C27.1593 56.8099 27.8564 56.1126 27.8564 55.2524C27.8564 54.3922 27.1593 53.6948 26.2993 53.6948C25.4393 53.6948 24.7422 54.3922 24.7422 55.2524C24.7422 56.1126 25.4393 56.8099 26.2993 56.8099Z" fill="white"/>
<path d="M26.2992 57.394C25.1158 57.394 24.1582 56.4361 24.1582 55.2524C24.1582 54.0686 25.1158 53.1107 26.2992 53.1107C27.4826 53.1107 28.4403 54.0686 28.4403 55.2524C28.4403 56.4361 27.4826 57.394 26.2992 57.394ZM26.2992 54.2789C25.762 54.2789 25.326 54.715 25.326 55.2524C25.326 55.7897 25.762 56.2258 26.2992 56.2258C26.8364 56.2258 27.2724 55.7897 27.2724 55.2524C27.2724 54.715 26.8364 54.2789 26.2992 54.2789Z" fill="#21365F"/>
<path d="M58.999 55.2523C58.999 57.83 56.9046 59.9249 54.3276 59.9249C51.7506 59.9249 49.6562 57.83 49.6562 55.2523C49.6562 52.6745 51.7506 50.5796 54.3276 50.5796C56.9046 50.5796 58.999 52.6745 58.999 55.2523Z" fill="white"/>
<path d="M56.7571 51.265C57.1931 51.9737 57.4422 52.7992 57.4422 53.6948C57.4422 56.2726 55.3479 58.3675 52.7709 58.3675C51.8833 58.3675 51.0503 58.1105 50.3418 57.6821C51.1593 59.0294 52.6385 59.925 54.328 59.925C56.905 59.925 58.9994 57.8301 58.9994 55.2524C58.9994 53.5624 58.0962 52.0905 56.7571 51.265Z" fill="#BDC3D8"/>
<path d="M54.3266 60.5091C51.4303 60.5091 49.0713 58.1494 49.0713 55.2524C49.0713 52.3553 51.4303 49.9956 54.3266 49.9956C57.2228 49.9956 59.5818 52.3553 59.5818 55.2524C59.5818 58.1494 57.2228 60.5091 54.3266 60.5091ZM54.3266 51.1638C52.0765 51.1638 50.2391 53.0017 50.2391 55.2524C50.2391 57.503 52.0765 59.341 54.3266 59.341C56.5766 59.341 58.414 57.503 58.414 55.2524C58.414 53.0017 56.5766 51.1638 54.3266 51.1638Z" fill="#21365F"/>
<path d="M54.3276 56.8099C55.1876 56.8099 55.8847 56.1126 55.8847 55.2524C55.8847 54.3922 55.1876 53.6948 54.3276 53.6948C53.4677 53.6948 52.7705 54.3922 52.7705 55.2524C52.7705 56.1126 53.4677 56.8099 54.3276 56.8099Z" fill="white"/>
<path d="M54.3276 57.394C53.1442 57.394 52.1865 56.4361 52.1865 55.2524C52.1865 54.0686 53.1442 53.1107 54.3276 53.1107C55.511 53.1107 56.4686 54.0686 56.4686 55.2524C56.4686 56.4361 55.511 57.394 54.3276 57.394ZM54.3276 54.2789C53.7904 54.2789 53.3544 54.715 53.3544 55.2524C53.3544 55.7897 53.7904 56.2258 54.3276 56.2258C54.8648 56.2258 55.3008 55.7897 55.3008 55.2524C55.3008 54.715 54.8648 54.2789 54.3276 54.2789Z" fill="#21365F"/>
<path d="M34.8635 30.3313H45.7633C46.1915 30.3313 46.5419 30.6817 46.5419 31.1101V55.2522H34.085V31.1101C34.085 30.6817 34.4353 30.3313 34.8635 30.3313Z" fill="#BDC3D8"/>
<path d="M34.8635 30.3313H44.9848V52.9159C44.9848 53.3442 44.6344 53.6947 44.2062 53.6947H34.085V31.1101C34.085 30.6817 34.4353 30.3313 34.8635 30.3313Z" fill="white"/>
<path d="M46.5409 55.8362H34.0839C33.7647 55.8362 33.5 55.5714 33.5 55.2521V31.1099C33.5 30.3623 34.1151 29.7471 34.8625 29.7471H45.7623C46.5097 29.7471 47.1248 30.3623 47.1248 31.1099V55.2521C47.1248 55.5714 46.8601 55.8362 46.5409 55.8362ZM34.6678 54.668H45.9569V31.1099C45.9569 31.0009 45.8713 30.9152 45.7623 30.9152H34.8625C34.7535 30.9152 34.6678 31.0009 34.6678 31.1099V54.668Z" fill="#21365F"/>
<path d="M42.6491 33.4467H37.9778C37.5478 33.4467 37.1992 33.7953 37.1992 34.2254V38.8981C37.1992 39.3282 37.5478 39.6769 37.9778 39.6769H42.6491C43.0791 39.6769 43.4277 39.3282 43.4277 38.8981V34.2254C43.4277 33.7953 43.0791 33.4467 42.6491 33.4467Z" fill="#BDC3D8"/>
<path d="M41.092 33.4467H37.9778C37.5478 33.4467 37.1992 33.7953 37.1992 34.2254V37.3406C37.1992 37.7707 37.5478 38.1193 37.9778 38.1193H41.092C41.522 38.1193 41.8706 37.7707 41.8706 37.3406V34.2254C41.8706 33.7953 41.522 33.4467 41.092 33.4467Z" fill="white"/>
<path d="M42.6491 40.2609H37.9777C37.2303 40.2609 36.6152 39.6457 36.6152 38.8981V34.2254C36.6152 33.4778 37.2303 32.8625 37.9777 32.8625H42.6491C43.3965 32.8625 44.0115 33.4778 44.0115 34.2254V38.8981C44.0115 39.6457 43.3965 40.2609 42.6491 40.2609ZM37.9777 34.0307C37.8687 34.0307 37.7831 34.1164 37.7831 34.2254V38.8981C37.7831 39.0071 37.8687 39.0928 37.9777 39.0928H42.6491C42.7581 39.0928 42.8437 39.0071 42.8437 38.8981V34.2254C42.8437 34.1164 42.7581 34.0307 42.6491 34.0307H37.9777Z" fill="#21365F"/>
<path d="M39.5348 43.3761H37.1992C36.8799 43.3761 36.6152 43.1113 36.6152 42.792C36.6152 42.4727 36.8799 42.2079 37.1992 42.2079H39.5348C39.854 42.2079 40.1187 42.4727 40.1187 42.792C40.1187 43.1113 39.854 43.3761 39.5348 43.3761Z" fill="#21365F"/>
<path d="M16.9565 20.9861C17.8165 20.9861 18.5136 20.2887 18.5136 19.4285C18.5136 18.5683 17.8165 17.871 16.9565 17.871C16.0966 17.871 15.3994 18.5683 15.3994 19.4285C15.3994 20.2887 16.0966 20.9861 16.9565 20.9861Z" fill="white"/>
<path d="M16.9565 21.5701C15.7731 21.5701 14.8154 20.6123 14.8154 19.4285C14.8154 18.2448 15.7731 17.2869 16.9565 17.2869C18.1399 17.2869 19.0975 18.2448 19.0975 19.4285C19.0975 20.6123 18.1399 21.5701 16.9565 21.5701ZM16.9565 18.455C16.4193 18.455 15.9833 18.8911 15.9833 19.4285C15.9833 19.9659 16.4193 20.402 16.9565 20.402C17.4937 20.402 17.9297 19.9659 17.9297 19.4285C17.9297 18.8911 17.4937 18.455 16.9565 18.455Z" fill="#21365F"/>
<path d="M24.7427 16.3135C25.6026 16.3135 26.2998 15.6161 26.2998 14.7559C26.2998 13.8957 25.6026 13.1984 24.7427 13.1984C23.8827 13.1984 23.1855 13.8957 23.1855 14.7559C23.1855 15.6161 23.8827 16.3135 24.7427 16.3135Z" fill="white"/>
<path d="M24.7416 16.8974C23.5582 16.8974 22.6006 15.9395 22.6006 14.7558C22.6006 13.572 23.5582 12.6141 24.7416 12.6141C25.925 12.6141 26.8827 13.572 26.8827 14.7558C26.8827 15.9395 25.925 16.8974 24.7416 16.8974ZM24.7416 13.7823C24.2044 13.7823 23.7684 14.2184 23.7684 14.7558C23.7684 15.2931 24.2044 15.7293 24.7416 15.7293C25.2788 15.7293 25.7148 15.2931 25.7148 14.7558C25.7148 14.2184 25.2788 13.7823 24.7416 13.7823Z" fill="#21365F"/>
<path d="M34.0932 21.7649C34.9532 21.7649 35.6504 21.0676 35.6504 20.2073C35.6504 19.3471 34.9532 18.6498 34.0932 18.6498C33.2333 18.6498 32.5361 19.3471 32.5361 20.2073C32.5361 21.0676 33.2333 21.7649 34.0932 21.7649Z" fill="white"/>
<path d="M34.0922 22.3488C32.9088 22.3488 31.9512 21.3909 31.9512 20.2072C31.9512 19.0234 32.9088 18.0656 34.0922 18.0656C35.2756 18.0656 36.2332 19.0234 36.2332 20.2072C36.2332 21.3909 35.2756 22.3488 34.0922 22.3488ZM34.0922 19.2337C33.555 19.2337 33.119 19.6698 33.119 20.2072C33.119 20.7446 33.555 21.1807 34.0922 21.1807C34.6294 21.1807 35.0654 20.7446 35.0654 20.2072C35.0654 19.6698 34.6294 19.2337 34.0922 19.2337Z" fill="#21365F"/>
<path d="M24.7419 41.2342C27.7518 41.2342 30.1918 38.7935 30.1918 35.7828C30.1918 32.772 27.7518 30.3313 24.7419 30.3313C21.732 30.3313 19.292 32.772 19.292 35.7828C19.292 38.7935 21.732 41.2342 24.7419 41.2342Z" fill="white"/>
<path d="M27.7386 31.2269C28.3069 32.0836 28.6339 33.1116 28.6339 34.2252C28.6339 37.2391 26.197 39.6767 23.184 39.6767C22.0784 39.6767 21.0508 39.3418 20.1943 38.7811C21.1675 40.2608 22.8414 41.2342 24.7489 41.2342C27.7619 41.2342 30.1988 38.7967 30.1988 35.7828C30.1988 33.8826 29.2178 32.2082 27.7464 31.2269H27.7386Z" fill="#BDC3D8"/>
<path d="M24.7428 41.8181C21.4184 41.8181 18.709 39.108 18.709 35.7826C18.709 32.4572 21.4184 29.7471 24.7428 29.7471C28.0673 29.7471 30.7766 32.4572 30.7766 35.7826C30.7766 39.108 28.0673 41.8181 24.7428 41.8181ZM24.7428 30.9152C22.0568 30.9152 19.8768 33.0958 19.8768 35.7826C19.8768 38.4694 22.0568 40.65 24.7428 40.65C27.4288 40.65 29.6088 38.4694 29.6088 35.7826C29.6088 33.0958 27.4288 30.9152 24.7428 30.9152Z" fill="#21365F"/>
<path d="M27.0775 36.367H22.4062C22.087 36.367 21.8223 36.1022 21.8223 35.7829C21.8223 35.4636 22.087 35.1989 22.4062 35.1989H27.0775C27.3967 35.1989 27.6615 35.4636 27.6615 35.7829C27.6615 36.1022 27.3967 36.367 27.0775 36.367Z" fill="#21365F"/>
<path d="M24.7421 38.7034C24.4229 38.7034 24.1582 38.4386 24.1582 38.1193V33.4466C24.1582 33.1273 24.4229 32.8625 24.7421 32.8625C25.0613 32.8625 25.326 33.1273 25.326 33.4466V38.1193C25.326 38.4386 25.0613 38.7034 24.7421 38.7034Z" fill="#21365F"/>
</svg>
