<svg width="80" height="80" viewBox="0 0 80 80" fill="none" xmlns="http://www.w3.org/2000/svg">
<path d="M60.6299 70.097C66.8637 70.097 71.9171 65.0428 71.9171 58.8081C71.9171 52.5734 66.8637 47.5192 60.6299 47.5192C54.3962 47.5192 49.3428 52.5734 49.3428 58.8081C49.3428 65.0428 54.3962 70.097 60.6299 70.097Z" fill="#B0DDFF"/>
<path d="M53.1405 27.3524C58.4837 27.3524 62.8152 23.0202 62.8152 17.6762C62.8152 12.3322 58.4837 8 53.1405 8C47.7973 8 43.4658 12.3322 43.4658 17.6762C43.4658 23.0202 47.7973 27.3524 53.1405 27.3524Z" fill="#B0DDFF"/>
<path d="M24.1245 72C33.0299 72 40.249 64.7797 40.249 55.873C40.249 46.9663 33.0299 39.746 24.1245 39.746C15.2192 39.746 8 46.9663 8 55.873C8 64.7797 15.2192 72 24.1245 72Z" fill="#B0DDFF"/>
<path d="M55.5672 13.0397H16.8683C15.9778 13.0397 15.2559 13.7617 15.2559 14.6524V63.0334C15.2559 63.924 15.9778 64.6461 16.8683 64.6461H55.5672C56.4577 64.6461 57.1796 63.924 57.1796 63.0334V14.6524C57.1796 13.7617 56.4577 13.0397 55.5672 13.0397Z" fill="#BDC3D8"/>
<path d="M16.8683 13.0397H53.9547V61.4207C53.9547 61.8642 53.5919 62.227 53.1485 62.227H15.2559V14.6524C15.2559 13.7654 15.9815 13.0397 16.8683 13.0397Z" fill="white"/>
<path d="M55.5673 65.2509H16.8685C15.643 65.2509 14.6514 64.2591 14.6514 63.0334V14.6524C14.6514 13.4267 15.643 12.4349 16.8685 12.4349H55.5673C56.7928 12.4349 57.7845 13.4267 57.7845 14.6524V63.0334C57.7845 64.2591 56.7928 65.2509 55.5673 65.2509ZM16.8685 13.6445C16.3122 13.6445 15.8607 14.096 15.8607 14.6524V63.0334C15.8607 63.5898 16.3122 64.0413 16.8685 64.0413H55.5673C56.1236 64.0413 56.5751 63.5898 56.5751 63.0334V14.6524C56.5751 14.096 56.1236 13.6445 55.5673 13.6445H16.8685Z" fill="#21365F"/>
<path d="M25.7373 13.0397H46.6992V17.0714C46.6992 18.41 45.6188 19.4905 44.2805 19.4905H28.156C26.8176 19.4905 25.7373 18.41 25.7373 17.0714V13.0397Z" fill="#BDC3D8"/>
<path d="M25.7373 13.0397H45.0867V17.0714C45.0867 17.5149 44.7239 17.8778 44.2805 17.8778H28.156C26.8176 17.8778 25.7373 16.7973 25.7373 15.4587V13.0397Z" fill="white"/>
<path d="M44.2807 20.0953H28.1562C26.4873 20.0953 25.1328 18.7406 25.1328 17.0714V13.0397C25.1328 12.7091 25.4069 12.4349 25.7375 12.4349H46.6994C47.0299 12.4349 47.304 12.7091 47.304 13.0397V17.0714C47.304 18.7406 45.9496 20.0953 44.2807 20.0953ZM26.3422 13.6445V17.0714C26.3422 18.0713 27.1564 18.8857 28.1562 18.8857H44.2807C45.2804 18.8857 46.0947 18.0713 46.0947 17.0714V13.6445H26.3422Z" fill="#21365F"/>
<path d="M23.3183 39.4477H20.8996C20.569 39.4477 20.2949 39.1735 20.2949 38.8429C20.2949 38.5123 20.569 38.2382 20.8996 38.2382H23.3183C23.6488 38.2382 23.9229 38.5123 23.9229 38.8429C23.9229 39.1735 23.6488 39.4477 23.3183 39.4477Z" fill="#21365F"/>
<path d="M44.2806 39.4477H37.0246C36.694 39.4477 36.4199 39.1735 36.4199 38.8429C36.4199 38.5123 36.694 38.2382 37.0246 38.2382H44.2806C44.6112 38.2382 44.8853 38.5123 44.8853 38.8429C44.8853 39.1735 44.6112 39.4477 44.2806 39.4477Z" fill="#21365F"/>
<path d="M33.7992 39.4477H26.5431C26.2126 39.4477 25.9385 39.1735 25.9385 38.8429C25.9385 38.5123 26.2126 38.2382 26.5431 38.2382H33.7992C34.1297 38.2382 34.4038 38.5123 34.4038 38.8429C34.4038 39.1735 34.1297 39.4477 33.7992 39.4477Z" fill="#21365F"/>
<path d="M23.3183 44.2857H20.8996C20.569 44.2857 20.2949 44.0115 20.2949 43.6809C20.2949 43.3503 20.569 43.0762 20.8996 43.0762H23.3183C23.6488 43.0762 23.9229 43.3503 23.9229 43.6809C23.9229 44.0115 23.6488 44.2857 23.3183 44.2857Z" fill="#21365F"/>
<path d="M41.3697 44.2857H34.2023C33.8718 44.2857 33.5977 44.0115 33.5977 43.6809C33.5977 43.3503 33.8718 43.0762 34.2023 43.0762H41.3697C41.7002 43.0762 41.9744 43.3503 41.9744 43.6809C41.9744 44.0115 41.7002 44.2857 41.3697 44.2857Z" fill="#21365F"/>
<path d="M30.9774 44.2857H26.5431C26.2126 44.2857 25.9385 44.0115 25.9385 43.6809C25.9385 43.3503 26.2126 43.0762 26.5431 43.0762H30.9774C31.3079 43.0762 31.5821 43.3503 31.5821 43.6809C31.5821 44.0115 31.3079 44.2857 30.9774 44.2857Z" fill="#21365F"/>
<path d="M40.249 49.1238H26.5431C26.2126 49.1238 25.9385 48.8497 25.9385 48.5191C25.9385 48.1885 26.2126 47.9143 26.5431 47.9143H40.249C40.5795 47.9143 40.8537 48.1885 40.8537 48.5191C40.8537 48.8497 40.5795 49.1238 40.249 49.1238Z" fill="#21365F"/>
<path d="M23.3183 53.962H20.8996C20.569 53.962 20.2949 53.6878 20.2949 53.3572C20.2949 53.0266 20.569 52.7524 20.8996 52.7524H23.3183C23.6488 52.7524 23.9229 53.0266 23.9229 53.3572C23.9229 53.6878 23.6488 53.962 23.3183 53.962Z" fill="#21365F"/>
<path d="M33.7992 58.8082H26.5431C26.2126 58.8082 25.9385 58.534 25.9385 58.2034C25.9385 57.8728 26.2126 57.5986 26.5431 57.5986H33.7992C34.1297 57.5986 34.4038 57.8728 34.4038 58.2034C34.4038 58.534 34.1297 58.8082 33.7992 58.8082Z" fill="#21365F"/>
<path d="M41.0552 53.962H26.5431C26.2126 53.962 25.9385 53.6878 25.9385 53.3572C25.9385 53.0266 26.2126 52.7524 26.5431 52.7524H41.0552C41.3858 52.7524 41.6599 53.0266 41.6599 53.3572C41.6599 53.6878 41.3858 53.962 41.0552 53.962Z" fill="#21365F"/>
<path d="M63.5492 40.5362C59.1391 36.1255 51.996 36.1255 47.5859 40.5362L63.5492 56.5019C67.9593 52.0912 67.9593 44.9469 63.5492 40.5362Z" fill="white"/>
<path d="M63.5493 40.5362C61.6224 38.609 59.1795 37.5285 56.6641 37.2786C57.9943 37.8269 59.244 38.6413 60.3244 39.7299C64.3232 43.7213 64.678 49.9624 61.4289 54.3812L63.5493 56.502C67.9593 52.0912 67.9593 44.947 63.5493 40.5362Z" fill="#BDC3D8"/>
<path d="M63.5493 57.1067C63.3962 57.1067 63.243 57.0502 63.122 56.9293L47.1588 40.9635C46.9249 40.7297 46.9249 40.3426 47.1588 40.1088C49.4081 37.8591 52.3912 36.6254 55.5677 36.6254C58.7442 36.6254 61.7272 37.8671 63.9766 40.1088C66.226 42.3585 67.4595 45.342 67.4595 48.519C67.4595 51.696 66.226 54.6796 63.9766 56.9293C63.8557 57.0502 63.7025 57.1067 63.5493 57.1067ZM48.4568 40.5442L63.5413 55.631C65.2988 53.6716 66.2582 51.1639 66.2582 48.519C66.2582 45.6646 65.1457 42.9794 63.1301 40.9635C61.1145 38.9477 58.4298 37.8349 55.5758 37.8349C52.9233 37.8349 50.424 38.7945 48.4648 40.5523L48.4568 40.5442Z" fill="#21365F"/>
<path d="M47.5859 40.5363C43.1758 44.947 43.1758 52.0913 47.5859 56.502C51.9959 60.9127 59.1391 60.9127 63.5491 56.502L47.5859 40.5363Z" fill="white"/>
<path d="M63.5493 56.502L47.586 40.5363C47.0297 41.0846 46.554 41.6813 46.1348 42.3102L57.5187 53.6959C58.6555 54.8328 58.4539 56.7761 57.0511 57.5583C55.2855 58.5501 53.3183 59.0259 51.3511 58.9936C55.4225 60.6305 60.2518 59.8 63.5493 56.502Z" fill="#BDC3D8"/>
<path d="M55.5676 60.4127C52.3911 60.4127 49.4081 59.179 47.1587 56.9293C44.9093 54.6796 43.6758 51.6961 43.6758 48.5191C43.6758 45.3421 44.9093 42.3586 47.1587 40.1089C47.3925 39.875 47.7795 39.875 48.0133 40.1089L63.9765 56.0746C64.0894 56.1875 64.1539 56.3407 64.1539 56.502C64.1539 56.6632 64.0894 56.8164 63.9765 56.9293C61.7272 59.179 58.7441 60.4127 55.5676 60.4127ZM47.6021 41.4071C45.8445 43.3665 44.8851 45.8743 44.8851 48.5191C44.8851 51.3736 45.9977 54.0587 48.0133 56.0746C50.0288 58.0905 52.7136 59.2032 55.5676 59.2032C58.2201 59.2032 60.7194 58.2437 62.6785 56.4858L47.594 41.399L47.6021 41.4071Z" fill="#21365F"/>
<path d="M56.1154 22.0547L60.6787 26.6187L52.2133 35.0853L47.65 30.5214C45.312 28.183 45.312 24.3931 47.65 22.0547C49.9881 19.7163 53.7773 19.7163 56.1154 22.0547Z" fill="white"/>
<path d="M53.6967 22.861L59.0662 28.2313L60.6787 26.6186L56.1154 22.0547C54.1402 20.0791 51.1249 19.7808 48.8271 21.1435C50.5605 20.9581 52.3584 21.5306 53.6967 22.861Z" fill="#BDC3D8"/>
<path d="M52.2058 35.69C52.0445 35.69 51.8913 35.6255 51.7785 35.5126L47.2152 30.9487C45.9736 29.7069 45.2803 28.0458 45.2803 26.288C45.2803 24.5301 45.9656 22.869 47.2152 21.6273C48.4568 20.3855 50.1177 19.692 51.8752 19.692C53.6328 19.692 55.2936 20.3774 56.5352 21.6273L61.0984 26.1912C61.2113 26.3041 61.2758 26.4573 61.2758 26.6186C61.2758 26.7798 61.2113 26.933 61.0984 27.0459L52.6331 35.5126C52.5202 35.6255 52.367 35.69 52.2058 35.69ZM51.8833 20.9015C50.4482 20.9015 49.0937 21.4579 48.0779 22.482C47.0621 23.498 46.4977 24.8527 46.4977 26.288C46.4977 27.7233 47.054 29.0779 48.0779 30.0939L52.2138 34.2305L59.8246 26.6186L55.6887 22.482C54.6728 21.466 53.3183 20.9015 51.8833 20.9015Z" fill="#21365F"/>
<path d="M60.3487 26.9412L65.2344 31.8276C67.3951 33.9887 67.3951 37.4882 65.2344 39.6492C63.0737 41.8103 59.5747 41.8103 57.414 39.6492L52.5283 34.7628L60.3487 26.9412Z" fill="white"/>
<path d="M65.2343 31.8276L60.3486 26.9412L58.333 28.957L62.8156 33.4403C64.8876 35.5127 64.9682 38.8106 63.0656 40.9797C63.8557 40.7217 64.5974 40.2782 65.2343 39.6492C67.395 37.4882 67.395 33.9887 65.2343 31.8276Z" fill="#BDC3D8"/>
<path d="M61.3323 41.8667C59.6956 41.8667 58.1557 41.2297 56.9948 40.0685L52.109 35.182C51.9962 35.0691 51.9316 34.9159 51.9316 34.7547C51.9316 34.5934 51.9962 34.4402 52.109 34.3273L59.9294 26.5057C60.1632 26.2719 60.5502 26.2719 60.784 26.5057L65.6698 31.3922C68.0562 33.787 68.0562 37.6737 65.6698 40.0685C64.5088 41.2297 62.9689 41.8667 61.3323 41.8667ZM53.3909 34.7547L57.8494 39.2138C59.7682 41.1329 62.8883 41.1329 64.8152 39.2138C66.734 37.2947 66.734 34.1741 64.8152 32.2469L60.3567 27.7878L53.3909 34.7547Z" fill="#21365F"/>
<path d="M66.855 63.6381H63.6301C63.2995 63.6381 63.0254 63.364 63.0254 63.0334C63.0254 62.7027 63.2995 62.4286 63.6301 62.4286H66.855C67.1855 62.4286 67.4596 62.7027 67.4596 63.0334C67.4596 63.364 67.1855 63.6381 66.855 63.6381Z" fill="#21365F"/>
<path d="M65.2424 65.2508C64.9118 65.2508 64.6377 64.9767 64.6377 64.6461V61.4207C64.6377 61.0901 64.9118 60.8159 65.2424 60.8159C65.5729 60.8159 65.847 61.0901 65.847 61.4207V64.6461C65.847 64.9767 65.5729 65.2508 65.2424 65.2508Z" fill="#21365F"/>
<path d="M66.855 25.5381H63.6301C63.2995 25.5381 63.0254 25.264 63.0254 24.9334C63.0254 24.6028 63.2995 24.3286 63.6301 24.3286H66.855C67.1855 24.3286 67.4596 24.6028 67.4596 24.9334C67.4596 25.264 67.1855 25.5381 66.855 25.5381Z" fill="#21365F"/>
<path d="M65.2424 27.1507C64.9118 27.1507 64.6377 26.8766 64.6377 26.546V23.3206C64.6377 22.99 64.9118 22.7158 65.2424 22.7158C65.5729 22.7158 65.847 22.99 65.847 23.3206V26.546C65.847 26.8766 65.5729 27.1507 65.2424 27.1507Z" fill="#21365F"/>
<path d="M65.2424 20.7C65.5763 20.7 65.847 20.4292 65.847 20.0952C65.847 19.7612 65.5763 19.4905 65.2424 19.4905C64.9084 19.4905 64.6377 19.7612 64.6377 20.0952C64.6377 20.4292 64.9084 20.7 65.2424 20.7Z" fill="#21365F"/>
<path d="M65.2424 18.2809C65.5763 18.2809 65.847 18.0102 65.847 17.6762C65.847 17.3422 65.5763 17.0714 65.2424 17.0714C64.9084 17.0714 64.6377 17.3422 64.6377 17.6762C64.6377 18.0102 64.9084 18.2809 65.2424 18.2809Z" fill="#21365F"/>
<path d="M65.2424 14.2492C65.5763 14.2492 65.847 13.9784 65.847 13.6444C65.847 13.3104 65.5763 13.0397 65.2424 13.0397C64.9084 13.0397 64.6377 13.3104 64.6377 13.6444C64.6377 13.9784 64.9084 14.2492 65.2424 14.2492Z" fill="#21365F"/>
<path d="M28.9622 24.3286H20.9C20.4547 24.3286 20.0938 24.6896 20.0938 25.135V33.1985C20.0938 33.6438 20.4547 34.0048 20.9 34.0048H28.9622C29.4075 34.0048 29.7685 33.6438 29.7685 33.1985V25.135C29.7685 24.6896 29.4075 24.3286 28.9622 24.3286Z" fill="#BDC3D8"/>
<path d="M20.9 24.3286H28.156V30.7794C28.156 31.6664 27.4304 32.3921 26.5436 32.3921H20.0938V25.135C20.0938 24.6915 20.4566 24.3286 20.9 24.3286Z" fill="white"/>
<path d="M28.9624 34.6096H20.9002C20.1262 34.6096 19.4893 33.9726 19.4893 33.1985V25.135C19.4893 24.3609 20.1262 23.7239 20.9002 23.7239H28.9624C29.7364 23.7239 30.3733 24.3609 30.3733 25.135V33.1985C30.3733 33.9726 29.7364 34.6096 28.9624 34.6096ZM20.9002 24.9334C20.7873 24.9334 20.6986 25.0221 20.6986 25.135V33.1985C20.6986 33.3114 20.7873 33.4001 20.9002 33.4001H28.9624C29.0753 33.4001 29.164 33.3114 29.164 33.1985V25.135C29.164 25.0221 29.0753 24.9334 28.9624 24.9334H20.9002Z" fill="#21365F"/>
<path d="M26.9463 29.7714H22.9152C22.5847 29.7714 22.3105 29.4973 22.3105 29.1667C22.3105 28.836 22.5847 28.5619 22.9152 28.5619H26.9463C27.2769 28.5619 27.551 28.836 27.551 29.1667C27.551 29.4973 27.2769 29.7714 26.9463 29.7714Z" fill="#21365F"/>
<path d="M24.9308 31.7873C24.6003 31.7873 24.3262 31.5131 24.3262 31.1825V27.1508C24.3262 26.8202 24.6003 26.546 24.9308 26.546C25.2614 26.546 25.5355 26.8202 25.5355 27.1508V31.1825C25.5355 31.5131 25.2614 31.7873 24.9308 31.7873Z" fill="#21365F"/>
<path d="M43.03 29.7714H33.8068C33.4763 29.7714 33.2021 29.4973 33.2021 29.1667C33.2021 28.836 33.4763 28.5619 33.8068 28.5619H43.03C43.3606 28.5619 43.6347 28.836 43.6347 29.1667C43.6347 29.4973 43.3606 29.7714 43.03 29.7714Z" fill="#21365F"/>
<path d="M46.2559 34.6095H42.2248C41.8942 34.6095 41.6201 34.3354 41.6201 34.0048C41.6201 33.6742 41.8942 33.4 42.2248 33.4H46.2559C46.5865 33.4 46.8606 33.6742 46.8606 34.0048C46.8606 34.3354 46.5865 34.6095 46.2559 34.6095Z" fill="#21365F"/>
<path d="M38.9989 34.6095H33.8068C33.4763 34.6095 33.2021 34.3354 33.2021 34.0048C33.2021 33.6742 33.4763 33.4 33.8068 33.4H38.9989C39.3295 33.4 39.6036 33.6742 39.6036 34.0048C39.6036 34.3354 39.3295 34.6095 38.9989 34.6095Z" fill="#21365F"/>
</svg>
