<svg width="80" height="80" viewBox="0 0 80 80" fill="none" xmlns="http://www.w3.org/2000/svg">
<path d="M61.7138 52.4849C67.7285 52.4849 72.6043 47.6076 72.6043 41.5912C72.6043 35.5749 67.7285 30.6976 61.7138 30.6976C55.6991 30.6976 50.8232 35.5749 50.8232 41.5912C50.8232 47.6076 55.6991 52.4849 61.7138 52.4849Z" fill="#B0DDFF"/>
<path d="M31.9588 72C37.1142 72 41.2935 67.8195 41.2935 62.6626C41.2935 57.5057 37.1142 53.3252 31.9588 53.3252C26.8033 53.3252 22.624 57.5057 22.624 62.6626C22.624 67.8195 26.8033 72 31.9588 72Z" fill="#B0DDFF"/>
<path d="M23.5579 39.1246C32.1503 39.1246 39.1158 32.1571 39.1158 23.5623C39.1158 14.9675 32.1503 8 23.5579 8C14.9655 8 8 14.9675 8 23.5623C8 32.1571 14.9655 39.1246 23.5579 39.1246Z" fill="#B0DDFF"/>
<path d="M16.4005 15.1975H63.0742C63.9299 15.1975 64.63 15.8978 64.63 16.7537V22.9787H14.8447V16.7537C14.8447 15.8978 15.5448 15.1975 16.4005 15.1975Z" fill="#BDC3D8"/>
<path d="M16.4005 15.1975H57.629V19.0881C57.629 19.944 56.9289 20.6443 56.0732 20.6443H14.8447V16.7537C14.8447 15.8978 15.5448 15.1975 16.4005 15.1975Z" fill="white"/>
<path d="M60.733 19.8663C60.5307 19.8663 60.3363 19.7807 60.1885 19.6407C60.0407 19.4928 59.9629 19.2905 59.9629 19.0882C59.9629 18.8859 60.0407 18.6758 60.1885 18.5358C60.4763 18.2478 60.9975 18.2478 61.2853 18.5358C61.4331 18.6758 61.5187 18.8781 61.5187 19.0882C61.5187 19.2983 61.4331 19.4928 61.2853 19.6329C61.1375 19.7807 60.943 19.8663 60.733 19.8663Z" fill="#21365F"/>
<path d="M55.2959 19.0804C55.2959 18.6524 55.6382 18.3101 56.0738 18.3101C56.5016 18.3101 56.8517 18.6524 56.8517 19.0804C56.8517 19.5161 56.5016 19.8663 56.0738 19.8663C55.6382 19.8663 55.2959 19.5161 55.2959 19.0804Z" fill="#21365F"/>
<path d="M51.398 19.8663C51.1958 19.8663 51.0013 19.7807 50.8535 19.6407C50.7057 19.4928 50.6279 19.2905 50.6279 19.0882C50.6279 18.8859 50.7057 18.6758 50.8535 18.5358C51.1414 18.2478 51.6625 18.2478 51.9504 18.5358C52.0982 18.6758 52.1837 18.8781 52.1837 19.0882C52.1837 19.2983 52.0982 19.4928 51.9504 19.6329C51.8026 19.7807 51.6081 19.8663 51.398 19.8663Z" fill="#21365F"/>
<path d="M64.6304 23.5623H14.8451C14.5262 23.5623 14.2617 23.2978 14.2617 22.9788V16.7538C14.2617 15.5711 15.2185 14.614 16.4009 14.614H63.0746C64.257 14.614 65.2139 15.5711 65.2139 16.7538V22.9788C65.2139 23.2978 64.9494 23.5623 64.6304 23.5623ZM15.4286 22.3952H64.047V16.7538C64.047 16.2169 63.6114 15.7812 63.0746 15.7812H16.4009C15.8642 15.7812 15.4286 16.2169 15.4286 16.7538V22.3952Z" fill="#21365F"/>
<path d="M14.8447 22.9788H64.63V63.4408C64.63 64.2967 63.9299 64.997 63.0742 64.997H16.4005C15.5448 64.997 14.8447 64.2967 14.8447 63.4408V22.9788Z" fill="#BDC3D8"/>
<path d="M14.8447 22.9788H58.4069V59.5502C58.4069 61.2698 57.0144 62.6626 55.2953 62.6626H14.8447V22.9788Z" fill="white"/>
<path d="M63.0746 65.5806H16.4009C15.2185 65.5806 14.2617 64.6235 14.2617 63.4407V22.9787C14.2617 22.6597 14.5262 22.3951 14.8451 22.3951H64.6304C64.9494 22.3951 65.2139 22.6597 65.2139 22.9787V63.4407C65.2139 64.6235 64.257 65.5806 63.0746 65.5806ZM15.4286 23.5623V63.4407C15.4286 63.9776 15.8642 64.4134 16.4009 64.4134H63.0746C63.6114 64.4134 64.047 63.9776 64.047 63.4407V23.5623H15.4286Z" fill="#21365F"/>
<path d="M59.963 28.231H54.9067C54.5877 28.231 54.3232 27.9665 54.3232 27.6474C54.3232 27.3284 54.5877 27.0638 54.9067 27.0638H59.963C60.2819 27.0638 60.5464 27.3284 60.5464 27.6474C60.5464 27.9665 60.2819 28.231 59.963 28.231Z" fill="#21365F"/>
<path d="M51.7954 28.231H47.517C47.1981 28.231 46.9336 27.9665 46.9336 27.6474C46.9336 27.3284 47.1981 27.0638 47.517 27.0638H51.7954C52.1144 27.0638 52.3789 27.3284 52.3789 27.6474C52.3789 27.9665 52.1144 28.231 51.7954 28.231Z" fill="#21365F"/>
<path d="M59.9633 32.8997H47.517C47.1981 32.8997 46.9336 32.6352 46.9336 32.3161C46.9336 31.9971 47.1981 31.7325 47.517 31.7325H59.9633C60.2823 31.7325 60.5468 31.9971 60.5468 32.3161C60.5468 32.6352 60.2823 32.8997 59.9633 32.8997Z" fill="#21365F"/>
<path d="M59.9629 37.5684H56.4623C56.1434 37.5684 55.8789 37.3039 55.8789 36.9848C55.8789 36.6658 56.1434 36.4012 56.4623 36.4012H59.9629C60.2818 36.4012 60.5463 36.6658 60.5463 36.9848C60.5463 37.3039 60.2818 37.5684 59.9629 37.5684Z" fill="#21365F"/>
<path d="M53.3512 37.5684H47.517C47.1981 37.5684 46.9336 37.3039 46.9336 36.9848C46.9336 36.6658 47.1981 36.4012 47.517 36.4012H53.3512C53.6702 36.4012 53.9347 36.6658 53.9347 36.9848C53.9347 37.3039 53.6702 37.5684 53.3512 37.5684Z" fill="#21365F"/>
<path d="M59.9626 42.2371H54.1283C53.8094 42.2371 53.5449 41.9726 53.5449 41.6535C53.5449 41.3345 53.8094 41.0699 54.1283 41.0699H59.9626C60.2815 41.0699 60.546 41.3345 60.546 41.6535C60.546 41.9726 60.2815 42.2371 59.9626 42.2371Z" fill="#21365F"/>
<path d="M51.0175 42.2371H47.517C47.1981 42.2371 46.9336 41.9726 46.9336 41.6535C46.9336 41.3345 47.1981 41.0699 47.517 41.0699H51.0175C51.3365 41.0699 51.601 41.3345 51.601 41.6535C51.601 41.9726 51.3365 42.2371 51.0175 42.2371Z" fill="#21365F"/>
<path d="M56.0739 46.9058H47.517C47.1981 46.9058 46.9336 46.6413 46.9336 46.3222C46.9336 46.0032 47.1981 45.7386 47.517 45.7386H56.0739C56.3928 45.7386 56.6573 46.0032 56.6573 46.3222C56.6573 46.6413 56.3928 46.9058 56.0739 46.9058Z" fill="#21365F"/>
<path d="M38.1822 27.6475H24.1801C21.6023 27.6475 19.5127 29.7377 19.5127 32.3162V46.3222C19.5127 48.9007 21.6023 50.9909 24.1801 50.9909H38.1822C40.7599 50.9909 42.8496 48.9007 42.8496 46.3222V32.3162C42.8496 29.7377 40.7599 27.6475 38.1822 27.6475Z" fill="#BDC3D8"/>
<path d="M24.1801 27.6475H36.6264C38.7734 27.6475 40.5159 29.3904 40.5159 31.538V46.3222C40.5159 47.6139 39.4735 48.6566 38.1822 48.6566H23.4022C21.2552 48.6566 19.5127 46.9136 19.5127 44.766V32.3162C19.5127 29.7406 21.6052 27.6475 24.1801 27.6475Z" fill="white"/>
<path d="M38.1816 51.5745H24.1795C21.2857 51.5745 18.9287 49.2168 18.9287 46.3222V32.3161C18.9287 29.4215 21.2857 27.0638 24.1795 27.0638H38.1816C41.0754 27.0638 43.4324 29.4215 43.4324 32.3161V46.3222C43.4324 49.2168 41.0754 51.5745 38.1816 51.5745ZM24.1795 28.231C21.9236 28.231 20.0956 30.0674 20.0956 32.3161V46.3222C20.0956 48.571 21.9236 50.4073 24.1795 50.4073H38.1816C40.4375 50.4073 42.2656 48.571 42.2656 46.3222V32.3161C42.2656 30.0674 40.4375 28.231 38.1816 28.231H24.1795Z" fill="#21365F"/>
<path d="M38.96 47.1003L54.5179 52.4382L47.4468 55.5896L44.2963 62.6627L38.96 47.1003Z" fill="#BDC3D8"/>
<path d="M38.96 47.1003L47.4468 55.5896L44.2963 62.6627L38.96 47.1003Z" fill="white"/>
<path d="M44.2966 63.2463C44.2966 63.2463 44.2811 63.2463 44.2733 63.2463C44.0322 63.2385 43.8221 63.0828 43.7444 62.8494L38.408 47.2871C38.338 47.077 38.3924 46.8436 38.548 46.688C38.7036 46.5323 38.9369 46.4779 39.147 46.5479L54.7049 51.8858C54.9305 51.9636 55.0861 52.1737 55.1016 52.4149C55.1094 52.6561 54.9771 52.874 54.7593 52.9751L47.8906 56.0331L44.8334 62.9039C44.74 63.114 44.53 63.254 44.2966 63.254V63.2463ZM39.8938 48.0419L44.3667 61.0753L46.9104 55.3562C46.9726 55.2239 47.0738 55.1227 47.206 55.0605L52.9235 52.516L39.8938 48.0419Z" fill="#21365F"/>
<path d="M37.2327 56.2431H27.9057C27.5868 56.2431 27.3223 55.9785 27.3223 55.6595C27.3223 55.3405 27.5868 55.0759 27.9057 55.0759H37.2327C37.5516 55.0759 37.8161 55.3405 37.8161 55.6595C37.8161 55.9785 37.5516 56.2431 37.2327 56.2431Z" fill="#21365F"/>
<path d="M24.7863 56.2431H19.5121C19.1932 56.2431 18.9287 55.9785 18.9287 55.6595C18.9287 55.3405 19.1932 55.0759 19.5121 55.0759H24.7863C25.1052 55.0759 25.3697 55.3405 25.3697 55.6595C25.3697 55.9785 25.1052 56.2431 24.7863 56.2431Z" fill="#21365F"/>
<path d="M38.8281 60.9119H33.5072C33.1883 60.9119 32.9238 60.6474 32.9238 60.3283C32.9238 60.0093 33.1883 59.7448 33.5072 59.7448H38.8281C39.147 59.7448 39.4115 60.0093 39.4115 60.3283C39.4115 60.6474 39.147 60.9119 38.8281 60.9119Z" fill="#21365F"/>
<path d="M30.3949 60.9119H19.5121C19.1932 60.9119 18.9287 60.6474 18.9287 60.3283C18.9287 60.0093 19.1932 59.7448 19.5121 59.7448H30.3949C30.7138 59.7448 30.9783 60.0093 30.9783 60.3283C30.9783 60.6474 30.7138 60.9119 30.3949 60.9119Z" fill="#21365F"/>
<path d="M70.0759 21.5547H66.9643C66.6453 21.5547 66.3809 21.2902 66.3809 20.9712C66.3809 20.6521 66.6453 20.3876 66.9643 20.3876H70.0759C70.3948 20.3876 70.6593 20.6521 70.6593 20.9712C70.6593 21.2902 70.3948 21.5547 70.0759 21.5547Z" fill="#21365F"/>
<path d="M68.5199 23.1111C68.201 23.1111 67.9365 22.8465 67.9365 22.5275V19.415C67.9365 19.096 68.201 18.8314 68.5199 18.8314C68.8389 18.8314 69.1034 19.096 69.1034 19.415V22.5275C69.1034 22.8465 68.8389 23.1111 68.5199 23.1111Z" fill="#21365F"/>
<path d="M68.5199 26.2234C68.8422 26.2234 69.1034 25.9622 69.1034 25.6399C69.1034 25.3176 68.8422 25.0563 68.5199 25.0563C68.1977 25.0563 67.9365 25.3176 67.9365 25.6399C67.9365 25.9622 68.1977 26.2234 68.5199 26.2234Z" fill="#21365F"/>
<path d="M68.5199 28.5578C68.8422 28.5578 69.1034 28.2965 69.1034 27.9742C69.1034 27.6519 68.8422 27.3906 68.5199 27.3906C68.1977 27.3906 67.9365 27.6519 67.9365 27.9742C67.9365 28.2965 68.1977 28.5578 68.5199 28.5578Z" fill="#21365F"/>
<path d="M68.5199 32.4484C68.8422 32.4484 69.1034 32.1871 69.1034 31.8648C69.1034 31.5425 68.8422 31.2812 68.5199 31.2812C68.1977 31.2812 67.9365 31.5425 67.9365 31.8648C67.9365 32.1871 68.1977 32.4484 68.5199 32.4484Z" fill="#21365F"/>
<path d="M68.5199 37.1171C68.8422 37.1171 69.1034 36.8558 69.1034 36.5335C69.1034 36.2112 68.8422 35.95 68.5199 35.95C68.1977 35.95 67.9365 36.2112 67.9365 36.5335C67.9365 36.8558 68.1977 37.1171 68.5199 37.1171Z" fill="#21365F"/>
<path d="M12.5114 51.7067H9.39983C9.08089 51.7067 8.81641 51.4422 8.81641 51.1231C8.81641 50.8041 9.08089 50.5396 9.39983 50.5396H12.5114C12.8303 50.5396 13.0948 50.8041 13.0948 51.1231C13.0948 51.4422 12.8303 51.7067 12.5114 51.7067Z" fill="#21365F"/>
<path d="M10.9555 53.263C10.6366 53.263 10.3721 52.9985 10.3721 52.6794V49.567C10.3721 49.248 10.6366 48.9834 10.9555 48.9834C11.2744 48.9834 11.5389 49.248 11.5389 49.567V52.6794C11.5389 52.9985 11.2744 53.263 10.9555 53.263Z" fill="#21365F"/>
<path d="M10.9555 47.038C11.2777 47.038 11.5389 46.7767 11.5389 46.4544C11.5389 46.1321 11.2777 45.8708 10.9555 45.8708C10.6333 45.8708 10.3721 46.1321 10.3721 46.4544C10.3721 46.7767 10.6333 47.038 10.9555 47.038Z" fill="#21365F"/>
<path d="M10.9555 44.7037C11.2777 44.7037 11.5389 44.4424 11.5389 44.1201C11.5389 43.7978 11.2777 43.5365 10.9555 43.5365C10.6333 43.5365 10.3721 43.7978 10.3721 44.1201C10.3721 44.4424 10.6333 44.7037 10.9555 44.7037Z" fill="#21365F"/>
<path d="M10.9555 40.8132C11.2777 40.8132 11.5389 40.5519 11.5389 40.2296C11.5389 39.9073 11.2777 39.646 10.9555 39.646C10.6333 39.646 10.3721 39.9073 10.3721 40.2296C10.3721 40.5519 10.6333 40.8132 10.9555 40.8132Z" fill="#21365F"/>
<path d="M10.9555 36.1445C11.2777 36.1445 11.5389 35.8832 11.5389 35.5609C11.5389 35.2386 11.2777 34.9773 10.9555 34.9773C10.6333 34.9773 10.3721 35.2386 10.3721 35.5609C10.3721 35.8832 10.6333 36.1445 10.9555 36.1445Z" fill="#21365F"/>
<path d="M38.3146 36.728H33.7795V32.1916C33.7795 31.8337 33.4917 31.5458 33.1339 31.5458H29.2444C28.8866 31.5458 28.5988 31.8337 28.5988 32.1916V36.728H24.0636C23.7058 36.728 23.418 37.0159 23.418 37.3739V41.2644C23.418 41.6224 23.7058 41.9103 24.0636 41.9103H28.5988V46.4467C28.5988 46.8046 28.8866 47.0925 29.2444 47.0925H33.1339C33.4917 47.0925 33.7795 46.8046 33.7795 46.4467V41.9103H38.3146C38.6725 41.9103 38.9603 41.6224 38.9603 41.2644V37.3739C38.9603 37.0159 38.6725 36.728 38.3146 36.728Z" fill="#BDC3D8"/>
<path d="M37.0155 36.728H33.7717V32.1916C33.7717 31.8337 33.4839 31.5458 33.1261 31.5458H29.2366C28.8788 31.5458 28.5909 31.8337 28.5909 32.1916V36.728H24.0558C23.698 36.728 23.4102 37.0159 23.4102 37.3739V41.2644C23.4102 41.6224 23.698 41.9103 24.0558 41.9103H28.5909V45.155H31.1813C31.5392 45.155 31.827 44.8671 31.827 44.5092V41.2644C31.827 40.5486 32.4104 39.965 33.1261 39.965H36.3699C36.7277 39.965 37.0155 39.6771 37.0155 39.3191V36.728Z" fill="white"/>
<path d="M33.1255 47.6839H29.236C28.5593 47.6839 28.007 47.1314 28.007 46.4545V42.5016H24.0553C23.3785 42.5016 22.8262 41.9492 22.8262 41.2722V37.3817C22.8262 36.7047 23.3785 36.1522 24.0553 36.1522H28.007V32.1994C28.007 31.5224 28.5593 30.97 29.236 30.97H33.1255C33.8023 30.97 34.3546 31.5224 34.3546 32.1994V36.1522H38.3063C38.9831 36.1522 39.5353 36.7047 39.5353 37.3817V41.2722C39.5353 41.9492 38.9831 42.5016 38.3063 42.5016H34.3546V46.4545C34.3546 47.1314 33.8023 47.6839 33.1255 47.6839ZM24.0475 37.3116C24.0475 37.3116 23.9852 37.3427 23.9852 37.3739V41.2644C23.9852 41.2644 24.0164 41.3267 24.0475 41.3267H28.5826C28.9015 41.3267 29.166 41.5912 29.166 41.9103V46.4467C29.166 46.4467 29.1971 46.5089 29.2283 46.5089H33.1177C33.1177 46.5089 33.18 46.4778 33.18 46.4467V41.9103C33.18 41.5912 33.4444 41.3267 33.7634 41.3267H38.2985C38.2985 41.3267 38.3608 41.2956 38.3608 41.2644V37.3739C38.3608 37.3739 38.3296 37.3116 38.2985 37.3116H33.7634C33.4444 37.3116 33.18 37.047 33.18 36.728V32.1916C33.18 32.1916 33.1489 32.1294 33.1177 32.1294H29.2283C29.2283 32.1294 29.166 32.1605 29.166 32.1916V36.728C29.166 37.047 28.9015 37.3116 28.5826 37.3116H24.0475Z" fill="#21365F"/>
</svg>
