<svg width="80" height="80" viewBox="0 0 80 80" fill="none" xmlns="http://www.w3.org/2000/svg">
<path d="M20.1847 69.4561C26.214 69.4561 31.1018 64.5669 31.1018 58.5359C31.1018 52.5049 26.214 47.6157 20.1847 47.6157C14.1553 47.6157 9.26758 52.5049 9.26758 58.5359C9.26758 64.5669 14.1553 69.4561 20.1847 69.4561Z" fill="#B0DDFF"/>
<path d="M37.6368 29.0904C42.8048 29.0904 46.9943 24.8997 46.9943 19.7303C46.9943 14.5608 42.8048 10.3701 37.6368 10.3701C32.4688 10.3701 28.2793 14.5608 28.2793 19.7303C28.2793 24.8997 32.4688 29.0904 37.6368 29.0904Z" fill="#B0DDFF"/>
<path d="M55.1818 54.4407C63.7951 54.4407 70.7776 47.4563 70.7776 38.8405C70.7776 30.2247 63.7951 23.2402 55.1818 23.2402C46.5684 23.2402 39.5859 30.2247 39.5859 38.8405C39.5859 47.4563 46.5684 54.4407 55.1818 54.4407Z" fill="#B0DDFF"/>
<path d="M43.017 45.5798C38.4474 50.1506 38.4474 57.553 43.017 62.1238L59.5564 45.5798C54.9868 41.0089 47.5788 41.0089 43.017 45.5798Z" fill="white"/>
<path d="M43.0166 62.1319C47.5862 66.7028 54.9942 66.7028 59.556 62.1319C64.1256 57.5611 64.1256 50.151 59.556 45.5879L43.0166 62.1319Z" fill="white"/>
<path d="M59.5569 56.9291C55.8997 60.5874 50.4178 61.3128 46.0354 59.1054L43.0098 62.1318C47.5793 66.7027 54.9874 66.7027 59.5492 62.1318C62.4968 59.1833 63.5339 55.0493 62.6683 51.2584C62.1926 53.3333 61.1633 55.3145 59.5492 56.9291H59.5569Z" fill="#BDC3D8"/>
<path d="M42.9004 54.55C41.6527 52.7326 40.9821 50.6421 40.8729 48.5283C38.6193 52.9276 39.3289 58.4501 43.0095 62.1317L59.5489 45.5877C58.7379 44.7764 57.8334 44.1134 56.8742 43.5908L45.6296 54.8386C44.8342 55.6342 43.532 55.4782 42.8926 54.55H42.9004Z" fill="#BDC3D8"/>
<path d="M43.0169 62.7168C42.8688 62.7168 42.7206 62.6622 42.6036 62.5452C37.8157 57.756 37.8157 49.9636 42.6036 45.1744C47.3916 40.3851 55.1817 40.3851 59.9696 45.1744C60.1957 45.4006 60.1957 45.775 59.9696 46.0012L43.4302 62.5452C43.3132 62.6622 43.1651 62.7168 43.0169 62.7168ZM51.2905 42.7407C48.3195 42.7407 45.5279 43.8951 43.4302 45.9934C41.3326 48.0916 40.1785 50.8841 40.1785 53.8559C40.1785 56.6249 41.1844 59.2458 43.0325 61.2894L58.7297 45.5878C56.6867 43.7469 54.0666 42.7329 51.2983 42.7329L51.2905 42.7407Z" fill="#21365F"/>
<path d="M51.2823 66.1332C48.1397 66.1332 44.9893 64.932 42.5954 62.5374C42.3692 62.3111 42.3692 61.9367 42.5954 61.7105L59.1348 45.1665C59.2439 45.0573 59.3921 44.9949 59.5481 44.9949C59.704 44.9949 59.8522 45.0573 59.9614 45.1665C64.7493 49.9558 64.7493 57.7481 59.9614 62.5374C57.5674 64.932 54.4248 66.1332 51.2745 66.1332H51.2823ZM43.8508 62.1161C45.8939 63.957 48.514 64.971 51.2823 64.971C54.2533 64.971 57.0449 63.8166 59.1426 61.7183C63.3378 57.5219 63.4704 50.7826 59.5481 46.4223L43.8508 62.1161Z" fill="#21365F"/>
<path d="M17.6428 32.6865C11.5527 38.7784 11.5527 48.6533 17.6428 54.7452L39.6953 32.6865C33.6052 26.5946 23.733 26.5946 17.6428 32.6865Z" fill="white"/>
<path d="M17.6426 54.7452C23.7328 60.8371 33.6049 60.8371 39.6951 54.7452C45.7853 48.6533 45.7853 38.7783 39.6951 32.6864L17.6426 54.7452Z" fill="white"/>
<path d="M39.6951 47.8109C34.8136 52.6938 27.5147 53.6532 21.6663 50.7125L17.6348 54.7452C23.7249 60.8371 33.5971 60.8371 39.6873 54.7452C43.6174 50.8061 44.9977 45.2992 43.8514 40.2448C43.2197 43.0138 41.8473 45.6502 39.6873 47.8109H39.6951Z" fill="#BDC3D8"/>
<path d="M17.4862 44.6363C15.8252 42.2182 14.9285 39.4258 14.7881 36.6099C11.7859 42.4756 12.7294 49.8389 17.6421 54.753L39.6947 32.6943C38.6107 31.6101 37.4099 30.7286 36.131 30.0344L21.1434 45.0263C20.0829 46.0871 18.3439 45.8843 17.494 44.6441L17.4862 44.6363Z" fill="#BDC3D8"/>
<path d="M17.6427 55.3299C17.4946 55.3299 17.3464 55.2753 17.2294 55.1583C10.9209 48.848 10.9209 38.5831 17.2294 32.2728C23.5379 25.9625 33.8 25.9625 40.1085 32.2728C40.3347 32.499 40.3347 32.8734 40.1085 33.0996L18.056 55.1583C17.939 55.2753 17.7909 55.3299 17.6427 55.3299ZM28.669 28.7081C24.8246 28.7081 20.9802 30.1745 18.056 33.0996C12.3401 38.8171 12.2076 48.029 17.6505 53.9103L38.8609 32.694C35.9912 30.0341 32.3262 28.7081 28.669 28.7081Z" fill="#21365F"/>
<path d="M28.6687 59.8932C24.528 59.8932 20.3795 58.3175 17.2292 55.1585C17.003 54.9323 17.003 54.5579 17.2292 54.3317L39.2817 32.2729C39.5078 32.0467 39.8821 32.0467 40.1083 32.2729C46.4168 38.5832 46.4168 48.8482 40.1083 55.1585C36.9579 58.3175 32.8094 59.8932 28.6687 59.8932ZM18.4768 54.7373C24.3565 60.1818 33.5658 60.0492 39.2817 54.3317C44.9976 48.6142 45.1301 39.4022 39.6872 33.5209L18.4768 54.7373Z" fill="#21365F"/>
<path d="M51.2833 35.9156H40.3662V15.6353H51.2833C56.8822 15.6353 61.4206 20.1749 61.4206 25.7754C61.4206 31.3759 56.8822 35.9156 51.2833 35.9156Z" fill="white"/>
<path d="M59.7051 20.1203C59.8064 20.6897 59.8688 21.2747 59.8688 21.8754C59.8688 27.4758 55.3304 32.0155 49.7315 32.0155H40.4832V15.6353H40.374V35.9156H51.2911C56.89 35.9156 61.4284 31.3759 61.4284 25.7754C61.4284 23.685 60.7968 21.735 59.7051 20.1203Z" fill="#BDC3D8"/>
<path d="M51.2832 36.5006H40.3661C40.0464 36.5006 39.7812 36.2354 39.7812 35.9156V15.6353C39.7812 15.3155 40.0464 15.0503 40.3661 15.0503H51.2832C57.194 15.0503 62.0053 19.863 62.0053 25.7755C62.0053 31.688 57.194 36.5006 51.2832 36.5006ZM40.9509 35.3306H51.2832C56.5468 35.3306 60.8356 31.0406 60.8356 25.7755C60.8356 20.5104 56.5468 16.2203 51.2832 16.2203H40.9509V35.3306Z" fill="#21365F"/>
<path d="M40.3659 35.1355H28.669C23.499 35.1355 19.3115 30.9468 19.3115 25.7753C19.3115 20.6038 23.499 16.4152 28.669 16.4152H40.3659V35.1355Z" fill="white"/>
<path d="M38.0262 16.4152V28.1153C38.0262 30.2682 36.2795 32.0154 34.1272 32.0154H26.3293C23.9744 32.0154 21.8299 31.1418 20.1846 29.6988C21.6662 32.9046 24.9101 35.1355 28.6687 35.1355H40.3656V16.4152H38.0262Z" fill="#BDC3D8"/>
<path d="M40.3658 35.7205H28.6689C23.187 35.7205 18.7266 31.2588 18.7266 25.7754C18.7266 20.2919 23.187 15.8302 28.6689 15.8302H40.3658C40.6855 15.8302 40.9506 16.0954 40.9506 16.4152V35.1355C40.9506 35.4553 40.6855 35.7205 40.3658 35.7205ZM28.6689 17.0002C23.8342 17.0002 19.8963 20.9393 19.8963 25.7754C19.8963 30.6114 23.8342 34.5505 28.6689 34.5505H39.7809V17.0002H28.6689Z" fill="#21365F"/>
<path d="M62.9804 39.6207H59.8612C59.5415 39.6207 59.2764 39.3555 59.2764 39.0357C59.2764 38.7159 59.5415 38.4507 59.8612 38.4507H62.9804C63.3001 38.4507 63.5652 38.7159 63.5652 39.0357C63.5652 39.3555 63.3001 39.6207 62.9804 39.6207Z" fill="#21365F"/>
<path d="M61.4198 41.1806C61.1001 41.1806 60.835 40.9154 60.835 40.5956V37.4755C60.835 37.1557 61.1001 36.8905 61.4198 36.8905C61.7395 36.8905 62.0046 37.1557 62.0046 37.4755V40.5956C62.0046 40.9154 61.7395 41.1806 61.4198 41.1806Z" fill="#21365F"/>
<path d="M16.1923 28.7004H13.0731C12.7534 28.7004 12.4883 28.4352 12.4883 28.1154C12.4883 27.7956 12.7534 27.5304 13.0731 27.5304H16.1923C16.512 27.5304 16.7771 27.7956 16.7771 28.1154C16.7771 28.4352 16.512 28.7004 16.1923 28.7004Z" fill="#21365F"/>
<path d="M14.6327 30.2604C14.313 30.2604 14.0479 29.9952 14.0479 29.6754V26.5553C14.0479 26.2355 14.313 25.9703 14.6327 25.9703C14.9524 25.9703 15.2175 26.2355 15.2175 26.5553V29.6754C15.2175 29.9952 14.9524 30.2604 14.6327 30.2604Z" fill="#21365F"/>
<path d="M38.8066 63.0211H35.6874C35.3677 63.0211 35.1025 62.7559 35.1025 62.4361C35.1025 62.1163 35.3677 61.8511 35.6874 61.8511H38.8066C39.1263 61.8511 39.3914 62.1163 39.3914 62.4361C39.3914 62.7559 39.1263 63.0211 38.8066 63.0211Z" fill="#21365F"/>
<path d="M37.247 64.5812C36.9272 64.5812 36.6621 64.316 36.6621 63.9962V60.8761C36.6621 60.5563 36.9272 60.2911 37.247 60.2911C37.5667 60.2911 37.8318 60.5563 37.8318 60.8761V63.9962C37.8318 64.316 37.5667 64.5812 37.247 64.5812Z" fill="#21365F"/>
<path d="M25.5497 64.5813H22.4305C22.1108 64.5813 21.8457 64.3161 21.8457 63.9963C21.8457 63.6765 22.1108 63.4113 22.4305 63.4113H25.5497C25.8694 63.4113 26.1346 63.6765 26.1346 63.9963C26.1346 64.3161 25.8694 64.5813 25.5497 64.5813Z" fill="#21365F"/>
<path d="M23.9901 66.1411C23.6704 66.1411 23.4053 65.8759 23.4053 65.5561V62.4361C23.4053 62.1163 23.6704 61.8511 23.9901 61.8511C24.3098 61.8511 24.575 62.1163 24.575 62.4361V65.5561C24.575 65.8759 24.3098 66.1411 23.9901 66.1411Z" fill="#21365F"/>
<path d="M16.1923 59.1209H13.0731C12.7534 59.1209 12.4883 58.8557 12.4883 58.5359C12.4883 58.2161 12.7534 57.9509 13.0731 57.9509H16.1923C16.512 57.9509 16.7771 58.2161 16.7771 58.5359C16.7771 58.8557 16.512 59.1209 16.1923 59.1209Z" fill="#21365F"/>
<path d="M14.6327 60.6811C14.313 60.6811 14.0479 60.4159 14.0479 60.0961V56.976C14.0479 56.6562 14.313 56.391 14.6327 56.391C14.9524 56.391 15.2175 56.6562 15.2175 56.976V60.0961C15.2175 60.4159 14.9524 60.6811 14.6327 60.6811Z" fill="#21365F"/>
</svg>
