<svg width="48" height="48" viewBox="0 0 48 48" fill="none" xmlns="http://www.w3.org/2000/svg">
<rect width="48" height="48" rx="5" fill="#B0DDFF"/>
<path d="M27.9248 13C29.621 13.4552 31.1676 14.3486 32.4094 15.5904C33.6512 16.8322 34.5446 18.3788 34.9998 20.075" stroke="#00508C" stroke-width="2" stroke-linecap="round" stroke-linejoin="round"/>
<path d="M26.8877 16.8625C27.9078 17.1335 28.8382 17.6693 29.5846 18.4156C30.331 19.162 30.8668 20.0924 31.1377 21.1125" stroke="#00508C" stroke-width="2" stroke-linecap="round" stroke-linejoin="round"/>
<path d="M19.5625 23.6C20.5915 25.7251 22.3098 27.439 24.4375 28.4625C24.5944 28.5369 24.768 28.569 24.9412 28.5559C25.1143 28.5427 25.2811 28.4847 25.425 28.3875L28.55 26.3C28.6881 26.2064 28.8476 26.1493 29.0137 26.134C29.1799 26.1187 29.3471 26.1457 29.5 26.2125L35.35 28.725C35.5499 28.8083 35.717 28.9549 35.8254 29.1424C35.9338 29.3298 35.9776 29.5477 35.95 29.7625C35.7646 31.2097 35.0582 32.5397 33.9631 33.5038C32.8679 34.4678 31.459 34.9997 30 35C25.4913 35 21.1673 33.209 17.9792 30.0209C14.7911 26.8327 13 22.5087 13 18C13.0003 16.541 13.5323 15.1321 14.4963 14.037C15.4603 12.9418 16.7903 12.2355 18.2375 12.05C18.4523 12.0224 18.6702 12.0662 18.8577 12.1747C19.0452 12.2831 19.1918 12.4501 19.275 12.65L21.7875 18.5125C21.8528 18.663 21.8802 18.8272 21.8671 18.9907C21.854 19.1541 21.8009 19.3119 21.7125 19.45L19.625 22.625C19.5321 22.7686 19.4775 22.9337 19.4666 23.1044C19.4556 23.2751 19.4887 23.4457 19.5625 23.6V23.6Z" stroke="#00508C" stroke-width="2" stroke-linecap="round" stroke-linejoin="round"/>
</svg>
