<svg width="24" height="24" viewBox="0 0 24 24" fill="none" xmlns="http://www.w3.org/2000/svg">
<path d="M7.25625 18.9281L4.22812 21.4594C4.11886 21.5498 3.9862 21.6074 3.84553 21.6254C3.70486 21.6435 3.56195 21.6213 3.43338 21.5615C3.30481 21.5016 3.19585 21.4065 3.11914 21.2872C3.04244 21.1679 3.00112 21.0293 3 20.8875V6C3 5.80109 3.07902 5.61032 3.21967 5.46967C3.36032 5.32902 3.55109 5.25 3.75 5.25H20.25C20.4489 5.25 20.6397 5.32902 20.7803 5.46967C20.921 5.61032 21 5.80109 21 6V18C21 18.1989 20.921 18.3897 20.7803 18.5303C20.6397 18.671 20.4489 18.75 20.25 18.75H7.73438C7.55878 18.75 7.38907 18.8133 7.25625 18.9281V18.9281Z" stroke="#3B3B3B" stroke-width="2" stroke-linecap="round" stroke-linejoin="round"/>
</svg>
