<svg width="24" height="24" viewBox="0 0 24 24" fill="none" xmlns="http://www.w3.org/2000/svg">
<path d="M6.65178 8.92228H8.94802V16.2946H6.65178V8.92228ZM7.7983 5.25854C8.53169 5.25854 9.12736 5.85422 9.12736 6.58761C9.12736 7.321 8.53169 7.91667 7.7983 7.91667C7.06491 7.91667 6.46924 7.321 6.46924 6.58761C6.46924 5.85422 7.06491 5.25854 7.7983 5.25854ZM10.3828 16.2978H12.6726V12.6501C12.6726 11.6893 12.8551 10.7573 14.0465 10.7573C15.2379 10.7573 15.2379 11.8558 15.2379 12.7141V16.2978H17.5277V12.2529C17.5277 10.2674 17.0985 8.73973 14.7799 8.73973C13.6622 8.73973 12.916 9.35142 12.6085 9.93109H12.5797V8.92228H10.3796V16.2946L10.3828 16.2978Z" fill="#3B3B3B"/>
<path d="M12 0C5.38351 0 0 5.38351 0 12C0 18.6165 5.38351 24 12 24C18.6165 24 24 18.6165 24 12C24 5.38351 18.6165 0 12 0ZM12 22.4596C6.23218 22.4596 1.54043 17.7678 1.54043 11.9968C1.54043 6.22578 6.23218 1.53723 12 1.53723C17.7678 1.53723 22.4596 6.22898 22.4596 11.9968C22.4596 17.7646 17.7678 22.4596 12 22.4596Z" fill="#3B3B3B"/>
</svg>
