<svg width="24" height="24" viewBox="0 0 24 24" fill="none" xmlns="http://www.w3.org/2000/svg">
<path d="M18.1265 8.13447C17.7358 8.31061 17.2906 8.41949 16.8647 8.48995C17.0664 8.45472 17.3547 8.09283 17.4732 7.94552C17.6525 7.72134 17.7998 7.46513 17.8863 7.18971C17.8959 7.16729 17.9023 7.14167 17.8831 7.12566C17.8575 7.11605 17.8383 7.11925 17.8158 7.13206C17.3451 7.38507 16.8551 7.56761 16.3363 7.69892C16.2946 7.70853 16.2626 7.69892 16.2338 7.6733C16.1921 7.62526 16.1505 7.57722 16.1057 7.54199C15.8879 7.35624 15.6541 7.20893 15.3883 7.10324C15.0424 6.96233 14.6613 6.90148 14.2866 6.9271C13.9215 6.94952 13.566 7.052 13.2426 7.22174C12.9191 7.39147 12.6309 7.62526 12.4003 7.91029C12.1633 8.20492 11.9872 8.5508 11.8975 8.91909C11.811 9.27458 11.8174 9.62366 11.8719 9.98235C11.8783 10.0432 11.8719 10.0496 11.8206 10.0432C9.78702 9.73895 8.09927 9.01197 6.73177 7.45232C6.67093 7.38507 6.6389 7.38507 6.59086 7.45873C5.99198 8.35544 6.28341 9.7998 7.02961 10.5076C7.12889 10.6036 7.23137 10.6965 7.34346 10.783C7.30183 10.7926 6.80543 10.7381 6.36028 10.5076C6.29943 10.4691 6.2706 10.4916 6.2642 10.5588C6.25779 10.6549 6.2642 10.7446 6.28021 10.8502C6.3955 11.7598 7.02641 12.602 7.8879 12.9319C7.99038 12.9735 8.10247 13.012 8.21456 13.0312C8.0192 13.076 7.81424 13.1048 7.25059 13.06C7.18013 13.0472 7.15451 13.0824 7.18013 13.1497C7.60287 14.3058 8.5188 14.6485 9.20415 14.8438C9.29702 14.8598 9.38669 14.8598 9.47957 14.8823C9.47316 14.8919 9.46996 14.8919 9.46356 14.8983C9.23618 15.2442 8.44834 15.5036 8.08325 15.6317C7.41712 15.8655 6.69014 15.9711 5.98558 15.9007C5.87349 15.8847 5.84787 15.8847 5.81904 15.9007C5.78702 15.9199 5.81584 15.9455 5.85107 15.9775C5.99519 16.0736 6.1393 16.1569 6.28662 16.2369C6.73498 16.4739 7.20255 16.6629 7.68934 16.7974C10.2098 17.4924 13.0504 16.9831 14.9431 15.1C16.4291 13.6237 16.9511 11.5868 16.9511 9.5468C16.9511 9.46673 17.044 9.4219 17.1017 9.38026C17.4892 9.08883 17.8222 8.74295 18.1105 8.35224C18.1745 8.26577 18.2001 8.18891 18.2001 8.15689V8.14728C18.2001 8.11525 18.1777 8.12486 18.1265 8.14728V8.13447Z" fill="#3B3B3B"/>
<path d="M12 0C5.38351 0 0 5.38351 0 12C0 18.6165 5.38351 24 12 24C18.6165 24 24 18.6165 24 12C24 5.38351 18.6165 0 12 0ZM12 22.4596C6.23219 22.4596 1.54043 17.7678 1.54043 12C1.54043 6.23218 6.23219 1.54043 12 1.54043C17.7678 1.54043 22.4628 6.23218 22.4628 12C22.4628 17.7678 17.771 22.4596 12 22.4596Z" fill="#3B3B3B"/>
</svg>
