<svg width="24" height="25" viewBox="0 0 24 25" fill="none" xmlns="http://www.w3.org/2000/svg">
<path fill-rule="evenodd" clip-rule="evenodd" d="M10.4213 12.5481V18.4184C10.4213 18.5016 10.4886 18.5721 10.575 18.5721H12.756C12.8392 18.5721 12.9097 18.5048 12.9097 18.4184V12.452H14.4918C14.5718 12.452 14.6359 12.3911 14.6455 12.3111L14.796 10.5144C14.8024 10.4248 14.732 10.3479 14.6423 10.3479H12.9097V9.07329C12.9097 8.77546 13.1531 8.53206 13.4509 8.53206H14.6679C14.7512 8.53206 14.8216 8.46481 14.8216 8.37834V6.5817C14.8216 6.49843 14.7544 6.42798 14.6679 6.42798H12.6087C11.4013 6.42798 10.4213 7.40796 10.4213 8.61533V10.3479H9.33243C9.24917 10.3479 9.17871 10.4152 9.17871 10.5016V12.2983C9.17871 12.3815 9.24596 12.452 9.33243 12.452H10.4213V12.5481Z" fill="#3B3B3B"/>
<path d="M12 0.5C5.38351 0.5 0 5.88351 0 12.5C0 19.1165 5.38351 24.5 12 24.5C18.6165 24.5 24 19.1165 24 12.5C24 5.88351 18.6165 0.5 12 0.5ZM22.4596 12.5C22.4596 18.2678 17.7678 22.9596 12 22.9596C6.23219 22.9596 1.53723 18.2678 1.53723 12.5C1.53723 6.73219 6.23219 2.04043 12 2.04043C17.7678 2.04043 22.4596 6.73219 22.4596 12.5Z" fill="#3B3B3B"/>
</svg>
