<svg width="24" height="24" viewBox="0 0 24 24" fill="none" xmlns="http://www.w3.org/2000/svg">
<path fill-rule="evenodd" clip-rule="evenodd" d="M10.4213 12.0481V17.9184C10.4213 18.0016 10.4886 18.0721 10.575 18.0721H12.756C12.8392 18.0721 12.9097 18.0048 12.9097 17.9184V11.952H14.4918C14.5718 11.952 14.6359 11.8911 14.6455 11.8111L14.796 10.0144C14.8024 9.92478 14.732 9.84791 14.6423 9.84791H12.9097V8.57329C12.9097 8.27546 13.1531 8.03206 13.4509 8.03206H14.6679C14.7512 8.03206 14.8216 7.96481 14.8216 7.87834V6.0817C14.8216 5.99843 14.7544 5.92798 14.6679 5.92798H12.6087C11.4013 5.92798 10.4213 6.90796 10.4213 8.11533V9.84791H9.33243C9.24917 9.84791 9.17871 9.91517 9.17871 10.0016V11.7983C9.17871 11.8815 9.24596 11.952 9.33243 11.952H10.4213V12.0481V12.0481Z" fill="#0067B5"/>
<path d="M12 0C5.38351 0 0 5.38351 0 12C0 18.6165 5.38351 24 12 24C18.6165 24 24 18.6165 24 12C24 5.38351 18.6165 0 12 0ZM22.4596 12C22.4596 17.7678 17.7678 22.4596 12 22.4596C6.23219 22.4596 1.53723 17.7678 1.53723 12C1.53723 6.23219 6.23219 1.54043 12 1.54043C17.7678 1.54043 22.4596 6.23219 22.4596 12Z" fill="#0067B5"/>
</svg>
