<svg width="24" height="25" viewBox="0 0 24 25" fill="none" xmlns="http://www.w3.org/2000/svg">
<path d="M16.0004 9.18861C16.0004 9.58573 15.6801 9.90598 15.283 9.90598C14.8859 9.90598 14.5656 9.58252 14.5656 9.18861C14.5656 8.79469 14.8891 8.47123 15.283 8.47123C15.6769 8.47123 16.0004 8.79469 16.0004 9.18861ZM15.1069 12.4104C15.1069 14.0757 13.7522 15.4304 12.0869 15.4304C10.4215 15.4304 9.06685 14.0757 9.06685 12.4104C9.06685 10.7451 10.4215 9.39037 12.0869 9.39037C13.7522 9.39037 15.1069 10.7451 15.1069 12.4104ZM14.0212 12.4104C14.0212 11.3439 13.1533 10.476 12.0869 10.476C11.0204 10.476 10.1525 11.3439 10.1525 12.4104C10.1525 13.4768 11.0204 14.3447 12.0869 14.3447C13.1533 14.3447 14.0212 13.4768 14.0212 12.4104ZM18.1974 9.98605C18.1974 7.95242 16.548 6.3031 14.5144 6.3031H9.48959C7.45596 6.3031 5.80664 7.95242 5.80664 9.98605V15.0109C5.80664 17.0445 7.45596 18.6938 9.48959 18.6938H14.5144C16.548 18.6938 18.1974 17.0445 18.1974 15.0109V9.98605ZM16.9868 14.9564C16.9868 16.3527 15.8531 17.4864 14.4568 17.4864H9.54083C8.14451 17.4864 7.0108 16.3527 7.0108 14.9564V10.0405C7.0108 8.64417 8.14451 7.51047 9.54083 7.51047H14.4568C15.8531 7.51047 16.9868 8.64417 16.9868 10.0405V14.9564Z" fill="#3B3B3B"/>
<path d="M12 0.5C5.38351 0.5 0 5.88351 0 12.5C0 19.1165 5.38351 24.5 12 24.5C18.6165 24.5 24 19.1165 24 12.5C24 5.88351 18.6165 0.5 12 0.5ZM12 22.9596C6.23219 22.9596 1.54043 18.2678 1.54043 12.5C1.54043 6.73219 6.23219 2.04043 12 2.04043C17.7678 2.04043 22.4628 6.73219 22.4628 12.5C22.4628 18.2678 17.771 22.9596 12 22.9596Z" fill="#3B3B3B"/>
</svg>
