<svg width="24" height="24" viewBox="0 0 24 24" fill="none" xmlns="http://www.w3.org/2000/svg">
<path d="M16.0004 8.68849C16.0004 9.0856 15.6801 9.40586 15.283 9.40586C14.8859 9.40586 14.5657 9.0824 14.5657 8.68849C14.5657 8.29457 14.8891 7.97111 15.283 7.97111C15.6769 7.97111 16.0004 8.29457 16.0004 8.68849ZM15.1069 11.9103C15.1069 13.5756 13.7522 14.9303 12.0869 14.9303C10.4215 14.9303 9.06685 13.5756 9.06685 11.9103C9.06685 10.2449 10.4215 8.89025 12.0869 8.89025C13.7522 8.89025 15.1069 10.2449 15.1069 11.9103ZM14.0212 11.9103C14.0212 10.8438 13.1533 9.97592 12.0869 9.97592C11.0204 9.97592 10.1525 10.8438 10.1525 11.9103C10.1525 12.9767 11.0204 13.8446 12.0869 13.8446C13.1533 13.8446 14.0212 12.9767 14.0212 11.9103ZM18.1974 9.48592C18.1974 7.4523 16.548 5.80298 14.5144 5.80298H9.48959C7.45596 5.80298 5.80664 7.4523 5.80664 9.48592V14.5107C5.80664 16.5444 7.45596 18.1937 9.48959 18.1937H14.5144C16.548 18.1937 18.1974 16.5444 18.1974 14.5107V9.48592ZM16.9868 14.4563C16.9868 15.8526 15.8531 16.9863 14.4568 16.9863H9.54083C8.14451 16.9863 7.0108 15.8526 7.0108 14.4563V9.54037C7.0108 8.14405 8.14451 7.01034 9.54083 7.01034H14.4568C15.8531 7.01034 16.9868 8.14405 16.9868 9.54037V14.4563Z" fill="#0067B5"/>
<path d="M12 0C5.38351 0 0 5.38351 0 12C0 18.6165 5.38351 24 12 24C18.6165 24 24 18.6165 24 12C24 5.38351 18.6165 0 12 0ZM12 22.4596C6.23219 22.4596 1.54043 17.7678 1.54043 12C1.54043 6.23219 6.23219 1.54043 12 1.54043C17.7678 1.54043 22.4628 6.23219 22.4628 12C22.4628 17.7678 17.771 22.4596 12 22.4596Z" fill="#0067B5"/>
</svg>
