<svg width="24" height="24" viewBox="0 0 24 24" fill="none" xmlns="http://www.w3.org/2000/svg">
<path d="M6.6513 8.92228H8.94753V16.2946H6.6513V8.92228V8.92228ZM7.79781 5.25854C8.5312 5.25854 9.12688 5.85422 9.12688 6.58761C9.12688 7.321 8.5312 7.91667 7.79781 7.91667C7.06443 7.91667 6.46875 7.321 6.46875 6.58761C6.46875 5.85422 7.06443 5.25854 7.79781 5.25854ZM10.3823 16.2978H12.6721V12.6501C12.6721 11.6893 12.8547 10.7573 14.046 10.7573C15.2374 10.7573 15.2374 11.8558 15.2374 12.7141V16.2978H17.5272V12.2529C17.5272 10.2674 17.0981 8.73973 14.7794 8.73973C13.6617 8.73973 12.9155 9.35142 12.6081 9.93109H12.5792V8.92228H10.3791V16.2946L10.3823 16.2978Z" fill="white"/>
<path d="M12 0C5.38351 0 0 5.38351 0 12C0 18.6165 5.38351 24 12 24C18.6165 24 24 18.6165 24 12C24 5.38351 18.6165 0 12 0ZM12 22.4596C6.23218 22.4596 1.54043 17.7678 1.54043 11.9968C1.54043 6.22578 6.23218 1.53723 12 1.53723C17.7678 1.53723 22.4596 6.22898 22.4596 11.9968C22.4596 17.7646 17.7678 22.4596 12 22.4596Z" fill="white"/>
</svg>
