<svg width="24" height="25" viewBox="0 0 24 25" fill="none" xmlns="http://www.w3.org/2000/svg">
<path d="M6.6513 9.42228H8.94753V16.7946H6.6513V9.42228ZM7.79781 5.75854C8.5312 5.75854 9.12688 6.35422 9.12688 7.08761C9.12688 7.821 8.5312 8.41667 7.79781 8.41667C7.06443 8.41667 6.46875 7.821 6.46875 7.08761C6.46875 6.35422 7.06443 5.75854 7.79781 5.75854ZM10.3823 16.7978H12.6721V13.1501C12.6721 12.1893 12.8547 11.2573 14.046 11.2573C15.2374 11.2573 15.2374 12.3558 15.2374 13.2141V16.7978H17.5272V12.7529C17.5272 10.7674 17.0981 9.23973 14.7794 9.23973C13.6617 9.23973 12.9155 9.85142 12.6081 10.4311H12.5792V9.42228H10.3791V16.7946L10.3823 16.7978Z" fill="#3B3B3B"/>
<path d="M12 0.5C5.38351 0.5 0 5.88351 0 12.5C0 19.1165 5.38351 24.5 12 24.5C18.6165 24.5 24 19.1165 24 12.5C24 5.88351 18.6165 0.5 12 0.5ZM12 22.9596C6.23218 22.9596 1.54043 18.2678 1.54043 12.4968C1.54043 6.72578 6.23218 2.03723 12 2.03723C17.7678 2.03723 22.4596 6.72898 22.4596 12.4968C22.4596 18.2646 17.7678 22.9596 12 22.9596Z" fill="#3B3B3B"/>
</svg>
