<svg width="24" height="25" viewBox="0 0 24 25" fill="none" xmlns="http://www.w3.org/2000/svg">
<path d="M18.126 8.63447C17.7353 8.81061 17.2901 8.91949 16.8642 8.98995C17.066 8.95472 17.3542 8.59283 17.4727 8.44552C17.652 8.22134 17.7993 7.96513 17.8858 7.68971C17.8954 7.66729 17.9018 7.64167 17.8826 7.62566C17.857 7.61605 17.8378 7.61925 17.8154 7.63206C17.3446 7.88507 16.8546 8.06761 16.3358 8.19892C16.2941 8.20853 16.2621 8.19892 16.2333 8.1733C16.1917 8.12526 16.15 8.07722 16.1052 8.04199C15.8874 7.85624 15.6536 7.70893 15.3878 7.60324C15.0419 7.46233 14.6608 7.40148 14.2861 7.4271C13.921 7.44952 13.5655 7.552 13.2421 7.72174C12.9186 7.89147 12.6304 8.12526 12.3998 8.41029C12.1628 8.70492 11.9867 9.0508 11.897 9.41909C11.8105 9.77458 11.817 10.1237 11.8714 10.4823C11.8778 10.5432 11.8714 10.5496 11.8202 10.5432C9.78653 10.239 8.09878 9.51197 6.73129 7.95232C6.67044 7.88507 6.63841 7.88507 6.59037 7.95873C5.99149 8.85544 6.28293 10.2998 7.02912 11.0076C7.1284 11.1036 7.23088 11.1965 7.34297 11.283C7.30134 11.2926 6.80494 11.2381 6.35979 11.0076C6.29894 10.9691 6.27011 10.9916 6.26371 11.0588C6.2573 11.1549 6.26371 11.2446 6.27972 11.3502C6.39502 12.2598 7.02592 13.102 7.88741 13.4319C7.98989 13.4735 8.10198 13.512 8.21407 13.5312C8.01871 13.576 7.81375 13.6048 7.2501 13.56C7.17964 13.5472 7.15402 13.5824 7.17964 13.6497C7.60238 14.8058 8.51831 15.1485 9.20366 15.3438C9.29653 15.3598 9.38621 15.3598 9.47908 15.3823C9.47267 15.3919 9.46948 15.3919 9.46307 15.3983C9.23569 15.7442 8.44785 16.0036 8.08276 16.1317C7.41663 16.3655 6.68965 16.4711 5.98509 16.4007C5.873 16.3847 5.84738 16.3847 5.81855 16.4007C5.78653 16.4199 5.81535 16.4455 5.85058 16.4775C5.9947 16.5736 6.13881 16.6569 6.28613 16.7369C6.73449 16.9739 7.20206 17.1629 7.68885 17.2974C10.2093 17.9924 13.0499 17.4831 14.9427 15.6C16.4286 14.1237 16.9507 12.0868 16.9507 10.0468C16.9507 9.96673 17.0435 9.9219 17.1012 9.88026C17.4887 9.58883 17.8218 9.24295 18.11 8.85224C18.174 8.76577 18.1997 8.68891 18.1997 8.65689V8.64728C18.1997 8.61525 18.1772 8.62486 18.126 8.64728V8.63447Z" fill="#3B3B3B"/>
<path d="M12 0.5C5.38351 0.5 0 5.88351 0 12.5C0 19.1165 5.38351 24.5 12 24.5C18.6165 24.5 24 19.1165 24 12.5C24 5.88351 18.6165 0.5 12 0.5ZM12 22.9596C6.23219 22.9596 1.54043 18.2678 1.54043 12.5C1.54043 6.73218 6.23219 2.04043 12 2.04043C17.7678 2.04043 22.4628 6.73218 22.4628 12.5C22.4628 18.2678 17.771 22.9596 12 22.9596Z" fill="#3B3B3B"/>
</svg>
