<svg width="24" height="24" viewBox="0 0 24 24" fill="none" xmlns="http://www.w3.org/2000/svg">
<path d="M18.126 8.13447C17.7353 8.31061 17.2901 8.41949 16.8642 8.48995C17.066 8.45472 17.3542 8.09283 17.4727 7.94552C17.652 7.72134 17.7993 7.46513 17.8858 7.18971C17.8954 7.16729 17.9018 7.14167 17.8826 7.12566C17.857 7.11605 17.8378 7.11925 17.8154 7.13206C17.3446 7.38507 16.8546 7.56761 16.3358 7.69892C16.2941 7.70853 16.2621 7.69892 16.2333 7.6733C16.1917 7.62526 16.15 7.57722 16.1052 7.54199C15.8874 7.35624 15.6536 7.20893 15.3878 7.10324C15.0419 6.96233 14.6608 6.90148 14.2861 6.9271C13.921 6.94952 13.5655 7.052 13.2421 7.22174C12.9186 7.39147 12.6304 7.62526 12.3998 7.91029C12.1628 8.20492 11.9867 8.5508 11.897 8.91909C11.8105 9.27458 11.817 9.62366 11.8714 9.98235C11.8778 10.0432 11.8714 10.0496 11.8202 10.0432C9.78653 9.73895 8.09878 9.01197 6.73129 7.45232C6.67044 7.38507 6.63841 7.38507 6.59037 7.45873C5.99149 8.35544 6.28293 9.7998 7.02912 10.5076C7.1284 10.6036 7.23088 10.6965 7.34297 10.783C7.30134 10.7926 6.80494 10.7381 6.35979 10.5076C6.29894 10.4691 6.27011 10.4916 6.26371 10.5588C6.2573 10.6549 6.26371 10.7446 6.27972 10.8502C6.39502 11.7598 7.02592 12.602 7.88741 12.9319C7.98989 12.9735 8.10198 13.012 8.21407 13.0312C8.01871 13.076 7.81375 13.1048 7.2501 13.06C7.17964 13.0472 7.15402 13.0824 7.17964 13.1497C7.60238 14.3058 8.51831 14.6485 9.20366 14.8438C9.29653 14.8598 9.38621 14.8598 9.47908 14.8823C9.47267 14.8919 9.46948 14.8919 9.46307 14.8983C9.23569 15.2442 8.44785 15.5036 8.08276 15.6317C7.41663 15.8655 6.68965 15.9711 5.98509 15.9007C5.873 15.8847 5.84738 15.8847 5.81855 15.9007C5.78653 15.9199 5.81535 15.9455 5.85058 15.9775C5.9947 16.0736 6.13881 16.1569 6.28613 16.2369C6.73449 16.4739 7.20206 16.6629 7.68885 16.7974C10.2093 17.4924 13.0499 16.9831 14.9427 15.1C16.4286 13.6237 16.9507 11.5868 16.9507 9.5468C16.9507 9.46673 17.0435 9.4219 17.1012 9.38026C17.4887 9.08883 17.8218 8.74295 18.11 8.35224C18.174 8.26577 18.1997 8.18891 18.1997 8.15689V8.14728C18.1997 8.11525 18.1772 8.12486 18.126 8.14728V8.13447Z" fill="white"/>
<path d="M12 0C5.38351 0 0 5.38351 0 12C0 18.6165 5.38351 24 12 24C18.6165 24 24 18.6165 24 12C24 5.38351 18.6165 0 12 0ZM12 22.4596C6.23219 22.4596 1.54043 17.7678 1.54043 12C1.54043 6.23218 6.23219 1.54043 12 1.54043C17.7678 1.54043 22.4628 6.23218 22.4628 12C22.4628 17.7678 17.771 22.4596 12 22.4596Z" fill="white"/>
</svg>
